<svg xmlns="http://www.w3.org/2000/svg" xmlns:xlink="http://www.w3.org/1999/xlink" width="195.367" height="135.765" viewBox="0 0 195.367 135.765">
  <defs>
    <linearGradient id="linear-gradient" y1="0.5" x2="1" y2="0.5" gradientUnits="objectBoundingBox">
      <stop offset="0" stop-color="#b38746"/>
      <stop offset="0.389" stop-color="#d9973b"/>
      <stop offset="0.75" stop-color="#ad6c10"/>
      <stop offset="0.858" stop-color="#d3953d"/>
      <stop offset="1" stop-color="#b07f35"/>
    </linearGradient>
    <linearGradient id="linear-gradient-2" y1="0.5" x2="1" y2="0.5" gradientUnits="objectBoundingBox">
      <stop offset="0" stop-color="#ffee76"/>
      <stop offset="1" stop-color="#1d1d1b"/>
    </linearGradient>
    <linearGradient id="linear-gradient-3" y1="0.5" x2="1" y2="0.5" gradientUnits="objectBoundingBox">
      <stop offset="0" stop-color="#fff"/>
      <stop offset="1" stop-color="#663d1f"/>
    </linearGradient>
    <linearGradient id="linear-gradient-4" y1="0.5" x2="1" y2="0.5" gradientUnits="objectBoundingBox">
      <stop offset="0" stop-color="#663d1f"/>
      <stop offset="1" stop-color="#fff"/>
    </linearGradient>
    <linearGradient id="linear-gradient-5" x1="0" y1="0.5" x2="1" y2="0.5" xlink:href="#linear-gradient-2"/>
    <linearGradient id="linear-gradient-6" y1="0.5" x2="1" y2="0.5" gradientUnits="objectBoundingBox">
      <stop offset="0" stop-color="#ffe878"/>
      <stop offset="1" stop-color="#e6a729"/>
    </linearGradient>
    <linearGradient id="linear-gradient-7" y1="0.5" x2="1" y2="0.5" gradientUnits="objectBoundingBox">
      <stop offset="0" stop-color="#f0cc62"/>
      <stop offset="1" stop-color="#ed9e1f"/>
    </linearGradient>
    <linearGradient id="linear-gradient-9" y1="0.5" x2="1" y2="0.5" gradientUnits="objectBoundingBox">
      <stop offset="0" stop-color="#e0c0a8"/>
      <stop offset="1" stop-color="#663d1f"/>
    </linearGradient>
    <linearGradient id="linear-gradient-12" x1="0" y1="0.5" x2="1" y2="0.5" xlink:href="#linear-gradient-3"/>
    <linearGradient id="linear-gradient-13" x1="0" y1="0.5" x2="1" y2="0.5" xlink:href="#linear-gradient-4"/>
  </defs>
  <g id="_01_coins" data-name="01_coins" transform="translate(-309.628 -322.342)">
    <g id="Group_3343" data-name="Group 3343" transform="translate(309.628 341.032)">
      <path id="Path_11770" data-name="Path 11770" d="M309.628,363.582c0,26.462,40.975,47.913,91.52,47.913s91.52-21.451,91.52-47.913l0-20.935H309.628v20.935Z" transform="translate(-309.628 -294.42)" fill-rule="evenodd" fill="url(#linear-gradient)"/>
      <path id="Path_11771" data-name="Path 11771" d="M360.147,360.675q6.152.4,12.529.4a187.568,187.568,0,0,0,25.235-1.675v20.9c-8.041,1.087-11.634,1.668-25.235,1.668s-35.727-2.6-50.379-7.1V353.956a166.118,166.118,0,0,0,37.85,6.719Z" transform="translate(-280.164 -264.896)" fill-rule="evenodd" opacity="0.5" fill="url(#linear-gradient-2)" style="mix-blend-mode: screen;isolation: isolate"/>
      <path id="Path_11772" data-name="Path 11772" d="M354.392,377.514c18.653-8.694,30.387-21.057,30.615-34.792l0,20.664c0,13.847-11.781,26.318-30.618,35.063V377.514Z" transform="translate(-201.97 -294.224)" fill-rule="evenodd" opacity="0.5" fill="url(#linear-gradient-3)" style="mix-blend-mode: multiply;isolation: isolate"/>
      <path id="Path_11773" data-name="Path 11773" d="M329.367,371.709v20.96c-12.381-8.063-19.74-18.147-19.74-29.087V342.647c.061,10.929,7.405,21,19.74,29.062Z" transform="translate(-309.628 -294.42)" fill-rule="evenodd" opacity="0.5" fill="url(#linear-gradient-4)" style="mix-blend-mode: multiply;isolation: isolate"/>
      <path id="Path_11774" data-name="Path 11774" d="M353.135,358.783q6.152.4,12.529.4v20.891a180.277,180.277,0,0,1-40.681-4.5v-20.9a173.222,173.222,0,0,0,28.152,4.1Z" transform="translate(-272.909 -263.003)" fill-rule="evenodd" fill="url(#linear-gradient-5)" style="mix-blend-mode: screen;isolation: isolate"/>
      <path id="Path_11775" data-name="Path 11775" d="M411.965,388.943a45.977,45.977,0,0,1-.532,7.178.457.457,0,0,1-.906,0,48.719,48.719,0,0,1,0-14.36.457.457,0,0,1,.906,0,45.991,45.991,0,0,1,.532,7.182Zm12.029-1.282a47.892,47.892,0,0,1-.511,7.182.434.434,0,0,1-.865,0,50.677,50.677,0,0,1,0-14.363.434.434,0,0,1,.865,0,47.888,47.888,0,0,1,.511,7.182Zm11.905-2.2a50,50,0,0,1-.487,7.178.414.414,0,0,1-.827,0,53.14,53.14,0,0,1,0-14.36.414.414,0,0,1,.827,0,50.015,50.015,0,0,1,.487,7.182Zm11.7-3.213a52.268,52.268,0,0,1-.467,7.182.422.422,0,0,1-.395.4.427.427,0,0,1-.395-.4,55.858,55.858,0,0,1,0-14.359.427.427,0,0,1,.395-.4.422.422,0,0,1,.395.4,52.256,52.256,0,0,1,.467,7.178Zm11.352-4.369a55.425,55.425,0,0,1-.443,7.182.376.376,0,1,1-.752,0,58.457,58.457,0,0,1,0-14.36.376.376,0,1,1,.752,0,55.364,55.364,0,0,1,.443,7.178Zm10.783-5.737a57.634,57.634,0,0,1-.419,7.182.357.357,0,1,1-.71,0,61.795,61.795,0,0,1,0-14.363.357.357,0,1,1,.71,0,57.632,57.632,0,0,1,.419,7.182Zm9.757-7.5a60.623,60.623,0,0,1-.4,7.178c-.028.231-.168.4-.336.4s-.309-.166-.336-.4a65.506,65.506,0,0,1,0-14.359c.027-.231.168-.4.336-.4s.309.166.336.4a60.694,60.694,0,0,1,.4,7.182Zm-93.745,24.292a45.973,45.973,0,0,0,.532,7.178.457.457,0,0,0,.906,0,48.719,48.719,0,0,0,0-14.36.457.457,0,0,0-.906,0,45.987,45.987,0,0,0-.532,7.182Zm-12.029-1.282a47.892,47.892,0,0,0,.511,7.182.434.434,0,0,0,.865,0,50.68,50.68,0,0,0,0-14.363.434.434,0,0,0-.865,0,47.887,47.887,0,0,0-.511,7.182Zm-11.9-2.2a50,50,0,0,0,.487,7.178.414.414,0,0,0,.827,0,53.133,53.133,0,0,0,0-14.36.414.414,0,0,0-.827,0,50.015,50.015,0,0,0-.487,7.182Zm-11.7-3.213a52.274,52.274,0,0,0,.467,7.182.393.393,0,1,0,.786,0,55.448,55.448,0,0,0,0-14.359.393.393,0,1,0-.786,0,52.261,52.261,0,0,0-.467,7.178Zm-11.353-4.369a54.818,54.818,0,0,0,.443,7.182.375.375,0,1,0,.748,0,58.445,58.445,0,0,0,0-14.36.375.375,0,1,0-.748,0,54.758,54.758,0,0,0-.443,7.178Zm-10.786-5.737a57.579,57.579,0,0,0,.422,7.182.4.4,0,0,0,.353.4.406.406,0,0,0,.357-.4,61.8,61.8,0,0,0,0-14.363.406.406,0,0,0-.357-.4.4.4,0,0,0-.353.4,57.577,57.577,0,0,0-.422,7.182Zm-9.753-7.5a60.624,60.624,0,0,0,.4,7.178c.027.231.168.4.333.4s.309-.166.336-.4a64.937,64.937,0,0,0,0-14.359c-.027-.231-.168-.4-.336-.4s-.306.166-.333.4a60.7,60.7,0,0,0-.4,7.182Zm79.605,24.726a43.782,43.782,0,0,0,.559,7.178.477.477,0,0,0,.94,0,46.638,46.638,0,0,0,0-14.36.477.477,0,0,0-.94,0,43.8,43.8,0,0,0-.559,7.182ZM310.506,354.9a65,65,0,0,0,.374,7.182c.027.231.158.4.319.4s.288-.166.316-.4a69.128,69.128,0,0,0,0-14.363c-.027-.231-.158-.4-.316-.4s-.292.166-.319.4a64.989,64.989,0,0,0-.374,7.181Zm176.7,0a65.029,65.029,0,0,1-.371,7.182c-.027.231-.161.4-.319.4s-.288-.166-.316-.4a69.128,69.128,0,0,1,0-14.363c.028-.231.158-.4.316-.4s.292.166.319.4a65.023,65.023,0,0,1,.371,7.181Z" transform="translate(-307.336 -282.212)" fill="#663d1f" fill-rule="evenodd" opacity="0.65"/>
      <path id="Path_11776" data-name="Path 11776" d="M309.849,378.1c0,26.856,40.281,48.625,89.975,48.625S489.8,404.954,489.8,378.1s-40.285-48.621-89.978-48.621-89.975,21.769-89.975,48.621Z" transform="translate(-309.051 -328.802)" fill="#ffee76" fill-rule="evenodd"/>
      <path id="Path_11777" data-name="Path 11777" d="M309.628,377.384c0,26.56,40.975,48.09,91.52,48.09s91.52-21.53,91.52-48.09-40.975-48.094-91.52-48.094-91.52,21.53-91.52,48.094Z" transform="translate(-309.628 -329.29)" fill-rule="evenodd" fill="url(#linear-gradient-6)"/>
      <path id="Path_11778" data-name="Path 11778" d="M312.147,371.41c-.588,23.708,35.846,43.945,81.38,45.205s82.922-16.938,83.507-40.645-35.846-43.945-81.38-45.205-82.922,16.941-83.507,40.645Z" transform="translate(-303.07 -325.598)" fill="#ffee76" fill-rule="evenodd"/>
      <path id="Path_11779" data-name="Path 11779" d="M312.31,373.88c0,23.885,36.638,43.249,81.836,43.249s81.836-19.364,81.836-43.249-36.638-43.248-81.836-43.248-81.836,19.36-81.836,43.248Z" transform="translate(-302.626 -325.787)" fill-rule="evenodd" fill="url(#linear-gradient-7)"/>
      <path id="Path_11780" data-name="Path 11780" d="M475.828,376.549c-2.608-22.642-38.183-40.577-81.682-40.577s-79.074,17.934-81.682,40.577a23.138,23.138,0,0,1-.154-2.668c0-23.884,36.638-43.248,81.836-43.248S475.982,350,475.982,373.88a23.124,23.124,0,0,1-.154,2.668Z" transform="translate(-302.626 -325.787)" fill-rule="evenodd" fill="url(#linear-gradient)"/>
      <path id="Path_11781" data-name="Path 11781" d="M312.461,373.321c0,23.614,36.2,42.757,80.861,42.757s80.861-19.144,80.861-42.757-36.2-42.761-80.861-42.761-80.861,19.144-80.861,42.761Z" transform="translate(-302.232 -325.974)" fill-rule="evenodd" fill="url(#linear-gradient-9)" style="mix-blend-mode: multiply;isolation: isolate"/>
    </g>
    <g id="Group_3344" data-name="Group 3344" transform="translate(321.955 322.342)">
      <path id="Path_11782" data-name="Path 11782" d="M313.042,356.634c0,26.462,40.975,47.913,91.52,47.913s91.52-21.451,91.52-47.913l0-20.935H313.042v20.935Z" transform="translate(-313.042 -287.472)" fill-rule="evenodd" fill="url(#linear-gradient)"/>
      <path id="Path_11783" data-name="Path 11783" d="M363.558,353.727c4.1.267,8.286.4,12.533.4a188.222,188.222,0,0,0,25.235-1.672v20.895c-8.041,1.087-11.634,1.668-25.235,1.668s-35.731-2.6-50.379-7.1V347.008a165.884,165.884,0,0,0,37.847,6.719Z" transform="translate(-283.578 -257.948)" fill-rule="evenodd" opacity="0.5" fill="url(#linear-gradient-5)" style="mix-blend-mode: screen;isolation: isolate"/>
      <path id="Path_11784" data-name="Path 11784" d="M357.805,370.566c18.656-8.694,30.391-21.057,30.618-34.792l0,20.664c0,13.847-11.781,26.318-30.622,35.067V370.566Z" transform="translate(-205.387 -287.276)" fill-rule="evenodd" opacity="0.5" fill="url(#linear-gradient-12)" style="mix-blend-mode: multiply;isolation: isolate"/>
      <path id="Path_11785" data-name="Path 11785" d="M332.778,364.765v20.96c-12.381-8.066-19.736-18.151-19.736-29.091V335.7c.058,10.929,7.405,21,19.736,29.066Z" transform="translate(-313.042 -287.472)" fill-rule="evenodd" opacity="0.5" fill="url(#linear-gradient-13)" style="mix-blend-mode: multiply;isolation: isolate"/>
      <path id="Path_11786" data-name="Path 11786" d="M356.546,351.835c4.1.267,8.286.4,12.533.4V373.13a180.237,180.237,0,0,1-40.681-4.5v-20.9a173.225,173.225,0,0,0,28.149,4.1Z" transform="translate(-276.323 -256.055)" fill-rule="evenodd" fill="url(#linear-gradient-5)" style="mix-blend-mode: screen;isolation: isolate"/>
      <path id="Path_11787" data-name="Path 11787" d="M415.379,381.992a45.523,45.523,0,0,1-.535,7.178.455.455,0,0,1-.9,0,48.414,48.414,0,0,1,0-14.36.455.455,0,0,1,.9,0,45.537,45.537,0,0,1,.535,7.182ZM427.4,380.71a47.922,47.922,0,0,1-.508,7.182.436.436,0,0,1-.868,0,51.02,51.02,0,0,1,0-14.363.436.436,0,0,1,.868,0,47.918,47.918,0,0,1,.508,7.181Zm11.909-2.2a49.9,49.9,0,0,1-.487,7.178.414.414,0,0,1-.827,0,53.136,53.136,0,0,1,0-14.36.414.414,0,0,1,.827,0,49.993,49.993,0,0,1,.487,7.182Zm11.7-3.21a52.27,52.27,0,0,1-.467,7.178.395.395,0,1,1-.789,0,55.873,55.873,0,0,1,0-14.359.395.395,0,1,1,.789,0,52.286,52.286,0,0,1,.467,7.181Zm11.349-4.369a54.8,54.8,0,0,1-.443,7.178.41.41,0,0,1-.374.4.415.415,0,0,1-.374-.4,58.432,58.432,0,0,1,0-14.359.415.415,0,0,1,.374-.4.41.41,0,0,1,.374.4,54.816,54.816,0,0,1,.443,7.182Zm10.786-5.741a58.288,58.288,0,0,1-.419,7.182.357.357,0,1,1-.71,0,61.763,61.763,0,0,1,0-14.36.358.358,0,1,1,.71,0,58.182,58.182,0,0,1,.419,7.178Zm9.757-7.5a61.432,61.432,0,0,1-.4,7.182c-.027.231-.168.394-.336.394s-.309-.162-.336-.394a65.529,65.529,0,0,1,0-14.363c.028-.231.168-.4.336-.4s.309.166.336.4a61.437,61.437,0,0,1,.4,7.182ZM389.16,381.992a45.561,45.561,0,0,0,.532,7.178.457.457,0,0,0,.906,0,48.722,48.722,0,0,0,0-14.36.457.457,0,0,0-.906,0,45.574,45.574,0,0,0-.532,7.182Zm-12.029-1.282a47.441,47.441,0,0,0,.511,7.182.434.434,0,0,0,.865,0,50.682,50.682,0,0,0,0-14.363.434.434,0,0,0-.865,0,47.437,47.437,0,0,0-.511,7.181Zm-11.909-2.2a49.4,49.4,0,0,0,.491,7.178.432.432,0,0,0,.412.4.438.438,0,0,0,.415-.4,53.139,53.139,0,0,0,0-14.36.441.441,0,0,0-.415-.4.435.435,0,0,0-.412.4,49.487,49.487,0,0,0-.491,7.182Zm-11.7-3.21a52.3,52.3,0,0,0,.463,7.178.428.428,0,0,0,.395.4.422.422,0,0,0,.395-.4,55.449,55.449,0,0,0,0-14.359.422.422,0,0,0-.395-.4.428.428,0,0,0-.395.4,52.311,52.311,0,0,0-.463,7.181Zm-11.353-4.369a54.8,54.8,0,0,0,.443,7.178.375.375,0,1,0,.748,0,58.44,58.44,0,0,0,0-14.359.375.375,0,1,0-.748,0,54.819,54.819,0,0,0-.443,7.182ZM331.388,365.2a58.305,58.305,0,0,0,.419,7.182.359.359,0,1,0,.714,0,61.763,61.763,0,0,0,0-14.36c-.031-.231-.178-.4-.357-.4s-.326.17-.357.4a58.2,58.2,0,0,0-.419,7.178Zm-9.753-7.5a61.464,61.464,0,0,0,.395,7.182c.027.231.168.394.336.394s.309-.162.336-.394a64.985,64.985,0,0,0,0-14.363c-.027-.231-.168-.4-.336-.4s-.309.166-.336.4a61.469,61.469,0,0,0-.395,7.182Zm79.605,24.726a43.775,43.775,0,0,0,.556,7.178.479.479,0,0,0,.944,0,46.633,46.633,0,0,0,0-14.36.479.479,0,0,0-.944,0,43.824,43.824,0,0,0-.556,7.182Zm-87.32-34.474a64.986,64.986,0,0,0,.374,7.182c.027.231.158.4.316.4s.292-.166.319-.4a69.088,69.088,0,0,0,0-14.36c-.027-.231-.158-.4-.319-.4s-.288.166-.316.4a64.916,64.916,0,0,0-.374,7.178Zm176.7,0a64.992,64.992,0,0,1-.374,7.182c-.024.231-.158.4-.316.4s-.292-.166-.316-.4a69.088,69.088,0,0,1,0-14.36c.024-.231.158-.4.316-.4s.292.166.316.4a64.923,64.923,0,0,1,.374,7.178Z" transform="translate(-310.75 -275.262)" fill="#663d1f" fill-rule="evenodd" opacity="0.65"/>
      <path id="Path_11788" data-name="Path 11788" d="M313.262,371.154c0,26.852,40.285,48.625,89.978,48.625s89.975-21.772,89.975-48.625-40.281-48.625-89.975-48.625-89.978,21.769-89.978,48.625Z" transform="translate(-312.468 -321.854)" fill="#ffee76" fill-rule="evenodd"/>
      <path id="Path_11789" data-name="Path 11789" d="M313.042,370.436c0,26.56,40.975,48.09,91.52,48.09s91.52-21.53,91.52-48.09-40.974-48.094-91.52-48.094-91.52,21.534-91.52,48.094Z" transform="translate(-313.042 -322.342)" fill-rule="evenodd" fill="url(#linear-gradient-6)"/>
      <path id="Path_11790" data-name="Path 11790" d="M315.56,364.464c-.588,23.7,35.849,43.942,81.38,45.2s82.922-16.937,83.51-40.645-35.846-43.945-81.38-45.2-82.922,16.938-83.51,40.645Z" transform="translate(-306.487 -318.648)" fill="#ffee76" fill-rule="evenodd"/>
      <path id="Path_11791" data-name="Path 11791" d="M315.724,366.932c0,23.885,36.638,43.248,81.836,43.248S479.4,390.817,479.4,366.932s-36.638-43.248-81.836-43.248-81.836,19.364-81.836,43.248Z" transform="translate(-306.04 -318.839)" fill-rule="evenodd" fill="url(#linear-gradient-7)"/>
      <path id="Path_11792" data-name="Path 11792" d="M479.242,369.6c-2.608-22.639-38.183-40.577-81.682-40.577s-79.074,17.938-81.686,40.577a23.893,23.893,0,0,1-.15-2.668c0-23.884,36.638-43.248,81.836-43.248S479.4,343.048,479.4,366.932a23.1,23.1,0,0,1-.154,2.668Z" transform="translate(-306.04 -318.839)" fill-rule="evenodd" fill="url(#linear-gradient)"/>
      <path id="Path_11793" data-name="Path 11793" d="M397.338,325.163c-41.8,0-76.276,16.613-81.136,38.042a24.544,24.544,0,0,0-.433,2.535,24,24,0,0,0,.778,3.874,28.939,28.939,0,0,0,4.731,9.3l.72-.108,101.365-15.6,51.828-7.98c-10.534-17.436-41.406-30.062-77.853-30.062Z" transform="translate(-305.925 -314.977)" fill-rule="evenodd" fill="url(#linear-gradient-5)" style="mix-blend-mode: screen;isolation: isolate"/>
      <path id="Path_11794" data-name="Path 11794" d="M321.679,368.157c.526-21.1,30.363-37.843,69.191-40.374,4.448-.394,9.015-.6,13.673-.6,41.21,0,75.347,15.923,81.348,36.706.213.578.409,1.159.577,1.744l8.833-1.35c-5.743-23.657-44.187-41.945-90.759-41.945-50.535,0-91.5,21.534-91.5,48.094v.134c.038,7.243,3.121,14.107,8.613,20.263l8.974-1.372a37.387,37.387,0,0,1-2.671-3.181,28.864,28.864,0,0,1-4.764-9.3,23.927,23.927,0,0,1-1.447-6.409,22.573,22.573,0,0,1-.069-2.412Z" transform="translate(-313.042 -322.342)" fill-rule="evenodd" fill="url(#linear-gradient-5)" style="mix-blend-mode: screen;isolation: isolate"/>
    </g>
  </g>
</svg>
