<svg xmlns="http://www.w3.org/2000/svg" xmlns:xlink="http://www.w3.org/1999/xlink" width="204.579" height="200.954" viewBox="0 0 204.579 200.954">
  <defs>
    <linearGradient id="linear-gradient" y1="0.5" x2="1" y2="0.5" gradientUnits="objectBoundingBox">
      <stop offset="0" stop-color="#b38746"/>
      <stop offset="0.389" stop-color="#d9973b"/>
      <stop offset="0.75" stop-color="#ad6c10"/>
      <stop offset="0.858" stop-color="#d3953d"/>
      <stop offset="1" stop-color="#b07f35"/>
    </linearGradient>
    <linearGradient id="linear-gradient-2" y1="0.5" x2="1" y2="0.5" gradientUnits="objectBoundingBox">
      <stop offset="0" stop-color="#ffee76"/>
      <stop offset="1" stop-color="#1d1d1b"/>
    </linearGradient>
    <linearGradient id="linear-gradient-3" y1="0.5" x2="1" y2="0.5" gradientUnits="objectBoundingBox">
      <stop offset="0" stop-color="#fff"/>
      <stop offset="1" stop-color="#663d1f"/>
    </linearGradient>
    <linearGradient id="linear-gradient-4" y1="0.5" x2="1" y2="0.5" gradientUnits="objectBoundingBox">
      <stop offset="0" stop-color="#663d1f"/>
      <stop offset="1" stop-color="#fff"/>
    </linearGradient>
    <linearGradient id="linear-gradient-5" x1="0" y1="0.5" x2="1" y2="0.5" xlink:href="#linear-gradient-2"/>
    <linearGradient id="linear-gradient-6" y1="0.5" x2="1" y2="0.5" gradientUnits="objectBoundingBox">
      <stop offset="0" stop-color="#ffe878"/>
      <stop offset="1" stop-color="#e6a729"/>
    </linearGradient>
    <linearGradient id="linear-gradient-7" y1="0.5" x2="1" y2="0.5" gradientUnits="objectBoundingBox">
      <stop offset="0" stop-color="#ffe878"/>
      <stop offset="1" stop-color="#ed9e1f"/>
    </linearGradient>
    <linearGradient id="linear-gradient-9" y1="0.5" x2="1" y2="0.5" gradientUnits="objectBoundingBox">
      <stop offset="0" stop-color="#e0c0a8"/>
      <stop offset="1" stop-color="#663d1f"/>
    </linearGradient>
    <linearGradient id="linear-gradient-16" y1="0.5" x2="1" y2="0.5" gradientUnits="objectBoundingBox">
      <stop offset="0" stop-color="#f0cc62"/>
      <stop offset="1" stop-color="#ed9e1f"/>
    </linearGradient>
    <linearGradient id="linear-gradient-18" y1="0.5" x2="1" y2="0.5" gradientUnits="objectBoundingBox">
      <stop offset="0" stop-color="#663d1f"/>
      <stop offset="1" stop-color="#e0c0a8"/>
    </linearGradient>
    <linearGradient id="linear-gradient-31" x1="0" y1="0.5" x2="1" y2="0.5" xlink:href="#linear-gradient-4"/>
  </defs>
  <g id="_04_coins" data-name="04_coins" transform="translate(-33.714 -303.496)">
    <g id="Group_3355" data-name="Group 3355" transform="translate(42.862 399.036)">
      <path id="Path_11881" data-name="Path 11881" d="M36.528,361.5c0,23.827,41.411,43.141,92.5,43.141s92.5-19.314,92.5-43.141l0-18.849H36.528V361.5Z" transform="translate(-36.528 -299.223)" fill-rule="evenodd" fill="url(#linear-gradient)"/>
      <path id="Path_11882" data-name="Path 11882" d="M83.275,360.006q5.54.361,11.281.364a168.891,168.891,0,0,0,22.721-1.508v18.817a129.022,129.022,0,0,1-22.721,1.5c-12.247,0-32.169-2.341-45.358-6.395v-18.83a149.508,149.508,0,0,0,34.077,6.05Z" transform="translate(-3.343 -273.767)" fill-rule="evenodd" opacity="0.5" fill="url(#linear-gradient-2)" style="mix-blend-mode: screen;isolation: isolate"/>
      <path id="Path_11883" data-name="Path 11883" d="M81.292,374.049c16.795-7.828,27.361-18.96,27.565-31.327l0,18.606c0,12.468-10.608,23.7-27.569,31.571V374.049Z" transform="translate(76.13 -299.054)" fill-rule="evenodd" opacity="0.5" fill="url(#linear-gradient-3)" style="mix-blend-mode: multiply;isolation: isolate"/>
      <path id="Path_11884" data-name="Path 11884" d="M54.3,368.818V387.69c-11.148-7.263-17.773-16.343-17.773-26.194l0-18.849c.052,9.841,6.668,18.908,17.77,26.171Z" transform="translate(-36.528 -299.223)" fill-rule="evenodd" opacity="0.5" fill="url(#linear-gradient-4)" style="mix-blend-mode: multiply;isolation: isolate"/>
      <path id="Path_11885" data-name="Path 11885" d="M77.231,358.374q5.54.361,11.281.364v18.81A162.325,162.325,0,0,1,51.883,373.5v-18.82a156.063,156.063,0,0,0,25.348,3.693Z" transform="translate(2.387 -272.134)" fill-rule="evenodd" fill="url(#linear-gradient-5)" style="mix-blend-mode: screen;isolation: isolate"/>
      <path id="Path_11886" data-name="Path 11886" d="M140.346,384.8a36.832,36.832,0,0,1-.54,6.463.474.474,0,0,1-.919,0,38.989,38.989,0,0,1,0-12.929.474.474,0,0,1,.919,0,36.843,36.843,0,0,1,.54,6.466Zm12.2-1.154a38.363,38.363,0,0,1-.519,6.466.448.448,0,0,1-.877,0,40.558,40.558,0,0,1,0-12.932.448.448,0,0,1,.877,0,38.36,38.36,0,0,1,.519,6.466Zm12.079-1.977a40.032,40.032,0,0,1-.494,6.463.425.425,0,0,1-.839,0,42.509,42.509,0,0,1,0-12.929.425.425,0,0,1,.839,0,40.042,40.042,0,0,1,.494,6.466Zm11.87-2.89a41.846,41.846,0,0,1-.474,6.463.4.4,0,0,1-.8,0,44.36,44.36,0,0,1,0-12.929.4.4,0,0,1,.8,0,41.859,41.859,0,0,1,.474,6.466Zm11.519-3.937a43.882,43.882,0,0,1-.449,6.466.382.382,0,0,1-.763,0,47.1,47.1,0,0,1,0-12.929.382.382,0,0,1,.763,0,43.834,43.834,0,0,1,.449,6.463Zm10.944-5.166a46.086,46.086,0,0,1-.428,6.466.382.382,0,0,1-.359.358.388.388,0,0,1-.362-.358,49.43,49.43,0,0,1,0-12.933.388.388,0,0,1,.362-.358.382.382,0,0,1,.359.358,46.084,46.084,0,0,1,.428,6.466Zm9.9-6.749a48.512,48.512,0,0,1-.4,6.463.34.34,0,1,1-.679,0,51.934,51.934,0,0,1,0-12.929.34.34,0,1,1,.679,0,48.567,48.567,0,0,1,.4,6.466ZM113.743,384.8a36.832,36.832,0,0,0,.54,6.463.474.474,0,0,0,.919,0,38.987,38.987,0,0,0,0-12.929.474.474,0,0,0-.919,0,36.843,36.843,0,0,0-.54,6.466Zm-12.2-1.154a38.365,38.365,0,0,0,.519,6.466.448.448,0,0,0,.877,0,40.555,40.555,0,0,0,0-12.932.448.448,0,0,0-.877,0,38.363,38.363,0,0,0-.519,6.466ZM89.46,381.667a40.035,40.035,0,0,0,.494,6.463.425.425,0,0,0,.839,0,42.507,42.507,0,0,0,0-12.929.425.425,0,0,0-.839,0,40.044,40.044,0,0,0-.494,6.466Zm-11.87-2.89a41.848,41.848,0,0,0,.474,6.463.408.408,0,0,0,.4.358.413.413,0,0,0,.4-.358,44.687,44.687,0,0,0,0-12.929.413.413,0,0,0-.4-.358.408.408,0,0,0-.4.358,41.862,41.862,0,0,0-.474,6.466ZM66.071,374.84a43.887,43.887,0,0,0,.449,6.466.382.382,0,0,0,.763,0,46.744,46.744,0,0,0,0-12.929.382.382,0,0,0-.763,0,43.839,43.839,0,0,0-.449,6.463Zm-10.941-5.166a46.123,46.123,0,0,0,.425,6.466.36.36,0,0,0,.721,0,49.426,49.426,0,0,0,0-12.933.36.36,0,0,0-.721,0,46.122,46.122,0,0,0-.425,6.466Zm-9.9-6.749a48.512,48.512,0,0,0,.4,6.463.342.342,0,1,0,.682,0,49.142,49.142,0,0,0,.4-6.463,49.2,49.2,0,0,0-.4-6.466.342.342,0,1,0-.682,0,48.567,48.567,0,0,0-.4,6.466ZM126,385.188a35.1,35.1,0,0,0,.564,6.463.5.5,0,0,0,.958,0,37.327,37.327,0,0,0,0-12.929.5.5,0,0,0-.958,0,35.116,35.116,0,0,0-.564,6.466Zm-88.6-31.041a52.044,52.044,0,0,0,.376,6.466.368.368,0,0,0,.324.358.363.363,0,0,0,.32-.358,52,52,0,0,0,.38-6.466,52,52,0,0,0-.38-6.466.363.363,0,0,0-.32-.358.368.368,0,0,0-.324.358,52.041,52.041,0,0,0-.376,6.466Zm179.279,0a52.007,52.007,0,0,1-.38,6.466c-.028.208-.16.358-.32.358a.366.366,0,0,1-.324-.358,55.274,55.274,0,0,1,0-12.933.366.366,0,0,1,.324-.358c.16,0,.292.149.32.358a52,52,0,0,1,.38,6.466Z" transform="translate(-34.549 -288.697)" fill="#663d1f" fill-rule="evenodd" opacity="0.65"/>
      <path id="Path_11887" data-name="Path 11887" d="M36.749,373.257c0,24.181,40.787,43.781,91.1,43.781s91.107-19.6,91.107-43.781-40.791-43.781-91.107-43.781-91.1,19.6-91.1,43.781Z" transform="translate(-36.031 -328.871)" fill="#ffee76" fill-rule="evenodd"/>
      <path id="Path_11888" data-name="Path 11888" d="M36.528,372.594c0,23.915,41.411,43.3,92.5,43.3s92.5-19.386,92.5-43.3-41.411-43.3-92.5-43.3-92.5,19.386-92.5,43.3Z" transform="translate(-36.528 -329.29)" fill-rule="evenodd" fill="url(#linear-gradient-6)"/>
      <path id="Path_11889" data-name="Path 11889" d="M39.047,367.356c-.6,21.346,36.663,39.568,83.234,40.7s84.812-15.25,85.413-36.6-36.666-39.568-83.234-40.7-84.812,15.254-85.413,36.6Z" transform="translate(-30.874 -326.107)" fill="#ffee76" fill-rule="evenodd"/>
      <path id="Path_11890" data-name="Path 11890" d="M39.21,369.573c0,21.506,37.507,38.941,83.776,38.941s83.776-17.435,83.776-38.941-37.507-38.941-83.776-38.941S39.21,348.067,39.21,369.573Z" transform="translate(-30.491 -326.269)" fill-rule="evenodd" fill="url(#linear-gradient-7)"/>
      <path id="Path_11891" data-name="Path 11891" d="M206.609,371.975c-2.674-20.387-39.089-36.535-83.622-36.535s-80.949,16.148-83.619,36.535a18.316,18.316,0,0,1-.157-2.4c0-21.505,37.507-38.941,83.776-38.941s83.776,17.435,83.776,38.941a18.938,18.938,0,0,1-.154,2.4Z" transform="translate(-30.491 -326.269)" fill-rule="evenodd" fill="url(#linear-gradient)"/>
      <path id="Path_11892" data-name="Path 11892" d="M39.47,369.963c0,21.262,37.114,38.5,82.9,38.5s82.9-17.24,82.9-38.5-37.114-38.5-82.9-38.5-82.9,17.237-82.9,38.5Z" transform="translate(-29.906 -324.403)" fill-rule="evenodd" fill="url(#linear-gradient-9)" style="mix-blend-mode: multiply;isolation: isolate"/>
    </g>
    <path id="Path_11893" data-name="Path 11893" d="M39.739,355.217c0,23.824,41.411,43.138,92.5,43.138s92.5-19.314,92.5-43.138l0-18.853H39.739v18.853Z" transform="translate(13.562 85.67)" fill-rule="evenodd" fill="url(#linear-gradient)"/>
    <path id="Path_11894" data-name="Path 11894" d="M86.486,353.727q5.54.361,11.281.364a168.911,168.911,0,0,0,22.721-1.508V371.4a128.726,128.726,0,0,1-22.721,1.5c-12.247,0-32.169-2.337-45.358-6.392V347.673a149.341,149.341,0,0,0,34.077,6.053Z" transform="translate(47.884 111.126)" fill-rule="evenodd" opacity="0.5" fill="url(#linear-gradient-5)" style="mix-blend-mode: screen;isolation: isolate"/>
    <path id="Path_11895" data-name="Path 11895" d="M84.5,367.767c16.795-7.828,27.361-18.96,27.565-31.327l0,18.606c0,12.464-10.608,23.7-27.569,31.571V367.767Z" transform="translate(126.221 83.153)" fill-rule="evenodd" opacity="0.5" fill="url(#linear-gradient-3)" style="mix-blend-mode: multiply;isolation: isolate"/>
    <path id="Path_11896" data-name="Path 11896" d="M57.512,362.535v18.872c-11.148-7.26-17.773-16.34-17.773-26.19V336.364c.055,9.841,6.671,18.911,17.773,26.171Z" transform="translate(13.562 82.642)" fill-rule="evenodd" opacity="0.5" fill="url(#linear-gradient-4)" style="mix-blend-mode: multiply;isolation: isolate"/>
    <path id="Path_11897" data-name="Path 11897" d="M80.442,352.092q5.54.361,11.281.364v18.807a162.33,162.33,0,0,1-36.629-4.044V348.4a156.02,156.02,0,0,0,25.348,3.693Z" transform="translate(53.424 112.761)" fill-rule="evenodd" fill="url(#linear-gradient-5)" style="mix-blend-mode: screen;isolation: isolate"/>
    <path id="Path_11898" data-name="Path 11898" d="M143.56,378.512a36.846,36.846,0,0,1-.54,6.466.474.474,0,0,1-.919,0,38.986,38.986,0,0,1,0-12.929.474.474,0,0,1,.919,0,36.831,36.831,0,0,1,.54,6.463Zm12.2-1.151a38.354,38.354,0,0,1-.519,6.463.448.448,0,0,1-.877,0,40.535,40.535,0,0,1,0-12.929.448.448,0,0,1,.877,0,38.368,38.368,0,0,1,.519,6.466Zm12.079-1.98a39.656,39.656,0,0,1-.494,6.466.425.425,0,0,1-.839,0,42.507,42.507,0,0,1,0-12.929.425.425,0,0,1,.839,0,39.646,39.646,0,0,1,.494,6.463Zm11.87-2.89a41.861,41.861,0,0,1-.474,6.466.4.4,0,0,1-.8,0,44.364,44.364,0,0,1,0-12.929.4.4,0,0,1,.8,0,41.846,41.846,0,0,1,.474,6.463Zm11.519-3.934a43.882,43.882,0,0,1-.449,6.466.4.4,0,0,1-.38.358.393.393,0,0,1-.38-.358,46.747,46.747,0,0,1,0-12.929.393.393,0,0,1,.38-.361.4.4,0,0,1,.38.361,43.806,43.806,0,0,1,.449,6.463Zm10.944-5.166a46,46,0,0,1-.428,6.463.382.382,0,0,1-.359.358.388.388,0,0,1-.362-.358,49.407,49.407,0,0,1,0-12.929.388.388,0,0,1,.362-.358.382.382,0,0,1,.359.358,46.083,46.083,0,0,1,.428,6.466Zm9.9-6.749a48.547,48.547,0,0,1-.4,6.463.34.34,0,1,1-.679,0,51.935,51.935,0,0,1,0-12.929.34.34,0,1,1,.679,0,48.562,48.562,0,0,1,.4,6.466Zm-95.115,21.87a36.493,36.493,0,0,0,.543,6.466.447.447,0,0,0,.456.358.454.454,0,0,0,.46-.358,38.987,38.987,0,0,0,0-12.929.454.454,0,0,0-.46-.358.447.447,0,0,0-.456.358,36.478,36.478,0,0,0-.543,6.463Zm-12.2-1.151a38.351,38.351,0,0,0,.519,6.463.45.45,0,0,0,.881,0,40.806,40.806,0,0,0,0-12.929.45.45,0,0,0-.881,0,38.364,38.364,0,0,0-.519,6.466Zm-12.079-1.98a40.044,40.044,0,0,0,.494,6.466.425.425,0,0,0,.839,0,42.508,42.508,0,0,0,0-12.929.425.425,0,0,0-.839,0,40.034,40.034,0,0,0-.494,6.463Zm-11.87-2.89a41.864,41.864,0,0,0,.474,6.466.408.408,0,0,0,.4.358.413.413,0,0,0,.4-.358,44.687,44.687,0,0,0,0-12.929.413.413,0,0,0-.4-.358.408.408,0,0,0-.4.358,41.849,41.849,0,0,0-.474,6.463Zm-11.519-3.934a44.365,44.365,0,0,0,.449,6.466.382.382,0,0,0,.763,0,46.746,46.746,0,0,0,0-12.929.382.382,0,0,0-.763,0,44.288,44.288,0,0,0-.449,6.463Zm-10.941-5.166a46.035,46.035,0,0,0,.425,6.463.36.36,0,0,0,.721,0,49.4,49.4,0,0,0,0-12.929.36.36,0,0,0-.721,0,46.118,46.118,0,0,0-.425,6.466Zm-9.9-6.749a48.553,48.553,0,0,0,.4,6.463.342.342,0,1,0,.682,0,49.182,49.182,0,0,0,.4-6.463,49.2,49.2,0,0,0-.4-6.466.342.342,0,1,0-.682,0,48.568,48.568,0,0,0-.4,6.466Zm80.772,22.263a35.109,35.109,0,0,0,.564,6.463.5.5,0,0,0,.954,0,37.1,37.1,0,0,0,0-12.929.5.5,0,0,0-.954,0,35.119,35.119,0,0,0-.564,6.466Zm-88.6-31.041a51.94,51.94,0,0,0,.38,6.463.368.368,0,0,0,.324.358.363.363,0,0,0,.32-.358,51.943,51.943,0,0,0,.38-6.463,52,52,0,0,0-.38-6.466.363.363,0,0,0-.32-.358A.368.368,0,0,0,41,341.4a52,52,0,0,0-.38,6.466Zm179.282,0a51.943,51.943,0,0,1-.38,6.463.368.368,0,0,1-.324.358c-.16,0-.292-.15-.32-.358a55.246,55.246,0,0,1,0-12.929c.028-.208.16-.358.32-.358a.368.368,0,0,1,.324.358,52,52,0,0,1,.38,6.466Z" transform="translate(15.539 96.198)" fill="#663d1f" fill-rule="evenodd" opacity="0.65"/>
    <path id="Path_11899" data-name="Path 11899" d="M39.96,366.976c0,24.181,40.791,43.781,91.1,43.781s91.107-19.6,91.107-43.781-40.791-43.782-91.107-43.782-91.1,19.6-91.1,43.782Z" transform="translate(14.06 51.697)" fill="#ffee76" fill-rule="evenodd"/>
    <path id="Path_11900" data-name="Path 11900" d="M39.739,366.308c0,23.918,41.411,43.3,92.5,43.3s92.5-19.386,92.5-43.3-41.411-43.3-92.5-43.3-92.5,19.386-92.5,43.3Z" transform="translate(13.562 51.14)" fill-rule="evenodd" fill="url(#linear-gradient-6)"/>
    <path id="Path_11901" data-name="Path 11901" d="M42.258,361.074c-.6,21.346,36.663,39.568,83.234,40.7s84.812-15.251,85.413-36.6-36.666-39.568-83.238-40.7-84.808,15.251-85.41,36.6Z" transform="translate(19.217 54.21)" fill="#ffee76" fill-rule="evenodd"/>
    <path id="Path_11902" data-name="Path 11902" d="M42.421,363.287c0,21.509,37.507,38.941,83.776,38.941s83.776-17.432,83.776-38.941S172.467,324.35,126.2,324.35s-83.776,17.432-83.776,38.937Z" transform="translate(19.6 54.054)" fill-rule="evenodd" fill="url(#linear-gradient-16)"/>
    <path id="Path_11903" data-name="Path 11903" d="M209.816,365.693c-2.67-20.387-39.085-36.535-83.619-36.535s-80.949,16.148-83.619,36.535a18.366,18.366,0,0,1-.157-2.406c0-21.505,37.507-38.937,83.776-38.937s83.776,17.432,83.776,38.937a18.361,18.361,0,0,1-.157,2.406Z" transform="translate(19.6 52.297)" fill-rule="evenodd" fill="url(#linear-gradient)"/>
    <path id="Path_11904" data-name="Path 11904" d="M42.648,363.463c0,21.262,34.454,38.5,76.952,38.5s76.952-17.237,76.952-38.5-34.451-38.5-76.952-38.5-76.952,17.237-76.952,38.5Z" transform="translate(32.005 55.58)" fill-rule="evenodd" fill="url(#linear-gradient-18)" style="mix-blend-mode: multiply;isolation: isolate"/>
    <g id="Group_3356" data-name="Group 3356" transform="translate(33.714 352.499)">
      <path id="Path_11905" data-name="Path 11905" d="M33.714,348.935c0,23.823,41.411,43.138,92.5,43.138s92.5-19.314,92.5-43.138l0-18.853H33.714v18.853Z" transform="translate(-33.714 -286.661)" fill-rule="evenodd" fill="url(#linear-gradient)"/>
      <path id="Path_11906" data-name="Path 11906" d="M80.461,347.444q5.54.361,11.281.364a169.424,169.424,0,0,0,22.721-1.508v18.814a129.013,129.013,0,0,1-22.721,1.5c-12.247,0-32.169-2.337-45.358-6.392V341.391a149.323,149.323,0,0,0,34.077,6.053Z" transform="translate(-0.529 -261.205)" fill-rule="evenodd" opacity="0.5" fill="url(#linear-gradient-5)" style="mix-blend-mode: screen;isolation: isolate"/>
      <path id="Path_11907" data-name="Path 11907" d="M78.478,361.482c16.795-7.825,27.361-18.957,27.565-31.324l0,18.606c0,12.464-10.608,23.7-27.569,31.571V361.482Z" transform="translate(78.944 -286.49)" fill-rule="evenodd" opacity="0.5" fill="url(#linear-gradient-3)" style="mix-blend-mode: multiply;isolation: isolate"/>
      <path id="Path_11908" data-name="Path 11908" d="M51.487,356.253v18.872c-11.148-7.263-17.773-16.34-17.773-26.19l0-18.853c.052,9.841,6.668,18.911,17.77,26.171Z" transform="translate(-33.714 -286.661)" fill-rule="evenodd" opacity="0.5" fill="url(#linear-gradient-4)" style="mix-blend-mode: multiply;isolation: isolate"/>
      <path id="Path_11909" data-name="Path 11909" d="M74.417,345.81q5.54.361,11.281.364v18.807a162.331,162.331,0,0,1-36.629-4.044v-18.82a156.426,156.426,0,0,0,25.348,3.693Z" transform="translate(5.201 -259.57)" fill-rule="evenodd" fill="url(#linear-gradient-5)" style="mix-blend-mode: screen;isolation: isolate"/>
      <path id="Path_11910" data-name="Path 11910" d="M137.535,372.23a36.842,36.842,0,0,1-.54,6.466.474.474,0,0,1-.919,0,38.986,38.986,0,0,1,0-12.929.474.474,0,0,1,.919,0,36.833,36.833,0,0,1,.54,6.463Zm12.2-1.151a38.353,38.353,0,0,1-.519,6.463.448.448,0,0,1-.877,0,40.535,40.535,0,0,1,0-12.929.448.448,0,0,1,.877,0,38.364,38.364,0,0,1,.519,6.466Zm12.083-1.98a40.02,40.02,0,0,1-.5,6.466.425.425,0,0,1-.839,0,42.508,42.508,0,0,1,0-12.929.425.425,0,0,1,.839,0,40.006,40.006,0,0,1,.5,6.463Zm11.867-2.89a41.86,41.86,0,0,1-.474,6.466.4.4,0,0,1-.8,0,44.363,44.363,0,0,1,0-12.929.4.4,0,0,1,.8,0,41.786,41.786,0,0,1,.474,6.463Zm11.519-3.934a43.883,43.883,0,0,1-.449,6.466.382.382,0,0,1-.763,0,47.13,47.13,0,0,1,0-12.932.382.382,0,0,1,.763,0,43.88,43.88,0,0,1,.449,6.466Zm10.944-5.166a46.072,46.072,0,0,1-.428,6.463.36.36,0,0,1-.721,0,49.4,49.4,0,0,1,0-12.929.36.36,0,0,1,.721,0,46.086,46.086,0,0,1,.428,6.466Zm9.9-6.752a48.562,48.562,0,0,1-.4,6.466.34.34,0,1,1-.679,0,51.931,51.931,0,0,1,0-12.929.34.34,0,1,1,.679,0,48.55,48.55,0,0,1,.4,6.463ZM110.932,372.23a36.84,36.84,0,0,0,.54,6.466.474.474,0,0,0,.919,0,38.986,38.986,0,0,0,0-12.929.474.474,0,0,0-.919,0,36.831,36.831,0,0,0-.54,6.463Zm-12.2-1.151a38.354,38.354,0,0,0,.519,6.463.448.448,0,0,0,.877,0,40.535,40.535,0,0,0,0-12.929.448.448,0,0,0-.877,0,38.365,38.365,0,0,0-.519,6.466ZM86.648,369.1a40.048,40.048,0,0,0,.494,6.466.425.425,0,0,0,.839,0,42.508,42.508,0,0,0,0-12.929.425.425,0,0,0-.839,0,40.034,40.034,0,0,0-.494,6.463Zm-11.87-2.89a41.859,41.859,0,0,0,.474,6.466.4.4,0,0,0,.8,0,44.363,44.363,0,0,0,0-12.929.4.4,0,0,0-.8,0,41.785,41.785,0,0,0-.474,6.463ZM63.26,362.276a44.368,44.368,0,0,0,.449,6.466.382.382,0,0,0,.763,0,46.768,46.768,0,0,0,0-12.932.382.382,0,0,0-.763,0,44.365,44.365,0,0,0-.449,6.466ZM52.319,357.11a46.107,46.107,0,0,0,.425,6.463.36.36,0,0,0,.721,0,49.4,49.4,0,0,0,0-12.929.36.36,0,0,0-.721,0,46.122,46.122,0,0,0-.425,6.466Zm-9.9-6.752a48.561,48.561,0,0,0,.4,6.466.342.342,0,1,0,.682,0,49.2,49.2,0,0,0,.4-6.466,49.187,49.187,0,0,0-.4-6.463.342.342,0,1,0-.682,0,48.55,48.55,0,0,0-.4,6.463Zm80.772,22.263a35.116,35.116,0,0,0,.564,6.466.465.465,0,0,0,.477.358.472.472,0,0,0,.481-.358,37.326,37.326,0,0,0,0-12.929.472.472,0,0,0-.481-.358.465.465,0,0,0-.477.358,35.107,35.107,0,0,0-.564,6.463Zm-88.6-31.037a51.981,51.981,0,0,0,.38,6.463.368.368,0,0,0,.324.358c.16,0,.292-.149.32-.358a51.981,51.981,0,0,0,.38-6.463,52,52,0,0,0-.38-6.466c-.028-.208-.16-.358-.32-.358a.368.368,0,0,0-.324.358,52,52,0,0,0-.38,6.466Zm179.282,0a51.985,51.985,0,0,1-.38,6.463.366.366,0,0,1-.324.358c-.16,0-.292-.149-.32-.358a55.25,55.25,0,0,1,0-12.929c.028-.208.16-.358.32-.358a.366.366,0,0,1,.324.358,52,52,0,0,1,.38,6.466Z" transform="translate(-31.738 -276.133)" fill="#663d1f" fill-rule="evenodd" opacity="0.65"/>
      <path id="Path_11911" data-name="Path 11911" d="M33.935,360.694c0,24.181,40.791,43.781,91.1,43.781s91.107-19.6,91.107-43.781-40.791-43.781-91.107-43.781-91.1,19.6-91.1,43.781Z" transform="translate(-33.217 -316.307)" fill="#ffee76" fill-rule="evenodd"/>
      <path id="Path_11912" data-name="Path 11912" d="M33.714,360.026c0,23.914,41.411,43.3,92.5,43.3s92.5-19.389,92.5-43.3-41.411-43.3-92.5-43.3-92.5,19.386-92.5,43.3Z" transform="translate(-33.714 -316.726)" fill-rule="evenodd" fill="url(#linear-gradient-6)"/>
      <path id="Path_11913" data-name="Path 11913" d="M36.233,354.792c-.6,21.346,36.663,39.568,83.234,40.7s84.812-15.254,85.413-36.6-36.666-39.568-83.234-40.7-84.812,15.25-85.413,36.6Z" transform="translate(-28.06 -313.543)" fill="#ffee76" fill-rule="evenodd"/>
      <path id="Path_11914" data-name="Path 11914" d="M36.4,357.008c0,21.505,37.507,38.941,83.776,38.941s83.776-17.435,83.776-38.941-37.507-38.941-83.776-38.941S36.4,335.5,36.4,357.008Z" transform="translate(-27.677 -313.707)" fill-rule="evenodd" fill="url(#linear-gradient-16)"/>
      <path id="Path_11915" data-name="Path 11915" d="M37.5,357.127c0,21.262,37.113,38.5,82.9,38.5s82.9-17.24,82.9-38.5-37.117-38.5-82.9-38.5-82.9,17.237-82.9,38.5Z" transform="translate(-25.203 -312.451)" fill-rule="evenodd" fill="url(#linear-gradient-9)" style="mix-blend-mode: multiply;isolation: isolate"/>
      <path id="Path_11916" data-name="Path 11916" d="M203.791,359.414c-2.67-20.387-39.089-36.535-83.619-36.535s-80.949,16.148-83.619,36.535a18.362,18.362,0,0,1-.157-2.406c0-21.506,37.507-38.941,83.776-38.941s83.776,17.435,83.776,38.941a18.365,18.365,0,0,1-.157,2.406Z" transform="translate(-27.677 -313.707)" fill-rule="evenodd" fill="url(#linear-gradient)"/>
    </g>
    <path id="Path_11917" data-name="Path 11917" d="M38.746,342.653c0,23.823,41.411,43.138,92.492,43.138s92.5-19.314,92.5-43.138l0-18.853H38.746v18.853Z" transform="translate(11.327 51.764)" fill-rule="evenodd" fill="url(#linear-gradient)"/>
    <path id="Path_11918" data-name="Path 11918" d="M85.492,341.162q5.54.361,11.281.364a169.5,169.5,0,0,0,22.725-1.509v18.814a129.091,129.091,0,0,1-22.725,1.5c-12.247,0-32.169-2.338-45.358-6.392V335.109a149.333,149.333,0,0,0,34.077,6.053Z" transform="translate(45.338 78.481)" fill-rule="evenodd" opacity="0.5" fill="url(#linear-gradient-5)" style="mix-blend-mode: screen;isolation: isolate"/>
    <path id="Path_11919" data-name="Path 11919" d="M83.509,355.2c16.795-7.828,27.361-18.957,27.565-31.324l0,18.606c0,12.465-10.608,23.7-27.569,31.571V355.2Z" transform="translate(123.983 51.441)" fill-rule="evenodd" opacity="0.5" fill="url(#linear-gradient-3)" style="mix-blend-mode: multiply;isolation: isolate"/>
    <path id="Path_11920" data-name="Path 11920" d="M56.516,349.971v18.872c-11.148-7.263-17.77-16.34-17.77-26.19V323.8c.052,9.841,6.668,18.911,17.77,26.171Z" transform="translate(11.327 51.052)" fill-rule="evenodd" opacity="0.5" fill="url(#linear-gradient-31)" style="mix-blend-mode: multiply;isolation: isolate"/>
    <path id="Path_11921" data-name="Path 11921" d="M79.448,339.528q5.54.361,11.281.364V358.7A162.331,162.331,0,0,1,54.1,354.655v-18.82a156.78,156.78,0,0,0,25.348,3.693Z" transform="translate(50.94 80.177)" fill-rule="evenodd" fill="url(#linear-gradient-5)" style="mix-blend-mode: screen;isolation: isolate"/>
    <path id="Path_11922" data-name="Path 11922" d="M142.563,365.948a36.513,36.513,0,0,1-.54,6.466.474.474,0,0,1-.919,0,39.008,39.008,0,0,1,0-12.933.475.475,0,0,1,.919,0,36.51,36.51,0,0,1,.54,6.466Zm12.2-1.154a38,38,0,0,1-.519,6.466.448.448,0,0,1-.877,0,40.533,40.533,0,0,1,0-12.929.448.448,0,0,1,.877,0,37.993,37.993,0,0,1,.519,6.463Zm12.083-1.977a40.044,40.044,0,0,1-.494,6.466.426.426,0,0,1-.421.358.42.42,0,0,1-.418-.358,42.215,42.215,0,0,1,0-12.929.42.42,0,0,1,.418-.358.426.426,0,0,1,.421.358,39.973,39.973,0,0,1,.494,6.463Zm11.867-2.89a41.885,41.885,0,0,1-.47,6.466.413.413,0,0,1-.4.358.408.408,0,0,1-.4-.358,44.361,44.361,0,0,1,0-12.929.408.408,0,0,1,.4-.361.413.413,0,0,1,.4.361,41.809,41.809,0,0,1,.47,6.463Zm11.519-3.934a43.838,43.838,0,0,1-.449,6.463.38.38,0,0,1-.759,0,46.744,46.744,0,0,1,0-12.929.38.38,0,0,1,.759,0,43.887,43.887,0,0,1,.449,6.466Zm10.944-5.166a46.644,46.644,0,0,1-.425,6.463.362.362,0,0,1-.724,0,49.4,49.4,0,0,1,0-12.929.362.362,0,0,1,.724,0,46.655,46.655,0,0,1,.425,6.466Zm9.9-6.752a49.2,49.2,0,0,1-.4,6.466.342.342,0,1,1-.682,0,51.934,51.934,0,0,1,0-12.929.342.342,0,1,1,.682,0,49.115,49.115,0,0,1,.4,6.463ZM115.96,365.948a36.493,36.493,0,0,0,.543,6.466.472.472,0,0,0,.916,0,38.759,38.759,0,0,0,0-12.933.473.473,0,0,0-.916,0,36.49,36.49,0,0,0-.543,6.466Zm-12.2-1.154a38.382,38.382,0,0,0,.515,6.466.45.45,0,0,0,.881,0,40.806,40.806,0,0,0,0-12.929.45.45,0,0,0-.881,0,38.374,38.374,0,0,0-.515,6.463Zm-12.083-1.977a40.044,40.044,0,0,0,.494,6.466.425.425,0,0,0,.839,0,42.508,42.508,0,0,0,0-12.929.425.425,0,0,0-.839,0,39.973,39.973,0,0,0-.494,6.463Zm-11.87-2.89a41.864,41.864,0,0,0,.474,6.466.4.4,0,0,0,.8,0,44.687,44.687,0,0,0,0-12.929.4.4,0,0,0-.8,0,41.787,41.787,0,0,0-.474,6.463Zm-11.519-3.934a44.318,44.318,0,0,0,.449,6.463.382.382,0,0,0,.763,0,46.744,46.744,0,0,0,0-12.929.382.382,0,0,0-.763,0,44.368,44.368,0,0,0-.449,6.466Zm-10.941-5.166a46.108,46.108,0,0,0,.425,6.463.36.36,0,0,0,.721,0,49.4,49.4,0,0,0,0-12.929.36.36,0,0,0-.721,0,46.119,46.119,0,0,0-.425,6.466Zm-9.9-6.752a49.16,49.16,0,0,0,.4,6.466.342.342,0,1,0,.682,0,49.2,49.2,0,0,0,.4-6.466,49.11,49.11,0,0,0-.4-6.463.342.342,0,1,0-.682,0,49.071,49.071,0,0,0-.4,6.463Zm80.773,22.263a35.116,35.116,0,0,0,.564,6.466.5.5,0,0,0,.958,0,37.325,37.325,0,0,0,0-12.929.5.5,0,0,0-.958,0,35.053,35.053,0,0,0-.564,6.463ZM39.624,335.3a51.332,51.332,0,0,0,.38,6.466.322.322,0,1,0,.641,0,52,52,0,0,0,.38-6.466,51.98,51.98,0,0,0-.38-6.463.322.322,0,1,0-.641,0,51.315,51.315,0,0,0-.38,6.463Zm179.279,0a52,52,0,0,1-.38,6.466c-.028.208-.16.358-.32.358a.368.368,0,0,1-.324-.358,55.248,55.248,0,0,1,0-12.929.368.368,0,0,1,.324-.358c.16,0,.292.15.32.358a51.982,51.982,0,0,1,.38,6.463Z" transform="translate(13.304 62.795)" fill="#663d1f" fill-rule="evenodd" opacity="0.65"/>
    <path id="Path_11923" data-name="Path 11923" d="M38.966,354.411c0,24.181,40.791,43.781,91.107,43.781s91.1-19.6,91.1-43.781-40.791-43.781-91.1-43.781-91.107,19.6-91.107,43.781Z" transform="translate(11.822 16.059)" fill="#ffee76" fill-rule="evenodd"/>
    <path id="Path_11924" data-name="Path 11924" d="M38.746,353.744c0,23.914,41.408,43.3,92.492,43.3s92.5-19.389,92.5-43.3-41.411-43.3-92.5-43.3-92.492,19.386-92.492,43.3Z" transform="translate(11.327 15.64)" fill-rule="evenodd" fill="url(#linear-gradient-6)"/>
    <path id="Path_11925" data-name="Path 11925" d="M41.264,348.51c-.6,21.346,36.663,39.568,83.234,40.7s84.812-15.251,85.413-36.593-36.666-39.568-83.234-40.7-84.812,15.251-85.413,36.6Z" transform="translate(16.979 18.823)" fill="#ffee76" fill-rule="evenodd"/>
    <path id="Path_11926" data-name="Path 11926" d="M41.427,350.726c0,21.505,37.51,38.941,83.776,38.941s83.78-17.435,83.78-38.941-37.51-38.941-83.78-38.941S41.427,329.22,41.427,350.726Z" transform="translate(17.362 18.659)" fill-rule="evenodd" fill="url(#linear-gradient-16)"/>
    <path id="Path_11927" data-name="Path 11927" d="M208.825,353.132c-2.674-20.387-39.089-36.538-83.622-36.538s-80.949,16.151-83.619,36.538a18.365,18.365,0,0,1-.157-2.406c0-21.505,37.51-38.941,83.776-38.941s83.78,17.435,83.78,38.941a18.988,18.988,0,0,1-.157,2.406Z" transform="translate(17.362 18.659)" fill-rule="evenodd" fill="url(#linear-gradient)"/>
    <path id="Path_11928" data-name="Path 11928" d="M41.579,350.213c0,21.265,37.114,38.5,82.9,38.5s82.9-17.237,82.9-38.5-37.114-38.5-82.9-38.5-82.9,17.237-82.9,38.5Z" transform="translate(17.704 18.499)" fill-rule="evenodd" fill="url(#linear-gradient-18)" style="mix-blend-mode: multiply;isolation: isolate"/>
    <g id="Group_3357" data-name="Group 3357" transform="translate(36.988 303.496)">
      <path id="Path_11929" data-name="Path 11929" d="M34.721,335.7c0,23.823,41.411,43.138,92.492,43.138s92.5-19.314,92.5-43.138l0-18.853H34.721V335.7Z" transform="translate(-34.721 -273.432)" fill-rule="evenodd" fill="url(#linear-gradient)"/>
      <path id="Path_11930" data-name="Path 11930" d="M81.467,334.214q5.54.361,11.281.364a168.961,168.961,0,0,0,22.725-1.509v18.814a129.088,129.088,0,0,1-22.725,1.5c-12.247,0-32.169-2.338-45.358-6.392V328.161a149.329,149.329,0,0,0,34.077,6.053Z" transform="translate(-1.538 -247.975)" fill-rule="evenodd" opacity="0.5" fill="url(#linear-gradient-5)" style="mix-blend-mode: screen;isolation: isolate"/>
      <path id="Path_11931" data-name="Path 11931" d="M79.484,348.252c16.795-7.825,27.361-18.957,27.565-31.323l0,18.606c0,12.464-10.608,23.7-27.569,31.571V348.252Z" transform="translate(77.935 -273.26)" fill-rule="evenodd" opacity="0.5" fill="url(#linear-gradient-3)" style="mix-blend-mode: multiply;isolation: isolate"/>
      <path id="Path_11932" data-name="Path 11932" d="M52.491,343.023v18.872c-11.148-7.263-17.77-16.34-17.77-26.19V316.852c.052,9.841,6.668,18.911,17.77,26.171Z" transform="translate(-34.721 -273.432)" fill-rule="evenodd" opacity="0.5" fill="url(#linear-gradient-31)" style="mix-blend-mode: multiply;isolation: isolate"/>
      <path id="Path_11933" data-name="Path 11933" d="M75.423,332.58q5.54.361,11.281.364v18.807a162.329,162.329,0,0,1-36.629-4.044v-18.82a156.426,156.426,0,0,0,25.348,3.693Z" transform="translate(4.192 -246.34)" fill-rule="evenodd" fill="url(#linear-gradient-5)" style="mix-blend-mode: screen;isolation: isolate"/>
      <path id="Path_11934" data-name="Path 11934" d="M138.538,359a36.51,36.51,0,0,1-.54,6.466.474.474,0,0,1-.919,0,38.986,38.986,0,0,1,0-12.929.474.474,0,0,1,.919,0,36.473,36.473,0,0,1,.54,6.463Zm12.2-1.151a37.989,37.989,0,0,1-.519,6.463.448.448,0,0,1-.877,0,40.535,40.535,0,0,1,0-12.929.448.448,0,0,1,.877,0,38,38,0,0,1,.519,6.466Zm12.083-1.98a39.63,39.63,0,0,1-.5,6.466.423.423,0,0,1-.836,0,42.215,42.215,0,0,1,0-12.929.423.423,0,0,1,.836,0,39.622,39.622,0,0,1,.5,6.463Zm11.867-2.89a41.887,41.887,0,0,1-.47,6.466.413.413,0,0,1-.4.358.408.408,0,0,1-.4-.358,44.362,44.362,0,0,1,0-12.929.408.408,0,0,1,.4-.358.413.413,0,0,1,.4.358,41.846,41.846,0,0,1,.47,6.463Zm11.519-3.934a43.885,43.885,0,0,1-.449,6.466.38.38,0,0,1-.759,0,46.767,46.767,0,0,1,0-12.933.38.38,0,0,1,.759,0,43.886,43.886,0,0,1,.449,6.466Zm10.944-5.166a46.643,46.643,0,0,1-.425,6.463.388.388,0,0,1-.362.358.382.382,0,0,1-.359-.358,49.005,49.005,0,0,1,0-12.929.382.382,0,0,1,.359-.358.388.388,0,0,1,.362.358,46.651,46.651,0,0,1,.425,6.466Zm9.9-6.752a49.2,49.2,0,0,1-.4,6.466.342.342,0,1,1-.682,0,51.935,51.935,0,0,1,0-12.929.342.342,0,1,1,.682,0,49.183,49.183,0,0,1,.4,6.463ZM111.935,359a36.489,36.489,0,0,0,.543,6.466.472.472,0,0,0,.916,0,38.74,38.74,0,0,0,0-12.929.472.472,0,0,0-.916,0,36.451,36.451,0,0,0-.543,6.463Zm-12.2-1.151a38.375,38.375,0,0,0,.515,6.463.45.45,0,0,0,.881,0,40.534,40.534,0,0,0,0-12.929.45.45,0,0,0-.881,0,38.385,38.385,0,0,0-.515,6.466Zm-12.083-1.98a40.044,40.044,0,0,0,.494,6.466.425.425,0,0,0,.839,0,42.507,42.507,0,0,0,0-12.929.425.425,0,0,0-.839,0,40.036,40.036,0,0,0-.494,6.463Zm-11.87-2.89a41.859,41.859,0,0,0,.474,6.466.4.4,0,0,0,.8,0,44.688,44.688,0,0,0,0-12.929.4.4,0,0,0-.8,0,41.818,41.818,0,0,0-.474,6.463Zm-11.515-3.934a43.886,43.886,0,0,0,.449,6.466.393.393,0,0,0,.38.358.4.4,0,0,0,.38-.358,46.769,46.769,0,0,0,0-12.933.4.4,0,0,0-.38-.358.393.393,0,0,0-.38.358,43.887,43.887,0,0,0-.449,6.466ZM53.323,343.88a46.643,46.643,0,0,0,.425,6.463.36.36,0,0,0,.721,0,49.4,49.4,0,0,0,0-12.929.36.36,0,0,0-.721,0,46.652,46.652,0,0,0-.425,6.466Zm-9.9-6.752a49.158,49.158,0,0,0,.4,6.466.342.342,0,1,0,.682,0,49.157,49.157,0,0,0,.4-6.466,49.143,49.143,0,0,0-.4-6.463.342.342,0,1,0-.682,0,49.144,49.144,0,0,0-.4,6.463ZM124.2,359.39a35.117,35.117,0,0,0,.564,6.466.5.5,0,0,0,.958,0,37.324,37.324,0,0,0,0-12.929.5.5,0,0,0-.958,0,35.1,35.1,0,0,0-.564,6.463ZM35.6,328.353a51.982,51.982,0,0,0,.38,6.463.322.322,0,1,0,.641,0,51.985,51.985,0,0,0,.38-6.463,52,52,0,0,0-.38-6.466.322.322,0,1,0-.641,0,51.993,51.993,0,0,0-.38,6.466Zm179.279,0a51.983,51.983,0,0,1-.38,6.463c-.028.208-.16.358-.32.358a.369.369,0,0,1-.324-.358,55.244,55.244,0,0,1,0-12.929.369.369,0,0,1,.324-.358c.16,0,.292.15.32.358a51.994,51.994,0,0,1,.38,6.466Z" transform="translate(-32.745 -262.903)" fill="#663d1f" fill-rule="evenodd" opacity="0.65"/>
      <path id="Path_11935" data-name="Path 11935" d="M34.941,347.463c0,24.181,40.791,43.781,91.108,43.781s91.1-19.6,91.1-43.781-40.791-43.781-91.1-43.781-91.108,19.6-91.108,43.781Z" transform="translate(-34.226 -303.077)" fill="#ffee76" fill-rule="evenodd"/>
      <path id="Path_11936" data-name="Path 11936" d="M34.721,346.8c0,23.918,41.411,43.3,92.492,43.3s92.5-19.386,92.5-43.3-41.411-43.3-92.5-43.3-92.492,19.386-92.492,43.3Z" transform="translate(-34.721 -303.496)" fill-rule="evenodd" fill="url(#linear-gradient-6)"/>
      <path id="Path_11937" data-name="Path 11937" d="M37.239,341.562c-.6,21.346,36.663,39.568,83.234,40.7s84.812-15.254,85.413-36.6-36.666-39.568-83.234-40.7-84.812,15.251-85.413,36.6Z" transform="translate(-29.069 -300.313)" fill="#ffee76" fill-rule="evenodd"/>
      <path id="Path_11938" data-name="Path 11938" d="M37.4,343.778c0,21.509,37.51,38.941,83.776,38.941s83.78-17.432,83.78-38.941-37.51-38.941-83.78-38.941S37.4,322.272,37.4,343.778Z" transform="translate(-28.686 -300.477)" fill-rule="evenodd" fill="url(#linear-gradient-16)"/>
      <path id="Path_11939" data-name="Path 11939" d="M204.8,346.183c-2.674-20.387-39.089-36.538-83.622-36.538S40.233,325.8,37.559,346.183a18.367,18.367,0,0,1-.157-2.406c0-21.505,37.507-38.941,83.776-38.941s83.78,17.435,83.78,38.941a18.994,18.994,0,0,1-.157,2.406Z" transform="translate(-28.686 -300.477)" fill-rule="evenodd" fill="url(#linear-gradient)"/>
      <path id="Path_11940" data-name="Path 11940" d="M121.215,306.316c-42.931,0-78.331,14.958-83.323,34.253a18.969,18.969,0,0,0-.445,2.285,19.245,19.245,0,0,0,.8,3.485,25.178,25.178,0,0,0,4.859,8.378l.74-.1,104.1-14.048,53.227-7.181c-10.819-15.7-42.528-27.071-79.958-27.071Z" transform="translate(-28.585 -297.148)" fill-rule="evenodd" fill="url(#linear-gradient-5)" style="mix-blend-mode: screen;isolation: isolate"/>
      <path id="Path_11941" data-name="Path 11941" d="M43.454,344.745c.532-19,30.7-34.071,69.962-36.353,4.494-.351,9.112-.536,13.821-.536,41.672,0,76.186,14.34,82.254,33.05.219.52.414,1.047.587,1.574l8.932-1.216c-5.807-21.3-44.682-37.767-91.773-37.767-51.094,0-92.516,19.386-92.516,43.3v.12c.038,6.522,3.156,12.705,8.709,18.248l9.071-1.235a36.79,36.79,0,0,1-2.7-2.864,25.232,25.232,0,0,1-4.817-8.378,19.564,19.564,0,0,1-1.46-5.771,18.074,18.074,0,0,1-.07-2.172Z" transform="translate(-34.721 -303.496)" fill-rule="evenodd" fill="url(#linear-gradient-5)" style="mix-blend-mode: screen;isolation: isolate"/>
    </g>
  </g>
</svg>
