<svg xmlns="http://www.w3.org/2000/svg" width="110.32" height="110.149" viewBox="0 0 110.32 110.149">
  <g id="smile_emoji" transform="translate(-425.702 -120.789)">
    <path id="Path_11513" data-name="Path 11513" d="M457.841,190.6v4.356s8.267,8.65,23,8.65c15.223,0,23.454-8.65,23.454-8.65V190.6s-8.231,8.717-23.454,8.717c-14.736,0-23-8.717-23-8.717Zm4.356-25.116c2.18,0,3.91-1.73,3.91-4.361a3.876,3.876,0,0,0-3.91-3.874c-2.595,0-4.356,1.73-4.356,3.874a4.12,4.12,0,0,0,4.356,4.361Zm33.45-4.361c0-2.144,2.149-3.874,4.329-3.874,2.6,0,4.32,1.73,4.32,3.874a4.092,4.092,0,0,1-4.32,4.361,4.334,4.334,0,0,1-4.329-4.361Zm6.474-34.662h-42.1a28.19,28.19,0,0,0-28.679,28.576V197.11a28.192,28.192,0,0,0,28.679,28.643h42.1A28.134,28.134,0,0,0,530.8,197.11V155.041a28.049,28.049,0,0,0-8.235-20.34,28.707,28.707,0,0,0-20.444-8.235Zm-42.1-5.676h42.1a34.079,34.079,0,0,1,33.9,34.252V197.11c0,9.546-3.491,17.782-10,23.868-6.091,6.505-14.358,9.961-23.9,9.961h-42.1A34.073,34.073,0,0,1,425.7,197.11V155.041c0-9.479,3.942-17.786,10-24.287,6.541-6.091,14.772-9.965,24.318-9.965Z" transform="translate(0)" fill="#434b5d" fill-rule="evenodd"/>
  </g>
</svg>
