<svg xmlns="http://www.w3.org/2000/svg" width="110.32" height="110.18" viewBox="0 0 110.32 110.18">
  <g id="angry_emoji" transform="translate(-502.224 -425.848)">
    <path id="Path_11518" data-name="Path 11518" d="M580.391,454.914l-2.177-3.461L563.889,461l2.627,3.465Zm-3.871,9.553c-2.181,0-4.362,1.726-4.362,3.871a4.344,4.344,0,1,0,8.688,0c0-2.145-2.15-3.871-4.326-3.871Zm-8.274,35.569a10.644,10.644,0,1,1-21.284,0,10.645,10.645,0,0,1,21.284,0ZM538.73,464.467c-2.632,0-4.362,1.726-4.362,3.871a4.106,4.106,0,0,0,4.362,4.362c2.145,0,3.912-1.73,3.912-4.362a3.9,3.9,0,0,0-3.912-3.871Zm10,0-14.366-9.553,2.6-3.461L550.875,461ZM578.7,431.521H536.1a27.626,27.626,0,0,0-19.968,8.238,28.435,28.435,0,0,0-8.684,20.346v42.076A28.731,28.731,0,0,0,516.13,522.6a27.9,27.9,0,0,0,19.968,8.238h42.6a28.978,28.978,0,0,0,20.382-8.238,28.23,28.23,0,0,0,8.274-20.418V460.105a27.941,27.941,0,0,0-8.274-20.346,28.691,28.691,0,0,0-20.382-8.238Zm-42.6-5.673h42.6a33.381,33.381,0,0,1,23.879,9.964,35.4,35.4,0,0,1,9.968,24.294v42.076a33.523,33.523,0,0,1-9.968,23.879c-6.088,6.5-14.326,9.968-23.879,9.968H536.1a32.45,32.45,0,0,1-23.875-9.968,33.419,33.419,0,0,1-10-23.879V460.105a35.286,35.286,0,0,1,10-24.294,34.124,34.124,0,0,1,23.875-9.964Z" transform="translate(0 0)" fill="#434b5d" fill-rule="evenodd"/>
  </g>
</svg>
