<svg xmlns="http://www.w3.org/2000/svg" width="110.32" height="110.18" viewBox="0 0 110.32 110.18">
  <g id="dead_emoji" transform="translate(-120.575 -578.323)">
    <path id="Path_11519" data-name="Path 11519" d="M202.654,613.9l-4.358,3.046,4.358,2.632-2.177,3.456-6.056-3.943-5.678,3.943-2.177-3.456,4.358-2.632-4.358-3.046,2.177-3.461,5.678,3.876,6.056-3.876Zm-46.023,5.192-6.088,3.943-2.181-3.456,4.358-2.632-4.358-3.046,2.181-3.461,6.088,3.876,6.056-3.876,1.73,3.461-3.912,3.046,3.912,2.632-1.73,3.456Zm19.1,42.08c-8.274,0-14.776-3.046-14.776-6.507s6.5-6.507,14.776-6.507c7.823,0,14.74,3.046,14.74,6.507s-6.917,6.507-14.74,6.507Zm0-16.89c-10.865,0-19.1,4.29-19.1,10.383s8.238,10.45,19.1,10.45c10.414,0,18.688-4.362,18.688-10.45s-8.274-10.383-18.688-10.383ZM196.561,584H154.449a28.657,28.657,0,0,0-20.418,8.238,27.939,27.939,0,0,0-8.233,20.351v42.076a28.216,28.216,0,0,0,8.233,20.418,28.976,28.976,0,0,0,20.418,8.233h42.112a28.205,28.205,0,0,0,20.423-8.233,28.584,28.584,0,0,0,8.684-20.418V612.585a28.3,28.3,0,0,0-8.684-20.351A27.905,27.905,0,0,0,196.561,584Zm-42.112-5.673h42.112A34.089,34.089,0,0,1,230.9,612.585v42.076A34.1,34.1,0,0,1,196.561,688.5H154.449c-9.549,0-17.818-3.461-23.875-9.968-6.539-6.088-10-14.321-10-23.875V612.585a34.081,34.081,0,0,1,33.874-34.262Z" transform="translate(0)" fill="#434b5d" fill-rule="evenodd"/>
  </g>
</svg>
