<svg xmlns="http://www.w3.org/2000/svg" width="110.32" height="110.144" viewBox="0 0 110.32 110.144">
  <g id="fear_emoji" transform="translate(-502.316 -273.372)">
    <path id="Path_11520" data-name="Path 11520" d="M580.043,345.811a5.983,5.983,0,0,0-5.636-4.361h-2.18v4.361Zm0,3.879h-7.816v4.356h2.18a5.984,5.984,0,0,0,5.636-4.356ZM567.9,341.45h-8.266v4.361H567.9Zm0,8.239h-8.266v4.356H567.9Zm-12.627-8.239h-8.649v4.361h8.649Zm0,8.239h-8.649v4.356h8.649ZM542.72,341.45h-2.18a6.549,6.549,0,0,0-6.091,4.361h8.271Zm0,8.239h-8.271a6.135,6.135,0,0,0,6.091,4.356h2.18Zm42.1-2.149A10.662,10.662,0,0,1,574.408,358.4H540.54c-6.091,0-10.411-4.771-10.411-10.861a10.26,10.26,0,0,1,10.411-10.379h33.868a10.558,10.558,0,0,1,10.415,10.379Zm-12.6-45.108,14.325,9.546,2.176-3.46-13.906-9.546Zm8.271,13.42a3.907,3.907,0,0,0-3.946-3.874c-2.595,0-4.324,1.73-4.324,3.874a4.1,4.1,0,0,0,4.324,4.361,4.034,4.034,0,0,0,3.946-4.361Zm-42.139-3.874c-2.176,0-4.356,1.73-4.356,3.874a4.359,4.359,0,1,0,8.717,0c0-2.144-2.18-3.874-4.361-3.874Zm3.91-9.546-13.875,9.546-2.626-3.46,14.321-9.546Zm36.012-23.385h-42.1a28.763,28.763,0,0,0-20.412,8.231,28.09,28.09,0,0,0-8.267,20.344v42.067a28.176,28.176,0,0,0,28.678,28.638h42.1a28.287,28.287,0,0,0,20.443-8.23,29.272,29.272,0,0,0,8.649-20.407V307.623a28.816,28.816,0,0,0-29.092-28.575Zm-42.1-5.676h42.1a34.355,34.355,0,0,1,24.317,9.965,35.136,35.136,0,0,1,10.037,24.286v42.067A33.3,33.3,0,0,1,602.6,373.556c-6.055,6.505-14.767,9.96-24.317,9.96h-42.1c-9.546,0-17.781-3.455-23.908-9.96a33.523,33.523,0,0,1-9.96-23.867V307.623a35.386,35.386,0,0,1,9.96-24.286,33.519,33.519,0,0,1,23.908-9.965Z" fill="#434b5d" fill-rule="evenodd"/>
  </g>
</svg>
