<svg xmlns="http://www.w3.org/2000/svg" width="110.32" height="110.176" viewBox="0 0 110.32 110.176">
  <g id="shockdead_emoji" transform="translate(-425.909 -425.848)">
    <path id="Path_11524" data-name="Path 11524" d="M507.989,461.42l-4.326,3.046,4.326,2.627-2.145,3.465-5.673-3.947-6.056,3.947-2.185-3.465,4.362-2.627-4.362-3.046,2.185-3.461,6.056,3.875,5.673-3.875Zm-38.2,0-3.911,3.046,3.911,2.627-1.726,3.465-6.092-3.947-6.088,3.947-2.149-3.465,4.326-2.627-4.326-3.046,2.149-3.461,6.088,3.875,6.092-3.875Zm11.279,47.265a6.5,6.5,0,0,1,0-13.009c3.046,0,6.093,3.046,6.093,6.5s-3.046,6.507-6.093,6.507Zm0-16.885c-6.052,0-10.864,4.285-10.864,10.378s4.812,10.45,10.864,10.45a10.414,10.414,0,1,0,0-20.828Zm20.868-60.279H459.786a28.721,28.721,0,0,0-20.418,8.237,27.912,27.912,0,0,0-8.237,20.345v42.074a28.14,28.14,0,0,0,28.655,28.655h42.146a28.282,28.282,0,0,0,20.413-8.237A29.419,29.419,0,0,0,531,502.178V460.1a28.371,28.371,0,0,0-8.652-20.345,28.011,28.011,0,0,0-20.413-8.237Zm-42.146-5.673h42.146a34.313,34.313,0,0,1,24.293,9.963,35.289,35.289,0,0,1,10,24.293v42.074a33.422,33.422,0,0,1-10,23.878c-6.056,6.5-14.744,9.968-24.293,9.968H459.786c-9.548,0-17.786-3.465-23.874-9.968a33.4,33.4,0,0,1-10-23.878V460.1a35.269,35.269,0,0,1,10-24.293,33.378,33.378,0,0,1,23.874-9.963Z" transform="translate(0 0)" fill="#434b5d" fill-rule="evenodd"/>
  </g>
</svg>
