<svg xmlns="http://www.w3.org/2000/svg" width="110.32" height="110.176" viewBox="0 0 110.32 110.176">
  <g id="shock_emoji" transform="translate(-578.53 -120.789)">
    <path id="Path_11522" data-name="Path 11522" d="M656.667,161.137a4.1,4.1,0,0,1-4.326,4.362c-2.181,0-3.911-1.73-3.911-4.362a3.877,3.877,0,0,1,3.911-3.875c2.6,0,4.326,1.73,4.326,3.875Zm-4.326,8.652a8.578,8.578,0,0,1-8.237-8.652,8.486,8.486,0,0,1,8.237-8.233,8.446,8.446,0,1,1,0,16.885Zm0-21.247a12.8,12.8,0,0,0,0,25.6,12.8,12.8,0,1,0,0-25.6Zm-33.427,12.595a4.344,4.344,0,1,1-8.688,0c0-2.145,2.149-3.875,4.326-3.875s4.362,1.73,4.362,3.875Zm3.907,33.841H644.1v4.362H622.821Zm-8.269-25.19a8.446,8.446,0,1,1,0-16.885,8.234,8.234,0,0,1,8.269,8.233,8.335,8.335,0,0,1-8.269,8.652Zm12.631-8.652a12.647,12.647,0,0,0-12.631-12.595,12.333,12.333,0,0,0-12.563,12.595c0,7.336,5.2,13.009,12.563,13.009a12.741,12.741,0,0,0,12.631-13.009Zm27.754-34.67H612.376a28.617,28.617,0,0,0-20.382,8.237,27.936,27.936,0,0,0-8.269,20.345v42.079a28.222,28.222,0,0,0,8.269,20.413,28.921,28.921,0,0,0,20.382,8.237h42.561a28.01,28.01,0,0,0,20-8.237,28.713,28.713,0,0,0,8.688-20.413V155.049a28.42,28.42,0,0,0-8.688-20.345,27.717,27.717,0,0,0-20-8.237Zm-42.561-5.678h42.561a34.119,34.119,0,0,1,23.909,9.968c6.056,6.5,10,14.812,10,24.293v42.079a33.54,33.54,0,0,1-10,23.874,32.443,32.443,0,0,1-23.909,9.963H612.376c-9.553,0-17.786-3.456-23.878-9.963a33.51,33.51,0,0,1-9.967-23.874V155.049a35.389,35.389,0,0,1,9.967-24.293,33.373,33.373,0,0,1,23.878-9.968Z" transform="translate(0 0)" fill="#434b5d" fill-rule="evenodd"/>
  </g>
</svg>
