<svg xmlns="http://www.w3.org/2000/svg" width="110.32" height="110.149" viewBox="0 0 110.32 110.149">
  <g id="decent_emoji" transform="translate(-425.917 -197.135)">
    <path id="Path_11514" data-name="Path 11514" d="M495.831,228.337l14.321,9.551,2.185-3.46-13.88-9.551Zm3.91,9.132c-2.144,0-3.91,2.149-3.91,4.361a4.125,4.125,0,1,0,3.91-4.361ZM463.7,224.877l-14.326,9.551,2.595,3.46,13.907-9.551Zm-1.734,42.068s4.361,13.011,19.133,13.011c14.736,0,19.1-13.011,19.1-13.011s-6.505,4.361-19.1,4.361c-12.628,0-19.133-4.361-19.133-4.361Zm0-20.827a4.325,4.325,0,1,1,4.361-4.289,4.642,4.642,0,0,1-4.361,4.289Zm40.41-43.312H459.818a28.725,28.725,0,0,0-20.444,8.235,28.049,28.049,0,0,0-8.235,20.34v42.064a28.34,28.34,0,0,0,8.235,20.412,29.011,29.011,0,0,0,20.444,8.235h42.555a27.99,27.99,0,0,0,19.957-8.235,28.69,28.69,0,0,0,8.686-20.412V231.382a28.394,28.394,0,0,0-8.686-20.34,27.714,27.714,0,0,0-19.957-8.235Zm-42.555-5.672h42.555A34.171,34.171,0,0,1,526.24,207.1a35.276,35.276,0,0,1,10,24.287v42.064a33.41,33.41,0,0,1-10,23.872,32.475,32.475,0,0,1-23.868,9.965H459.818c-9.582,0-17.813-3.46-23.9-9.965a33.4,33.4,0,0,1-10-23.872V231.382a35.26,35.26,0,0,1,10-24.287,33.38,33.38,0,0,1,23.9-9.961Z" transform="translate(0 0)" fill="#434b5d" fill-rule="evenodd"/>
  </g>
</svg>
