<svg xmlns="http://www.w3.org/2000/svg" width="110.32" height="110.18" viewBox="0 0 110.32 110.18">
  <g id="cool_emoji" transform="translate(-120.575 -349.61)">
    <path id="Path_11516" data-name="Path 11516" d="M154.449,349.61h42.567a34.058,34.058,0,0,1,23.875,9.964,35.29,35.29,0,0,1,10,24.294v42.08a33.431,33.431,0,0,1-10,23.879,32.388,32.388,0,0,1-23.875,9.964H154.449a32.5,32.5,0,0,1-23.875-9.964,33.408,33.408,0,0,1-10-23.879v-42.08a35.265,35.265,0,0,1,10-24.294,34.181,34.181,0,0,1,23.875-9.964Zm70.389,27.336c-12.6-1.311-33.014-.9-47.375,2.632h-2.145c-14.776-3.529-35.645-3.943-48.2-2.632l-.9,1.73a28.174,28.174,0,0,1,28.237-23.392h42.567a27.752,27.752,0,0,1,20,8.238,26.68,26.68,0,0,1,7.823,13.424ZM164.9,404.7c4.326-2.145,6.057-7.818,6.057-7.818s1.73-4.29,3.5-9.067c0-.487.865-.9,1.28-1.316.9.415,1.73.415,1.73,1.316a54.929,54.929,0,0,0,3.5,9.067s2.145,5.673,6.052,7.818c4.813,2.145,8.72,2.145,15.678,2.145a51.774,51.774,0,0,0,12.559-1.73s4.777-.829,6.958-8.652a88.034,88.034,0,0,1,2.632-9.549s0-.415.829-1.316v40.35a29.456,29.456,0,0,1-8.652,20.418,28.042,28.042,0,0,1-20,8.233H154.449A28.184,28.184,0,0,1,125.8,425.948V385.6a9.522,9.522,0,0,1,.865,1.316s1.316,2.213,3.046,9.549c2.181,7.823,6.953,8.652,6.953,8.652a51.925,51.925,0,0,0,12.6,1.73c6.507,0,10.833-.415,15.642-2.145Zm-12.631,14.74V423.8c11.32,11.279,35.645,11.279,46.479,0V419.44s-8.238,8.72-23.014,8.72a35.056,35.056,0,0,1-23.465-8.72Z" transform="translate(0)" fill="#434b5d" fill-rule="evenodd"/>
  </g>
</svg>
