<svg xmlns="http://www.w3.org/2000/svg" width="110.32" height="110.18" viewBox="0 0 110.32 110.18">
  <g id="attitude_emoji" transform="translate(-654.945 -197.135)">
    <path id="Path_11523" data-name="Path 11523" d="M688.86,197.135h42.107A34.455,34.455,0,0,1,755.3,207.1a35.4,35.4,0,0,1,9.968,24.294v42.076a33.522,33.522,0,0,1-9.968,23.879c-6.092,6.507-14.776,9.968-24.33,9.968H688.86c-9.585,0-17.859-3.461-23.915-9.968a33.4,33.4,0,0,1-10-23.879V231.392a35.267,35.267,0,0,1,10-24.294,33.357,33.357,0,0,1,23.915-9.964ZM725.3,268.7h4.353v3.948c0,4.29-4.353,8.648-8.679,8.648H691.419v-4.358h27.822c3.046,0,6.056-3.046,6.056-6.44h0Zm33.91-44.225c-12.631-1.316-33.013-.9-47.375,2.632h-2.145c-14.776-3.529-36.055-3.948-48.236-2.632l-.834,1.73a26.7,26.7,0,0,1,7.787-15.155,28.8,28.8,0,0,1,20.454-8.238h42.107a27.891,27.891,0,0,1,20.387,8.238,26.238,26.238,0,0,1,7.854,13.424Zm-60.385,27.75c4.772-2.14,6.088-7.818,6.088-7.818s2.149-4.29,3.911-9.067c0-.482.865-.9,1.28-1.726.415.829,1.73.829,1.73,1.726a56.734,56.734,0,0,0,3.461,9.067s2.213,5.678,6.124,7.818c4.777,2.15,8.652,2.15,15.605,2.15a52.8,52.8,0,0,0,12.636-1.73s4.768-.829,6.466-8.652c2.181-7.819,2.632-9.549,2.632-9.549a3.75,3.75,0,0,1,1.311-1.316v40.345a29.362,29.362,0,0,1-8.715,20.418,28.16,28.16,0,0,1-20.387,8.238H688.86a28.142,28.142,0,0,1-28.692-28.656V233.123a6.988,6.988,0,0,1,.87,1.316s.861,1.73,3.047,9.549c2.14,7.823,6.5,8.652,6.5,8.652a58.125,58.125,0,0,0,13.041,1.73,48.809,48.809,0,0,0,15.2-2.15Z" transform="translate(0 0)" fill="#434b5d" fill-rule="evenodd"/>
  </g>
</svg>
