<svg xmlns="http://www.w3.org/2000/svg" width="111" height="111" viewBox="0 0 111 111">
  <g id="laugh_emoji" transform="translate(-625 -1563)">
    <g id="Group_3329" data-name="Group 3329" transform="translate(226.937 1547.65)">
      <path id="Path_11526" data-name="Path 11526" d="M436.048,62.235a8.327,8.327,0,0,0,8.217-8.22,8.22,8.22,0,0,0-16.439,0,8.331,8.331,0,0,0,8.222,8.22Zm18.015,10.877c-11.8,0-22.022,11.124-28.239,2.233a29.694,29.694,0,0,0,28.239,21.078A29.389,29.389,0,0,0,482.3,75.345c-6.238,8.891-16.67-2.233-28.239-2.233Zm17.343-10.877a8.192,8.192,0,0,0,8.219-8.22,8.229,8.229,0,0,0-16.457,0,8.2,8.2,0,0,0,8.238,8.22Z" transform="translate(0 0)" fill="#434b5d" fill-rule="evenodd"/>
    </g>
    <g id="Rectangle_586" data-name="Rectangle 586" transform="translate(625 1563)" fill="none" stroke="#434b5d" stroke-width="6">
      <rect width="111" height="111" rx="36" stroke="none"/>
      <rect x="3" y="3" width="105" height="105" rx="33" fill="none"/>
    </g>
  </g>
</svg>
