<svg xmlns="http://www.w3.org/2000/svg" width="110.32" height="110.185" viewBox="0 0 110.32 110.185">
  <g id="opps_emoji" transform="translate(-578.631 -349.61)">
    <path id="Path_11517" data-name="Path 11517" d="M610.325,409.065h8.725v10.378c0,8.238,6.5,15.227,14.741,15.227,7.819,0,14.773-6.99,14.773-15.227V409.065h8.274v-3.948H610.325Zm46.512-29.486a4.345,4.345,0,0,1-4.358,4.29,4.249,4.249,0,0,1-3.916-4.29c0-2.213,1.731-4.362,3.916-4.362a4.362,4.362,0,0,1,4.358,4.362Zm-29.554,4.29H610.325v-4.29h16.958Zm27.373-28.585H612.507a28.722,28.722,0,0,0-20.419,8.238,28.087,28.087,0,0,0-8.234,20.347v42.082a28.378,28.378,0,0,0,8.234,20.419,29.025,29.025,0,0,0,20.419,8.233h42.149a28.164,28.164,0,0,0,20.383-8.233,28.613,28.613,0,0,0,8.72-20.419V383.869a28.319,28.319,0,0,0-8.72-20.347,27.88,27.88,0,0,0-20.383-8.238Zm-42.149-5.674h42.149a34.031,34.031,0,0,1,34.295,34.259v42.082a34.03,34.03,0,0,1-34.295,33.844H612.507c-9.549,0-17.823-3.461-23.876-9.964-6.507-6.093-10-14.331-10-23.88V383.869a34.083,34.083,0,0,1,33.876-34.259Z" transform="translate(0)" fill="#fff" fill-rule="evenodd"/>
  </g>
</svg>
