<svg xmlns="http://www.w3.org/2000/svg" width="110.32" height="110.18" viewBox="0 0 110.32 110.18">
  <g id="mustach_emoji" transform="translate(-654.845 -349.61)">
    <path id="Path_11521" data-name="Path 11521" d="M730,420.756c-6.088-2.56-5.223-8.238-9.135-12.113-2.591-2.213-6.092-2.213-9.134,0-.415.419-1.312.834-1.726,1.73a5.548,5.548,0,0,0-1.735-1.73c-2.627-2.213-6.5-2.213-8.688,0-4.353,3.876-3.493,9.554-9.549,12.113-3.907,2.217-11.311,1.73-15.227-3.042,0,3.456,10.455,14.321,21.734,13.911a15.887,15.887,0,0,0,13.879-9.139,16.645,16.645,0,0,0,13.911,9.139c11.725.41,22.149-10.455,22.149-13.911-5.2,4.772-12.149,5.259-16.479,3.042Zm-.9-26.439a4.355,4.355,0,0,0,4.362-4.358c0-2.145-2.177-3.875-4.362-3.875s-4.326,1.73-4.326,3.875a4.328,4.328,0,0,0,4.326,4.358Zm-42.116-4.358c0-2.145,1.735-3.875,4.326-3.875a3.881,3.881,0,0,1,3.916,3.875c0,2.632-1.735,4.358-3.916,4.358a4.1,4.1,0,0,1-4.326-4.358Zm44.3-34.677H688.724a27.611,27.611,0,0,0-19.967,8.238,28.292,28.292,0,0,0-8.688,20.346v42.08a28.586,28.586,0,0,0,8.688,20.419,27.9,27.9,0,0,0,19.967,8.233h42.567a28.127,28.127,0,0,0,28.647-28.651v-42.08a27.943,27.943,0,0,0-8.233-20.346,28.718,28.718,0,0,0-20.414-8.238Zm-42.567-5.673h42.567a33.306,33.306,0,0,1,23.87,9.964,35.271,35.271,0,0,1,10,24.294v42.08a33.413,33.413,0,0,1-10,23.879c-6.052,6.5-14.321,9.964-23.87,9.964H688.724a32.455,32.455,0,0,1-23.879-9.964,33.426,33.426,0,0,1-10-23.879v-42.08a35.285,35.285,0,0,1,10-24.294,34.133,34.133,0,0,1,23.879-9.964Z" transform="translate(0 0)" fill="#434b5d" fill-rule="evenodd"/>
  </g>
</svg>
