<svg xmlns="http://www.w3.org/2000/svg" width="110.32" height="110.144" viewBox="0 0 110.32 110.144">
  <g id="wow_emoji" transform="translate(-731.152 -197.135)">
    <path id="Path_11515" data-name="Path 11515" d="M775.881,233.6a8.461,8.461,0,0,1-16.916,0,8.708,8.708,0,0,1,8.649-8.721c4.357,0,8.266,3.942,8.266,8.721Zm10.415,25.11a10.625,10.625,0,0,0,0,21.245,10.625,10.625,0,1,0,0-21.245Zm27.363-25.11a8.251,8.251,0,0,1-16.5,0c0-4.78,3.455-8.721,8.23-8.721,4.807,0,8.271,3.942,8.271,8.721Zm-6.091-30.791H765.02a27.672,27.672,0,0,0-19.966,8.235,28.308,28.308,0,0,0-8.712,20.34v42.062a28.6,28.6,0,0,0,8.712,20.412,27.947,27.947,0,0,0,19.966,8.235h42.549a29.13,29.13,0,0,0,20.443-8.235,28.31,28.31,0,0,0,8.2-20.412V231.381a28.02,28.02,0,0,0-8.2-20.34,28.841,28.841,0,0,0-20.443-8.235Zm-42.549-5.672h42.549a33.313,33.313,0,0,1,23.867,9.96,35.153,35.153,0,0,1,10.037,24.286v42.062a33.3,33.3,0,0,1-10.037,23.871c-6.055,6.505-14.321,9.965-23.867,9.965H765.02a32.623,32.623,0,0,1-23.908-9.965,33.507,33.507,0,0,1-9.96-23.871V231.381a35.383,35.383,0,0,1,9.96-24.286,34.333,34.333,0,0,1,23.908-9.96Z" transform="translate(0 0)" fill="#434b5d" fill-rule="evenodd"/>
  </g>
</svg>
