<svg xmlns="http://www.w3.org/2000/svg" width="60" height="60" viewBox="0 0 60 60">
  <g id="about_us" transform="translate(-1511 -1138)">
    <rect id="back" width="60" height="60" transform="translate(1511 1138)" fill="none"/>
    <path id="Path_95" data-name="Path 95" d="M76.243,1190.749v-3.008a4.56,4.56,0,0,0,.1-.518,20.639,20.639,0,0,1,1.214-5.806c3.746-9.909,11.037-15.571,21.291-17.623,1.082-.216,2.191-.3,3.287-.438h3.223c.548.067,1.1.135,1.643.2a27.163,27.163,0,0,1,16.967,8.261c6.344,6.645,8.635,14.518,6.473,23.522a24.531,24.531,0,0,1-6.9,11.914c-.214.21-.439.357-.225.753a18.851,18.851,0,0,0,6.877,7.218,1.707,1.707,0,0,1,1.014,1.87c-.2.885-.69,1.251-1.789,1.25-1.413,0-2.828-.009-4.239-.085a33.477,33.477,0,0,1-13.62-3.659,1.9,1.9,0,0,0-1.329-.163,30.72,30.72,0,0,1-9.712.5,27.751,27.751,0,0,1-16.989-8.23,24.791,24.791,0,0,1-6.8-12.732C76.506,1192.91,76.4,1191.824,76.243,1190.749Zm24.276,4.953c0,2.146-.012,4.292,0,6.438a3.216,3.216,0,1,0,6.43.053c.024-4.31.013-8.62,0-12.93a3.215,3.215,0,1,0-6.429,0C100.5,1191.409,100.52,1193.555,100.519,1195.7Zm0-17.869a3.218,3.218,0,1,0,3.229-3.193A3.24,3.24,0,0,0,100.522,1177.833Z" transform="translate(1437.257 -22.849)" fill="#f97b5e"/>
  </g>
</svg>
