<svg xmlns="http://www.w3.org/2000/svg" width="194.136" height="150.538" viewBox="0 0 194.136 150.538">
  <g id="already_login" transform="translate(-137.14 -57.501)">
    <g id="Group_3629" data-name="Group 3629" transform="translate(155.197 70.232)">
      <path id="Path_13061" data-name="Path 13061" d="M238.5,138.481s2.535-5.959,6.889-3.68c3.514,1.84,3.509-3.777,5.845-2.862,3.305,1.295,4.327-3.795,5.689-2.862,1.791,1.227,2.17,5.241,4.54,4.495,2.157-.679,2.36-6.026,4.175-3.064,2.923,4.77,4.767-1.84,6.889,3.064,1.592,3.678,6.68,2.047,7.933,4.909Z" transform="translate(-238.498 -128.962)" fill="#f87758"/>
    </g>
    <g id="Group_3630" data-name="Group 3630" transform="translate(269.11 95.331)">
      <path id="Path_13062" data-name="Path 13062" d="M877.912,279.362s2.535-5.959,6.889-3.68c3.514,1.84,3.509-3.777,5.845-2.862,3.305,1.295,4.327-3.795,5.689-2.862,1.791,1.227,2.17,5.241,4.54,4.495,2.157-.679,2.36-6.026,4.175-3.064,2.923,4.77,4.766-1.84,6.889,3.064,1.592,3.678,6.68,2.047,7.933,4.909Z" transform="translate(-877.912 -269.844)" fill="#f87758"/>
    </g>
    <g id="Group_3632" data-name="Group 3632" transform="translate(298.969 182.758)">
      <path id="Path_13063" data-name="Path 13063" d="M1073.837,776.379a5.077,5.077,0,0,1-1.73,1.6h-22.561a8.973,8.973,0,0,1-2.535-1.44,2.776,2.776,0,0,1-1.491-2.241,2.134,2.134,0,0,1,2.386-2.034,3.134,3.134,0,0,0,1.258.174c.691-.174.909-1.08.733-1.772a20.12,20.12,0,0,1-.7-2.006,2.349,2.349,0,0,1,2.459-2.55,4.214,4.214,0,0,1,2.738,2.144c.359.534.82,1.148,1.46,1.116a1.286,1.286,0,0,0,1.054-.954,5.028,5.028,0,0,0,.125-1.5,9.418,9.418,0,0,1,1.024-4.135,3.677,3.677,0,0,1,2.412-2.155,2.858,2.858,0,0,1,2.9,1.769,5.515,5.515,0,0,1,.121,3.581c-.219.87-.516,1.886.048,2.58a1.519,1.519,0,0,0,.472.383,2.021,2.021,0,0,0,2.229-.25c.278-.242.484-.557.764-.792a2.044,2.044,0,0,1,2.527.051,2.478,2.478,0,0,1,.75,2.483c-.128.5-.4.962-.562,1.457a1.67,1.67,0,0,0,.109,1.5c.789,1.07,2.7.02,3.757.832A1.735,1.735,0,0,1,1073.837,776.379Z" transform="translate(-1045.52 -760.591)" fill="#ff984f"/>
      <g id="Group_3631" data-name="Group 3631" transform="translate(1.207 0)">
        <path id="Path_13064" data-name="Path 13064" d="M1126.381,762.389a5.515,5.515,0,0,1,.122,3.581c-.219.87-.516,1.886.048,2.579a1.515,1.515,0,0,0,.472.383,2.021,2.021,0,0,0,2.089-.146,1.361,1.361,0,0,1-.246-.237c-.564-.694-.266-1.71-.048-2.579a5.513,5.513,0,0,0-.122-3.581,2.857,2.857,0,0,0-2.9-1.769,2.4,2.4,0,0,0-.785.284A3.192,3.192,0,0,1,1126.381,762.389Z" transform="translate(-1112.059 -760.591)" fill="#f0863c"/>
        <path id="Path_13065" data-name="Path 13065" d="M1052.419,826.447a.874.874,0,0,0,.291-.135,2.088,2.088,0,0,0-.412.155A.97.97,0,0,0,1052.419,826.447Z" transform="translate(-1052.297 -814.604)" fill="#f0863c"/>
        <path id="Path_13066" data-name="Path 13066" d="M1074.236,793.645c.358.534.82,1.148,1.46,1.117a1.258,1.258,0,0,0,1.023-.874c-.058-.081-.115-.163-.168-.243a4.215,4.215,0,0,0-2.738-2.144,2.1,2.1,0,0,0-1.331.33A5.76,5.76,0,0,1,1074.236,793.645Z" transform="translate(-1068.886 -785.986)" fill="#f0863c"/>
        <path id="Path_13067" data-name="Path 13067" d="M1173,805.983c-1.054-.812-2.968.239-3.757-.832a1.67,1.67,0,0,1-.109-1.5c.159-.5.434-.952.562-1.457a2.477,2.477,0,0,0-.75-2.483,2.053,2.053,0,0,0-2.455-.105c.048.033.095.068.14.105a2.477,2.477,0,0,1,.75,2.483c-.128.5-.4.962-.562,1.457a1.67,1.67,0,0,0,.109,1.5c.789,1.07,2.7.02,3.757.832a1.736,1.736,0,0,1,.258,2.167,5.078,5.078,0,0,1-1.73,1.6h2.315a5.076,5.076,0,0,0,1.73-1.6A1.736,1.736,0,0,0,1173,805.983Z" transform="translate(-1146.149 -792.362)" fill="#f0863c"/>
      </g>
      <path id="Path_13068" data-name="Path 13068" d="M1116.011,780.895a2.126,2.126,0,0,1-.916,1.46c-.529.355-1.269.488-1.6,1.085a.074.074,0,0,1-.036.033c-.156.638-.312,1.276-.447,1.915a13.828,13.828,0,0,0-.329,4.35h-.161a10.1,10.1,0,0,1-.061-1.222,13.974,13.974,0,0,1,.186-2.052.067.067,0,0,1-.069-.059,1.778,1.778,0,0,0-.559-.886c-.288-.3-.577-.592-.866-.888a2.89,2.89,0,0,1-1.031-1.912.082.082,0,0,1,.163,0,2.964,2.964,0,0,0,1.118,1.933c.278.286.564.567.837.86a1.985,1.985,0,0,1,.452.686c.266-1.534.708-3.043,1.031-4.566a16.593,16.593,0,0,0,.388-2.986.135.135,0,0,1-.02-.012,2.267,2.267,0,0,1-.932-1.69c.008-.1.171-.105.163,0a1.974,1.974,0,0,0,.791,1.483,8.043,8.043,0,0,0-.653-3.4c-.043-.094.1-.178.142-.082a7.373,7.373,0,0,1,.51,1.634,2.547,2.547,0,0,0,.554-1.213c.018-.1.174-.059.158.043a2.694,2.694,0,0,1-.674,1.376,9.7,9.7,0,0,1,.128,1.72,20.507,20.507,0,0,1-.725,4.59,5.159,5.159,0,0,1,1.306-.786,1.992,1.992,0,0,0,1-1.458C1115.868,780.748,1116.026,780.793,1116.011,780.895Z" transform="translate(-1098.613 -772.354)" fill="#ffceab"/>
      <path id="Path_13069" data-name="Path 13069" d="M1080.9,812.674h-.164a10.412,10.412,0,0,0-.011-1.087c0-.09-.013-.181-.021-.271a.062.062,0,0,1-.066.033,4.348,4.348,0,0,1-2.871-1.519c-.067-.079.048-.2.115-.115a4.185,4.185,0,0,0,2.756,1.47.08.08,0,0,1,.056.031,7.488,7.488,0,0,0-.554-2.219,9.263,9.263,0,0,0-1.047-1.781.073.073,0,0,1-.043,0c-.89-.258-2.05.13-2.751-.646-.069-.079.046-.194.115-.115a1.7,1.7,0,0,0,1.161.47,9.842,9.842,0,0,1,1.376.1c-.025-.031-.048-.064-.072-.1-.5-.654-1.042-1.274-1.559-1.915-.253-.317-.5-.64-.733-.973a4.2,4.2,0,0,1-.589-1.13c-.031-.1.127-.143.158-.043a4.568,4.568,0,0,0,.714,1.289c.186.258.381.506.578.753a1.948,1.948,0,0,0,.16-1.805c-.041-.1.1-.179.141-.082a2.126,2.126,0,0,1-.191,2.024c.059.074.118.148.179.222a18.921,18.921,0,0,1,2.32,3.178c.13-.348.4-.628.556-.968a2.226,2.226,0,0,0-.141-1.628c-.034-.1.123-.143.158-.044a2.461,2.461,0,0,1,.167,1.649c-.159.429-.541.753-.633,1.208a6.711,6.711,0,0,1,.283.669A8.892,8.892,0,0,1,1080.9,812.674Z" transform="translate(-1070.561 -795.289)" fill="#ffceab"/>
      <path id="Path_13070" data-name="Path 13070" d="M1061.794,839.219h-.168a3.265,3.265,0,0,0-.551-1.274c-.054-.074-.115-.141-.176-.21a.078.078,0,0,1-.044,0c-.3-.071-.571.166-.84.261a1.085,1.085,0,0,1-.827-.054c-.1-.044-.011-.186.082-.14a.952.952,0,0,0,.839-.023,1.567,1.567,0,0,1,.633-.217,4.832,4.832,0,0,0-.768-.625c-.452-.3-.939-.554-1.414-.819a7.88,7.88,0,0,1-.705-.424.809.809,0,0,1-.373-.485c-.022-.1.136-.146.156-.043.057.276.345.424.566.557.278.168.564.322.848.478.021.013.043.025.066.036a1.972,1.972,0,0,0-.107-.99c-.036-.1.122-.141.158-.044a2.15,2.15,0,0,1,.1,1.088.057.057,0,0,1-.013.027,5.3,5.3,0,0,1,2.136,1.813A3.46,3.46,0,0,1,1061.794,839.219Z" transform="translate(-1055.349 -821.835)" fill="#ffceab"/>
      <path id="Path_13071" data-name="Path 13071" d="M1155.925,811.138c-.061.229-.3.334-.5.413a2.344,2.344,0,0,1-.765.151l-.01,0c-.087.11-.178.215-.27.321A16.22,16.22,0,0,0,1153,813.7a11.023,11.023,0,0,0-1.486,3.227c.534-.273,1.128-.406,1.67-.666a1.749,1.749,0,0,0,1.113-1.314c.01-.105.173-.105.164,0a1.838,1.838,0,0,1-1.067,1.391c-.621.329-1.328.454-1.938.8a10.93,10.93,0,0,0-.251,1.3h-.166a11.077,11.077,0,0,1,.995-3.37c0-.005-.005-.008-.007-.013-.217-.781-.791-1.6-.386-2.425.046-.094.187-.011.141.082-.349.705.123,1.462.354,2.142a11.081,11.081,0,0,1,.8-1.355c.184-.265.381-.523.589-.771h0a3.4,3.4,0,0,1-.237-1.945c.018-.1.176-.059.158.043a3.177,3.177,0,0,0,.2,1.764c.217-.253.445-.5.666-.748a3.259,3.259,0,0,0,.96-1.937c0-.105.168-.105.163,0a2.933,2.933,0,0,1-.656,1.619,2.241,2.241,0,0,0,.539-.115c.158-.058.4-.138.45-.321A.081.081,0,0,1,1155.925,811.138Z" transform="translate(-1132.243 -801.06)" fill="#ffceab"/>
      <path id="Path_13072" data-name="Path 13072" d="M1180.406,841.566a4.2,4.2,0,0,0-1.146.271.079.079,0,0,1-.069.03c-.071.03-.145.058-.216.091a4.442,4.442,0,0,0-.888.564,4.006,4.006,0,0,1,1.448.4c.094.048.011.188-.082.141a3.793,3.793,0,0,0-1.495-.388.069.069,0,0,1-.038-.011,4.184,4.184,0,0,0-.858,1.069s0,.008-.006.013h-.183a4.118,4.118,0,0,1,.25-.423,4.431,4.431,0,0,1,.9-.962,4.554,4.554,0,0,1,1.095-.641,3.308,3.308,0,0,1,.2-1.047c.036-.1.194-.054.158.044a3.186,3.186,0,0,0-.191.94,4.418,4.418,0,0,1,1.121-.253C1180.511,841.395,1180.511,841.557,1180.406,841.566Z" transform="translate(-1153.473 -826.36)" fill="#ffceab"/>
    </g>
    <g id="Group_3634" data-name="Group 3634" transform="translate(152.493 181.743)">
      <path id="Path_13073" data-name="Path 13073" d="M244.643,769.652c-1.068.545-2.278.776-3.326,1.353s-2,1.327-1.772,2.505l-2.564,0-.341,0-2.749,0h-.325l-2.47.007h-.321l-2.132,0c.013-2.161-1.814-3.888-3.7-4.942a3.084,3.084,0,0,1-1.512-1.3,2.7,2.7,0,0,1,.607-2.4,23.755,23.755,0,0,1,1.843-2.418,2.113,2.113,0,0,1,1.639-.948,1.982,1.982,0,0,1,1.292.967,10.8,10.8,0,0,1,1.817,4.251c.094.49.292,1.116.788,1.123.406.007.665-.435.75-.831.321-1.509-.542-2.976-1.058-4.43a18.225,18.225,0,0,1-.74-3.151,4.551,4.551,0,0,1-.055-1.824c.37-1.538,2.116-2.281,3.673-2.554a7.607,7.607,0,0,1,4.287.266,3.762,3.762,0,0,1,2.4,3.326c-.023,1.324-.918,2.44-1.587,3.586a11.764,11.764,0,0,0-1.6,5.41,1.2,1.2,0,0,0,.1.649c.305.549,1.168.347,1.616-.091a4.954,4.954,0,0,0,1.133-2.281,6.887,6.887,0,0,1,.974-2.369,2.077,2.077,0,0,1,2.252-.834,2.6,2.6,0,0,1,.87.62,9.786,9.786,0,0,1,1.687,2.236,3.364,3.364,0,0,1,.458,1.291A3.117,3.117,0,0,1,244.643,769.652Z" transform="translate(-223.322 -754.892)" fill="#ff984f"/>
      <g id="Group_3633" data-name="Group 3633" transform="translate(3.029 0)">
        <path id="Path_13074" data-name="Path 13074" d="M240.735,793.037a10.8,10.8,0,0,1,1.817,4.251c.094.49.292,1.116.788,1.123.406.007.665-.435.75-.831a6.668,6.668,0,0,0-.81-3.782c-.154-.26-.316-.515-.492-.761a1.981,1.981,0,0,0-1.292-.967,1.565,1.565,0,0,0-1.171.472A3.777,3.777,0,0,1,240.735,793.037Z" transform="translate(-240.326 -785.442)" fill="#eb8136"/>
        <path id="Path_13075" data-name="Path 13075" d="M289.118,755.339a3.762,3.762,0,0,1,2.4,3.326c-.023,1.324-.918,2.44-1.587,3.586a11.764,11.764,0,0,0-1.6,5.41,1.2,1.2,0,0,0,.1.649c.305.549,1.168.347,1.616-.091a2.884,2.884,0,0,0,.333-.4c0-.054,0-.108,0-.162a11.764,11.764,0,0,1,1.6-5.41c.668-1.146,1.564-2.262,1.587-3.586a3.762,3.762,0,0,0-2.4-3.326,6.915,6.915,0,0,0-3.488-.383A5.542,5.542,0,0,1,289.118,755.339Z" transform="translate(-279.246 -754.892)" fill="#eb8136"/>
        <path id="Path_13076" data-name="Path 13076" d="M271.142,802.621a3.365,3.365,0,0,0-.457-1.291A9.785,9.785,0,0,0,269,799.093a2.6,2.6,0,0,0-.87-.62,1.816,1.816,0,0,0-1.611.247,4.119,4.119,0,0,1,.427.372,9.785,9.785,0,0,1,1.687,2.236,3.365,3.365,0,0,1,.457,1.291,3.117,3.117,0,0,1-1.944,2.771c-1.068.545-2.278.776-3.326,1.353s-2,1.327-1.772,2.505l-2.564,0-.341,0-2.749,0h-.325l-2.469.007h-.4v0l2.132,0h.321l2.469-.007h.325l2.749,0,.341,0,2.564,0c-.224-1.178.72-1.924,1.772-2.505s2.258-.808,3.326-1.353A3.117,3.117,0,0,0,271.142,802.621Z" transform="translate(-250.906 -790.631)" fill="#eb8136"/>
      </g>
      <path id="Path_13077" data-name="Path 13077" d="M241.271,819.031h-.321a10.13,10.13,0,0,0-.191-1.467,10.862,10.862,0,0,0-.487-1.665.247.247,0,0,1-.084.006,3,3,0,0,1-1.447-.688.162.162,0,0,1,.227-.23,2.682,2.682,0,0,0,1.168.571,10.734,10.734,0,0,0-3.268-4.3c-.166-.127.068-.357.23-.231a11.116,11.116,0,0,1,1.139,1.035,5.358,5.358,0,0,0,.081-1.642.163.163,0,0,1,.162-.162.17.17,0,0,1,.162.162,5.642,5.642,0,0,1-.136,1.937c.058.068.12.133.179.2A11.1,11.1,0,0,1,241.271,819.031Z" transform="translate(-234.408 -800.395)" fill="#ffceab"/>
      <path id="Path_13078" data-name="Path 13078" d="M280.552,785.214a10.418,10.418,0,0,1-2.632,3.05,25.782,25.782,0,0,0,.179,4.277h-.325c-.065-.506-.114-1.012-.149-1.519a26.109,26.109,0,0,1-.029-2.713.185.185,0,0,1,.01-.191,26.033,26.033,0,0,1,.9-5.7.144.144,0,0,1-.068-.065,11.954,11.954,0,0,1-1.321-4.365c-.023-.208.3-.208.325,0A11.5,11.5,0,0,0,278.618,782a25.954,25.954,0,0,1,1.415-3.758c.091-.191.37-.026.282.162A25.1,25.1,0,0,0,279,781.846a25.74,25.74,0,0,0-1.055,5.99,10.059,10.059,0,0,0,2.327-2.784A.163.163,0,0,1,280.552,785.214Z" transform="translate(-267.528 -773.747)" fill="#ffceab"/>
      <path id="Path_13079" data-name="Path 13079" d="M305.57,816.806a3.891,3.891,0,0,1-2.323.487,28.559,28.559,0,0,0-3.453,2.674,6.38,6.38,0,0,0-1.37,2.573l-.341,0c.075-.269.162-.536.263-.8a6.861,6.861,0,0,1,.493-1.019.152.152,0,0,1-.042-.1.814.814,0,0,0-.13-.334,1.949,1.949,0,0,1-.146-.383,1.794,1.794,0,0,1-.006-.831c.045-.2.36-.117.315.084a1.453,1.453,0,0,0,.026.737c.052.169.146.318.208.48a6.2,6.2,0,0,1,.545-.694,11.754,11.754,0,0,1,1.944-1.567c.48-.331.987-.672,1.457-1.048a.15.15,0,0,1,.126-.1,5.029,5.029,0,0,0,1.707-2.307c.062-.2.376-.114.312.088A5.043,5.043,0,0,1,303.7,816.9c-.032.032-.068.062-.1.091a3.583,3.583,0,0,0,1.808-.464A.163.163,0,0,1,305.57,816.806Z" transform="translate(-284.765 -803.918)" fill="#ffceab"/>
    </g>
    <g id="Group_3640" data-name="Group 3640" transform="translate(191.544 62.9)">
      <rect id="Rectangle_744" data-name="Rectangle 744" width="77.481" height="129.062" rx="1" transform="translate(1.693 8.163)" fill="#fff"/>
      <g id="Group_3635" data-name="Group 3635" transform="translate(0 0)">
        <path id="Path_13080" data-name="Path 13080" d="M515.473,87.8H450.505a7.984,7.984,0,0,0-7.986,7.985v121.85a7.972,7.972,0,0,0,2.755,6.033l.17.144a7.94,7.94,0,0,0,5.061,1.808h64.968a7.993,7.993,0,0,0,7.99-7.985V95.789A7.988,7.988,0,0,0,515.473,87.8Zm6.3,126.723a8.636,8.636,0,0,1-8.868,8.385H453.079a8.637,8.637,0,0,1-8.868-8.385V103.694a5.371,5.371,0,0,1,5.516-5.214h66.528a5.371,5.371,0,0,1,5.515,5.214Z" transform="translate(-442.519 -87.804)" fill="#f87758"/>
      </g>
      <g id="Group_3639" data-name="Group 3639" transform="translate(7.737 3.024)">
        <g id="Group_3636" data-name="Group 3636">
          <path id="Path_13081" data-name="Path 13081" d="M491.088,107.348a2.57,2.57,0,1,1-2.57-2.57A2.571,2.571,0,0,1,491.088,107.348Z" transform="translate(-485.949 -104.778)" fill="#fff"/>
        </g>
        <g id="Group_3637" data-name="Group 3637" transform="translate(0.831 0.831)">
          <path id="Path_13082" data-name="Path 13082" d="M494.09,111.183a1.739,1.739,0,1,1-1.738-1.739A1.739,1.739,0,0,1,494.09,111.183Z" transform="translate(-490.613 -109.444)" fill="#f87758"/>
        </g>
        <g id="Group_3638" data-name="Group 3638" transform="translate(6.922 0.831)">
          <path id="Path_13083" data-name="Path 13083" d="M528.283,111.183a1.739,1.739,0,1,1-1.739-1.739A1.739,1.739,0,0,1,528.283,111.183Z" transform="translate(-524.806 -109.444)" fill="#fff"/>
        </g>
      </g>
    </g>
    <g id="Group_3641" data-name="Group 3641" transform="translate(208.186 91.346)">
      <path id="Path_13084" data-name="Path 13084" d="M559.926,247.48a23.992,23.992,0,1,0,23.992,23.992A24.019,24.019,0,0,0,559.926,247.48Zm-22.341,23.992a22.331,22.331,0,0,1,35.235-18.235L545.711,288.7A22.306,22.306,0,0,1,537.585,271.472Zm22.341,22.341a22.219,22.219,0,0,1-12.9-4.114l27.11-35.46a22.333,22.333,0,0,1-14.2,39.573Z" transform="translate(-535.934 -247.48)" fill="#db543a"/>
    </g>
    <path id="Path_13085" data-name="Path 13085" d="M603.493,623.588H569.929a.646.646,0,0,1-.646-.646h0a.646.646,0,0,1,.646-.646h33.564a.646.646,0,0,1,.646.646h0A.646.646,0,0,1,603.493,623.588Z" transform="translate(-355.156 -464.175)" fill="#f87758"/>
    <path id="Path_13086" data-name="Path 13086" d="M579.062,658.636H531.974a.646.646,0,0,1-.646-.646h0a.646.646,0,0,1,.646-.646h47.088a.646.646,0,0,1,.646.646h0A.646.646,0,0,1,579.062,658.636Z" transform="translate(-323.963 -492.98)" fill="#f87758"/>
    <g id="Group_3679" data-name="Group 3679" transform="translate(165.478 107.514)">
      <g id="Group_3649" data-name="Group 3649" transform="translate(13.844 39.46)">
        <g id="Group_3646" data-name="Group 3646" transform="translate(2.994)">
          <g id="Group_3643" data-name="Group 3643" transform="translate(0 2.329)">
            <g id="Group_3642" data-name="Group 3642">
              <path id="Path_13087" data-name="Path 13087" d="M399.164,572.8c-.96,13.722-2.362,26.355-2.246,38.021.023,2.29-.386,4.581-.449,6.728,0,0-2.523-.173-2.8-.148-.284-2.174-.705-4.452-.947-6.671-1.122-10.378-1.747-21.269-1.994-32.535Z" transform="translate(-390.723 -572.8)" fill="#ffceab"/>
            </g>
          </g>
          <g id="Group_3645" data-name="Group 3645">
            <g id="Group_3644" data-name="Group 3644">
              <path id="Path_13088" data-name="Path 13088" d="M399.142,559.727c4.926,6.605-3.352,21.4-1.759,40.519l-5.058-.08c-1.122-10.379-1.355-21.448-1.6-32.715Z" transform="translate(-390.723 -559.727)" fill="#23263d"/>
            </g>
          </g>
        </g>
        <g id="Group_3648" data-name="Group 3648" transform="translate(0 46.614)">
          <g id="Group_3647" data-name="Group 3647">
            <path id="Path_13089" data-name="Path 13089" d="M382.715,821.378l.857,2.358-.265,3.748-.735.074-.842-3.225-1.078,2.227a2.03,2.03,0,0,1-1.4,1.221c-1.728.316-5.125.552-5.325-.583-.206-1.166,3.087-1.388,3.982-2.727.867-1.3,1.9-2.99,1.9-2.99Z" transform="translate(-373.916 -821.378)" fill="#23263d"/>
          </g>
        </g>
      </g>
      <g id="Group_3654" data-name="Group 3654" transform="translate(6.026 32.993)">
        <g id="Group_3651" data-name="Group 3651" transform="translate(0.781 0.014)">
          <g id="Group_3650" data-name="Group 3650">
            <path id="Path_13090" data-name="Path 13090" d="M345.742,523.508c18.279,14.266-6.056,22.733-5.137,27.079s6.74,10.284,7.349,11.257c.344,1.143.788,3.4-.57,3.083a5.927,5.927,0,0,0-2.793-1.474s1.2.172-.4-.091-9.279-7.452-9.663-10.042c-1.063-7.166,5.629-12.743,7.854-17.956S343.934,527.8,345.742,523.508Z" transform="translate(-334.41 -523.508)" fill="#ffceab"/>
          </g>
        </g>
        <g id="Group_3652" data-name="Group 3652">
          <path id="Path_13091" data-name="Path 13091" d="M342.077,523.43a11.385,11.385,0,0,1,7.091,11.415c-.438,7.86-11.752,13.215-11.025,16.578.155.715,3.635,6.819,5.324,8.41a25.892,25.892,0,0,1-2.591,3.891c-2.677-1.534-10.167-7.152-10.729-10.105C328.765,546.344,339.692,530.472,342.077,523.43Z" transform="translate(-330.028 -523.43)" fill="#393d5c"/>
        </g>
        <g id="Group_3653" data-name="Group 3653" transform="translate(13.674 38.103)">
          <path id="Path_13092" data-name="Path 13092" d="M407.416,737.462a18.508,18.508,0,0,1,1.93-.145c.917.04,2.519.308,3.565.4.038.254.029.494.049.742-1.083.228-2.174.445-3.25.681.664.332,1.514.873,2.14,1.168A2.218,2.218,0,0,1,413,741.755c.241,1.266.634,4.891-.81,5.157s-1.558-3.215-2.533-3.938-1.927-1.491-2.87-2.237C406.991,739.642,407.207,738.557,407.416,737.462Z" transform="translate(-406.785 -737.311)" fill="#393d5c"/>
        </g>
      </g>
      <g id="Group_3657" data-name="Group 3657" transform="translate(0.807 14.451)">
        <g id="Group_3656" data-name="Group 3656">
          <g id="Group_3655" data-name="Group 3655">
            <path id="Path_13093" data-name="Path 13093" d="M318.29,419.349l-.2,1.22c.185-.437,4.2-2.042.012,8.1-.782,1.9-3.368,6.215-4.85,6.149-3.615-.161-10.069-8.138-10.069-8.138a5.8,5.8,0,0,1-2.408-5.013c.695-3.744,1.6,1.345,3.372,1.649.392.071.667-1.629,1.255-1,.442.475-.116,2.7-.116,2.7s6.915,4.946,7.069,4.928c.263-.248,3.1-8.887,5.083-10.2A2.721,2.721,0,0,1,318.29,419.349Z" transform="translate(-300.735 -419.349)" fill="#ffceab"/>
          </g>
        </g>
      </g>
      <g id="Group_3659" data-name="Group 3659" transform="translate(12.431 13.196)">
        <g id="Group_3658" data-name="Group 3658">
          <path id="Path_13094" data-name="Path 13094" d="M371.715,414.78l1.467,7.582s-2.09,4.287-2.357,5.15a14.156,14.156,0,0,1-4.845-4.343c1.294-2.287,4.082-9.547,6.069-10.864Z" transform="translate(-365.98 -412.305)" fill="#f87758"/>
        </g>
      </g>
      <g id="Group_3672" data-name="Group 3672" transform="translate(13.134)">
        <g id="Group_3660" data-name="Group 3660" transform="translate(0 1.708)">
          <path id="Path_13095" data-name="Path 13095" d="M371.269,354.909a4.043,4.043,0,0,1-1.088-4.374c.843-2.406,4.833-3.29,6.371-2.34a4.775,4.775,0,0,1,.277,7.857Z" transform="translate(-369.931 -347.821)" fill="#393d5c"/>
        </g>
        <g id="Group_3665" data-name="Group 3665" transform="translate(1.449 9.388)">
          <g id="Group_3662" data-name="Group 3662" transform="translate(0.7)">
            <g id="Group_3661" data-name="Group 3661">
              <path id="Path_13096" data-name="Path 13096" d="M393.169,398.113c1.239,4.367.871,6.961.92,10.776.152,2.945-1.927,7.646-3.367,11.123-2.642-.486-6.088-.6-8.732-1.087,0,0,6.731-7.746,5.058-11.523-3.058-7.137-1.841-12.664-1.841-12.664-.219-.425-1.018-1.99-1.25-2.443l2.316-1.365c.545.647,1.747,2.065,2.3,2.722A42.51,42.51,0,0,0,393.169,398.113Z" transform="translate(-381.99 -390.93)" fill="#ffceab"/>
            </g>
          </g>
          <g id="Group_3664" data-name="Group 3664" transform="translate(0 2.722)">
            <g id="Group_3663" data-name="Group 3663">
              <path id="Path_13097" data-name="Path 13097" d="M389.618,430.314c-.673,2.552.346,3.547-.2,3.739-3.207,1.134-8.579-.323-10.868-1.092-1.952-.656,2.637-6.508,1.52-12.751-1.751-9.792,1.906-12.914,1.906-12.914.242,2.442,1.531,1.553,3.368-1.085C393.069,408.1,393.311,418.809,389.618,430.314Z" transform="translate(-378.063 -406.211)" fill="#db543a"/>
            </g>
          </g>
        </g>
        <g id="Group_3667" data-name="Group 3667" transform="translate(4.115 9.388)" style="mix-blend-mode: multiply;isolation: isolate">
          <g id="Group_3666" data-name="Group 3666">
            <path id="Path_13098" data-name="Path 13098" d="M396.3,392.061a7.036,7.036,0,0,1-2.351,2.037l-.921-1.8,2.317-1.365Z" transform="translate(-393.032 -390.93)" fill="#e6e6e6"/>
          </g>
        </g>
        <g id="Group_3669" data-name="Group 3669" transform="translate(0.66 5.048)">
          <g id="Group_3668" data-name="Group 3668">
            <path id="Path_13099" data-name="Path 13099" d="M380.05,368.611s.913-1.194.244-1.863c-.762-.762-1.78,1.108-1.78,1.108-1.416.469-2.567.147-4.144-.73a.493.493,0,0,0-.724.523c.327,1.7,1.113,4.936,2.45,5.55a2.449,2.449,0,0,0,2.171-.135C379.745,372.327,380.057,368.766,380.05,368.611Z" transform="translate(-373.637 -366.565)" fill="#ffceab"/>
          </g>
        </g>
        <g id="Group_3670" data-name="Group 3670" transform="translate(5.875)">
          <path id="Path_13100" data-name="Path 13100" d="M402.911,340.031s.576-2.584,2.633-1.558a1.79,1.79,0,0,1-.413,3.448C403.714,342.073,402.911,340.031,402.911,340.031Z" transform="translate(-402.911 -338.232)" fill="#393d5c"/>
        </g>
        <g id="Group_3671" data-name="Group 3671" transform="translate(0.272 4.416)">
          <path id="Path_13101" data-name="Path 13101" d="M372.522,367.4s-.064-2.3-.223-3.293c0,0,.446,1.611,2.9,2a2.433,2.433,0,0,1,2,2.208,4.95,4.95,0,0,0-.479-3.374l-.856-1.412a8.841,8.841,0,0,1-1.321-.413c-.014-.081-2.529-.1-2.529-.1l-.56,1.373Z" transform="translate(-371.456 -363.021)" fill="#393d5c"/>
        </g>
      </g>
      <g id="Group_3674" data-name="Group 3674" transform="translate(10.288 19.646)">
        <g id="Group_3673" data-name="Group 3673">
          <path id="Path_13102" data-name="Path 13102" d="M366.834,464.164c-1.227,1.674-7.117,7.1-8.67,8.73a.766.766,0,0,0-.208.655c.08.505-.146.831-1.22,2.112-1.133,1.338.362,4.984-1.886,2.825-1.684-1.618-.7-4.031.567-6.374l7.2-11.356a67.165,67.165,0,0,0,.9-9.553c.037-1.189,3.218-4.923,5.874-.82C370.8,452.553,367.919,462.685,366.834,464.164Z" transform="translate(-353.954 -448.507)" fill="#ffceab"/>
        </g>
      </g>
      <g id="Group_3676" data-name="Group 3676" transform="translate(18.956 14.942)">
        <g id="Group_3675" data-name="Group 3675">
          <path id="Path_13103" data-name="Path 13103" d="M409.719,435.373a17.494,17.494,0,0,1-7.026-.893s-1.078-13.822,4.42-12.25C410.908,423.316,410.821,430.611,409.719,435.373Z" transform="translate(-402.608 -422.107)" fill="#f87758"/>
        </g>
      </g>
      <g id="Group_3678" data-name="Group 3678" transform="translate(0 12.116)">
        <g id="Group_3677" data-name="Group 3677" transform="translate(0 0)">
          <rect id="Rectangle_745" data-name="Rectangle 745" width="1.174" height="8.186" transform="translate(0 0.61) rotate(-31.317)" fill="#393d5c"/>
        </g>
      </g>
    </g>
    <path id="Path_13104" data-name="Path 13104" d="M264.816,222.7a10.224,10.224,0,0,1,8.711,15.576l2.274,5.4-6.452-1.589a10.224,10.224,0,1,1-4.532-19.388Z" transform="translate(-96.528 -135.771)" fill="#f87758"/>
    <path id="Path_13105" data-name="Path 13105" d="M293.341,255.818l-3.062-.844.084-.306a3.925,3.925,0,0,1,.527-1.22,2.918,2.918,0,0,1,.773-.745,16.872,16.872,0,0,1,1.966-.984q.8-.352.922-.8a.932.932,0,0,0-.072-.761,1.165,1.165,0,0,0-.726-.465,1.324,1.324,0,0,0-1.051.118,2.3,2.3,0,0,0-.844,1.19l-3.02-1.249a4.416,4.416,0,0,1,2.018-2.431,4.843,4.843,0,0,1,3.638-.128,5.144,5.144,0,0,1,2.634,1.515,3.162,3.162,0,0,1,.738,3.047,2.644,2.644,0,0,1-.743,1.217,6.753,6.753,0,0,1-1.976,1.129,4.306,4.306,0,0,0-1.313.752A2.2,2.2,0,0,0,293.341,255.818Zm-3.391-.059,3.28.9-.8,2.893-3.28-.9Z" transform="translate(-124.674 -155.669)" fill="#fff"/>
    <g id="Group_3681" data-name="Group 3681" transform="translate(293.46 65.468)">
      <path id="Path_13106" data-name="Path 13106" d="M1029.318,103.211a10.229,10.229,0,1,0,5.179,13.678A10.343,10.343,0,0,0,1029.318,103.211Zm-7.948,17.122a8.551,8.551,0,1,1,11.528-4.073A8.647,8.647,0,0,1,1021.371,120.332Z" transform="translate(-1014.594 -102.216)" fill="#f87758"/>
      <g id="Group_3680" data-name="Group 3680" transform="translate(6.668 4.917)">
        <path id="Path_13107" data-name="Path 13107" d="M1058.18,133.559l-6.159-3.743,1.351,7.061,6.248,3.746-1.438-7.062h0v0Z" transform="translate(-1052.021 -129.816)" fill="#db543a"/>
        <path id="Path_13108" data-name="Path 13108" d="M1068.479,153.154a1.223,1.223,0,1,1-1.7-.3A1.223,1.223,0,0,1,1068.479,153.154Z" transform="translate(-1063.72 -148.569)" fill="#fff"/>
      </g>
    </g>
    <g id="Group_3682" data-name="Group 3682" transform="translate(261.124 109.889)">
      <path id="Path_13109" data-name="Path 13109" d="M877.65,388.864c-1.252-2.745-3.039-5.232-4.16-8.033-2.073-5.18-1.713-10.975-2.674-16.471s-4.031-11.4-9.481-12.59c-4.039-.885-8.285,1.2-11.007,4.309s-4.185,7.111-5.393,11.066c-.857,2.807-1.7,5.794-3.845,7.8-1.437,1.347-3.331,2.12-4.8,3.432a10.668,10.668,0,0,0-3.186,8.461,20.488,20.488,0,0,0,2.857,8.812,22.51,22.51,0,0,1,2.416,5.029c.643,2.441.2,5.027.423,7.542A14.21,14.21,0,0,0,856.591,420.7c7.018,4.017,19.167-1.672,19.647-10.1C876.668,403.047,880.788,395.744,877.65,388.864Z" transform="translate(-833.089 -351.564)" fill="#fc8872"/>
      <path id="Path_13110" data-name="Path 13110" d="M903.52,388.864c-1.252-2.745-3.039-5.232-4.16-8.034-2.073-5.18-1.713-10.975-2.674-16.471s-4.031-11.4-9.481-12.59c-4.039-.885-8.285,1.2-11.008,4.309-.316.361-.614.736-.9,1.12a23.24,23.24,0,0,0,1.23,4.362c1.121,2.8,2.907,5.288,4.16,8.034,3.138,6.88-.982,14.183-1.411,21.732-.379,6.664-8.047,11.613-14.711,11.413.127,1.811-.058,3.665.1,5.483A14.211,14.211,0,0,0,882.461,420.7c7.018,4.017,19.167-1.672,19.647-10.1C902.537,403.047,906.658,395.744,903.52,388.864Z" transform="translate(-858.959 -351.564)" fill="#f78069"/>
      <path id="Path_13111" data-name="Path 13111" d="M906.01,388.932c-1.252-2.745-3.039-5.232-4.16-8.034-2.073-5.18-1.713-10.975-2.674-16.471s-4.031-11.4-9.481-12.59a8.843,8.843,0,0,0-1.421-.19,23.228,23.228,0,0,1,.636,2.685c.961,5.5.6,11.291,2.674,16.471,1.121,2.8,2.907,5.288,4.159,8.034,3.139,6.88-.982,14.183-1.411,21.733-.479,8.432-12.628,14.12-19.647,10.1a14.325,14.325,0,0,1-7.089.023,14.189,14.189,0,0,0,17.354,10.073c7.018,4.017,19.167-1.672,19.647-10.1C905.028,403.115,909.148,395.812,906.01,388.932Z" transform="translate(-861.449 -351.632)" fill="#f87758"/>
      <path id="Path_13112" data-name="Path 13112" d="M930.806,480.576c-2.29,2.2-4.471,4.516-6.573,6.9V474.29a.5.5,0,0,0-1,0v14.363a.483.483,0,0,0,0,.292v15.376l-7.718-10.559c-.377-.516-1.248-.016-.866.507L923,505.7a.5.5,0,0,0,.23.171v36.17a.5.5,0,0,0,1,0V488.97q3.467-4,7.283-7.684C931.981,480.837,931.271,480.128,930.806,480.576Z" transform="translate(-900.037 -452.028)" fill="#004057"/>
    </g>
    <g id="Group_3683" data-name="Group 3683" transform="translate(137.14 200.126)">
      <rect id="Rectangle_746" data-name="Rectangle 746" width="182.095" height="0.518" rx="0.259" transform="translate(12.04)" fill="#282d47"/>
      <rect id="Rectangle_747" data-name="Rectangle 747" width="8.892" height="0.518" rx="0.259" fill="#30334d"/>
      <rect id="Rectangle_748" data-name="Rectangle 748" width="8.892" height="0.518" rx="0.259" transform="translate(157.041 7.395)" fill="#30334d"/>
      <rect id="Rectangle_749" data-name="Rectangle 749" width="35.292" height="0.518" rx="0.259" transform="translate(115.811 7.395)" fill="#30334d"/>
    </g>
    <g id="Group_3684" data-name="Group 3684" transform="translate(309.226 124.774)">
      <path id="Path_13113" data-name="Path 13113" d="M1105.527,436.469a.468.468,0,0,1-.268.694l-1.568.457a.468.468,0,0,1-.586-.561l.388-1.587a.468.468,0,0,1,.778-.227l1.18,1.13A.471.471,0,0,1,1105.527,436.469Zm-2.052.753a.1.1,0,0,0,.016.02.1.1,0,0,0,.1.024l1.568-.457a.1.1,0,0,0,.041-.167l-1.18-1.129a.1.1,0,0,0-.165.048l-.388,1.587A.094.094,0,0,0,1103.475,437.223Z" transform="translate(-1103.091 -435.116)" fill="#f87758"/>
    </g>
    <g id="Group_3685" data-name="Group 3685" transform="translate(146.032 102.625)">
      <path id="Path_13114" data-name="Path 13114" d="M189.489,312.143a.469.469,0,0,1-.268.694l-1.568.457a.468.468,0,0,1-.586-.56l.388-1.587a.468.468,0,0,1,.778-.227l1.18,1.129A.481.481,0,0,1,189.489,312.143Zm-2.052.754a.1.1,0,0,0,.016.02.1.1,0,0,0,.1.024l1.568-.457a.1.1,0,0,0,.041-.167l-1.18-1.129a.1.1,0,0,0-.165.048l-.388,1.587A.094.094,0,0,0,187.436,312.9Z" transform="translate(-187.053 -310.79)" fill="#f87758"/>
    </g>
    <g id="Group_3686" data-name="Group 3686" transform="translate(285.644 80.284)">
      <path id="Path_13115" data-name="Path 13115" d="M972.348,186.533l.577-.577a.335.335,0,0,0-.474-.474l-.577.577-.577-.577a.335.335,0,0,0-.474.474l.577.577-.576.576a.335.335,0,0,0,.474.474l.576-.576.576.576a.335.335,0,0,0,.474-.474Z" transform="translate(-970.725 -185.384)" fill="#f87758"/>
    </g>
    <g id="Group_3687" data-name="Group 3687" transform="translate(185.388 61.751)">
      <path id="Path_13116" data-name="Path 13116" d="M409.587,82.505l.577-.577a.335.335,0,1,0-.474-.474l-.577.577-.577-.577a.335.335,0,1,0-.474.474l.577.577-.576.576a.335.335,0,1,0,.474.474l.576-.576.576.576a.335.335,0,1,0,.474-.474Z" transform="translate(-407.964 -81.356)" fill="#f87758"/>
    </g>
    <g id="Group_3688" data-name="Group 3688" transform="translate(321.337 96.104)">
      <path id="Path_13117" data-name="Path 13117" d="M1172.393,276.817a1.318,1.318,0,1,1,1.318-1.318A1.319,1.319,0,0,1,1172.393,276.817Zm0-2.223a.905.905,0,1,0,.905.905A.906.906,0,0,0,1172.393,274.594Z" transform="translate(-1171.075 -274.182)" fill="#f87758"/>
    </g>
    <g id="Group_3689" data-name="Group 3689" transform="translate(158.039 153.816)">
      <path id="Path_13118" data-name="Path 13118" d="M255.77,600.767a1.318,1.318,0,1,1,1.317-1.317A1.319,1.319,0,0,1,255.77,600.767Zm0-2.223a.905.905,0,1,0,.905.905A.906.906,0,0,0,255.77,598.544Z" transform="translate(-254.452 -598.132)" fill="#f87758"/>
    </g>
    <g id="Group_3691" data-name="Group 3691" transform="translate(254.185 57.502)">
      <path id="Path_13119" data-name="Path 13119" d="M819.1,78.065,807.5,57.975a.948.948,0,0,0-1.641,0l-11.6,20.089a.948.948,0,0,0,.821,1.421h23.2A.948.948,0,0,0,819.1,78.065Z" transform="translate(-794.136 -57.502)" fill="#db543a"/>
      <path id="Path_13120" data-name="Path 13120" d="M825.919,87.093,815.806,69.578a.562.562,0,0,0-.974,0L804.72,87.093a.562.562,0,0,0,.487.843h20.225A.562.562,0,0,0,825.919,87.093Z" transform="translate(-802.772 -67.195)" fill="#fff"/>
      <path id="Path_13121" data-name="Path 13121" d="M825.923,87.093,815.811,69.578a.562.562,0,0,0-.974,0l-.054.094,9.723,16.841a.562.562,0,0,1-.487.843H804.65a.562.562,0,0,0,.562.58h20.225A.562.562,0,0,0,825.923,87.093Z" transform="translate(-802.776 -67.195)" fill="#dde4f0"/>
      <g id="Group_3690" data-name="Group 3690" transform="translate(10.899 6.69)">
        <path id="Path_13122" data-name="Path 13122" d="M856.963,104.622a1.016,1.016,0,0,1-1.007-.925l-.638-7.55a1.011,1.011,0,0,1,1.007-1.1H857.6a1.01,1.01,0,0,1,1.007,1.1l-.638,7.55A1.017,1.017,0,0,1,856.963,104.622Z" transform="translate(-855.314 -95.051)" fill="#dde4f0"/>
        <path id="Path_13123" data-name="Path 13123" d="M859.11,96.887h-1.276a.683.683,0,0,0-.681.741l.638,7.55a.683.683,0,0,0,1.362,0l.638-7.55A.683.683,0,0,0,859.11,96.887Z" transform="translate(-856.824 -96.56)" fill="#f87758"/>
        <path id="Path_13124" data-name="Path 13124" d="M859.292,153.145A1.143,1.143,0,1,1,860.436,152,1.145,1.145,0,0,1,859.292,153.145Z" transform="translate(-857.644 -140.916)" fill="#dde4f0"/>
        <path id="Path_13125" data-name="Path 13125" d="M859.985,153.51a.816.816,0,1,1,.816.816A.816.816,0,0,1,859.985,153.51Z" transform="translate(-859.153 -142.425)" fill="#f87758"/>
      </g>
    </g>
  </g>
</svg>
