<svg id="appleicon-01" xmlns="http://www.w3.org/2000/svg" width="166" height="166" viewBox="0 0 166 166">
  <rect id="Rectangle_49" data-name="Rectangle 49" width="166" height="166" rx="24" fill="#fff"/>
  <g id="Group_6584" data-name="Group 6584" transform="translate(-0.745 6)">
    <path id="Path_4851" data-name="Path 4851" d="M98.17,55.711c-6.246,0-8.885,3.067-13.235,3.067-4.461,0-7.863-3.048-13.272-3.048-5.3,0-10.948,3.327-14.536,9C52.09,72.723,52.945,87.779,61.1,100.6c2.918,4.591,6.822,9.74,11.934,9.8h.093c4.443,0,5.762-2.993,11.878-3.03H85.1c6.023,0,7.231,3.011,11.655,3.011h.094c5.112-.056,9.22-5.762,12.138-10.335a50.841,50.841,0,0,0,4.5-8.662c-11.8-4.61-13.7-21.823-2.026-28.421-3.569-4.591-8.569-7.249-13.291-7.249Z" fill="#f87758"/>
    <path id="Path_4852" data-name="Path 4852" d="M96.95,39.126A16.254,16.254,0,0,0,86.35,45c-2.3,2.881-4.2,7.156-3.457,11.3h.3c3.959,0,8.012-2.454,10.372-5.6A15.832,15.832,0,0,0,96.95,39.126Z" fill="#f87758"/>
  </g>
</svg>
