<svg xmlns="http://www.w3.org/2000/svg" width="170.236" height="165.984" viewBox="0 0 170.236 165.984">
  <g id="audio_questions" transform="translate(-164.882 -122.092)">
    <g id="headphone">
      <path id="Path_12828" data-name="Path 12828" d="M191.055,194.182v45.989a2.977,2.977,0,0,1-3.321,2.97,26.176,26.176,0,0,1,0-51.929A2.977,2.977,0,0,1,191.055,194.182Z" fill="#f98064"/>
      <path id="Path_12829" data-name="Path 12829" d="M198.985,245.816h0a4.12,4.12,0,0,1-4.119-4.12V192.657a4.119,4.119,0,0,1,4.119-4.119h0a4.119,4.119,0,0,1,4.119,4.119V241.7A4.12,4.12,0,0,1,198.985,245.816Z" fill="#f98064"/>
      <path id="Path_12830" data-name="Path 12830" d="M317.467,189.559c0,1.725-.068,3.428-.189,5.124h-6.457c.152-1.688.22-3.4.22-5.124a61.191,61.191,0,0,0-1.975-15.448h-5.722a55.54,55.54,0,0,0-106.688,0h-5.722a61.19,61.19,0,0,0-1.975,15.448c0,1.725.068,3.436.22,5.124h-6.457c-.121-1.7-.189-3.4-.189-5.124a67.467,67.467,0,0,1,134.934,0Z" fill="#f98064"/>
      <path id="Path_12831" data-name="Path 12831" d="M308.945,194.182v45.989a2.977,2.977,0,0,0,3.321,2.97,26.176,26.176,0,0,0,0-51.929A2.977,2.977,0,0,0,308.945,194.182Z" fill="#f98064"/>
      <path id="Path_12832" data-name="Path 12832" d="M301.015,245.816h0a4.12,4.12,0,0,0,4.119-4.12V192.657a4.119,4.119,0,0,0-4.119-4.119h0a4.119,4.119,0,0,0-4.119,4.119V241.7A4.12,4.12,0,0,0,301.015,245.816Z" fill="#f98064"/>
    </g>
    <g id="mice">
      <path id="Path_12833" data-name="Path 12833" d="M258.894,186.7H241.106a1.892,1.892,0,1,1,0-3.784h17.788a1.892,1.892,0,1,1,0,3.784Z" fill="#f98064"/>
      <path id="Path_12834" data-name="Path 12834" d="M254.817,178.876h-9.634a1.892,1.892,0,0,1,0-3.784h9.634a1.892,1.892,0,1,1,0,3.784Z" fill="#f98064"/>
      <path id="Path_12835" data-name="Path 12835" d="M263.732,194.528H236.268a1.892,1.892,0,0,1,0-3.784h27.464a1.892,1.892,0,1,1,0,3.784Z" fill="#f98064"/>
      <path id="Path_12836" data-name="Path 12836" d="M263.732,202.582H236.268a1.892,1.892,0,0,1,0-3.784h27.464a1.892,1.892,0,0,1,0,3.784Z" fill="#f98064"/>
      <path id="Path_12837" data-name="Path 12837" d="M217.844,214.024h-4.383a2.364,2.364,0,0,1-2.365-2.364h0a2.365,2.365,0,0,1,2.365-2.365h4.383a2.364,2.364,0,0,1,2.364,2.365h0A2.363,2.363,0,0,1,217.844,214.024Z" fill="#f98064"/>
      <path id="Path_12838" data-name="Path 12838" d="M286.2,214.024h-4.383a2.364,2.364,0,0,1-2.364-2.364h0a2.364,2.364,0,0,1,2.364-2.365H286.2a2.365,2.365,0,0,1,2.365,2.365h0A2.364,2.364,0,0,1,286.2,214.024Z" fill="#f98064"/>
      <path id="Path_12840" data-name="Path 12840" d="M250,165.233a25.357,25.357,0,0,0-25.355,25.355v37.563a25.355,25.355,0,0,0,50.71,0V190.588A25.357,25.357,0,0,0,250,165.233Zm21.571,62.918a21.571,21.571,0,0,1-43.142,0V190.588a21.571,21.571,0,0,1,43.142,0Z" fill="#f98064"/>
      <path id="Path_12841" data-name="Path 12841" d="M281.463,209.366v18.21a31.463,31.463,0,0,1-62.926,0v-18.21h-5.3v18.21a36.761,36.761,0,0,0,73.522,0v-18.21Z" fill="#f98064"/>
      <path id="Path_12842" data-name="Path 12842" d="M275.355,209.32v18.831a25.355,25.355,0,0,1-50.71,0V209.32Z" fill="#f98064"/>
      <rect id="Rectangle_669" data-name="Rectangle 669" width="9.634" height="14.232" transform="translate(245.183 264.01)" fill="#f98064"/>
      <path id="Path_12843" data-name="Path 12843" d="M235.32,284.515h0a3.56,3.56,0,0,1,3.561-3.56h22.238a3.561,3.561,0,0,1,3.561,3.56h0a3.561,3.561,0,0,1-3.561,3.561H238.881A3.561,3.561,0,0,1,235.32,284.515Z" fill="#f98064"/>
    </g>
  </g>
</svg>
