<svg xmlns="http://www.w3.org/2000/svg" width="131.933" height="85.742" viewBox="0 0 131.933 85.742">
  <g id="audience_poll" transform="translate(0)">
    <path id="Path_11507" data-name="Path 11507" d="M76.538,73.715C73.247,72.54,67.87,72.481,65.49,71.57c-1.645-.646-4.261-1.352-5.113-2.38s-.852-8.374-.852-8.374A13.528,13.528,0,0,0,62.434,56.7c.852-2.145,1.41-8.081,1.41-8.081s1.939.823,2.7-3.056c.646-3.35,1.881-5.113,1.557-7.581-.353-2.468-1.7-1.881-1.7-1.881s1.7-2.5,1.7-10.99c0-8.756-6.611-17.366-18.982-17.366-12.341,0-19.011,8.639-19.011,17.366,0,8.492,1.675,10.99,1.675,10.99s-1.381-.588-1.7,1.881c-.353,2.468.882,4.231,1.557,7.581.764,3.908,2.7,3.056,2.7,3.056s.558,5.906,1.41,8.081a13.528,13.528,0,0,0,2.909,4.114s0,7.346-.852,8.374-3.467,1.734-5.113,2.351c-2.351.911-7.728,1.028-11.048,2.2A20.737,20.737,0,0,0,8.191,93.491H89.967A20.7,20.7,0,0,0,76.538,73.715Z" transform="translate(16.785 -7.748)" fill="#434b5d"/>
    <path id="Path_11508" data-name="Path 11508" d="M34.1,48.408s7.023-.235,9.814-2.733C39.356,38.77,41.824,30.719,40.884,23.2c-.94-7.493-5.2-11.989-13.722-11.989h-.118c-8.227,0-12.664,4.466-13.6,11.989-.94,7.493,1.675,16.455-3,22.479,2.791,2.527,9.844,2.439,9.844,2.439h0s.294,4.231-.294,4.936a7.42,7.42,0,0,1-3.526,1.616,68.178,68.178,0,0,0-7.61,2.116c-2.292.793-6.641,5.054-6.641,10.931h23.6c.646-2.351,5.083-6.553,9.4-8.756,2.645-1.352,5.26-1.263,7.258-1.528,0,0,1.117-1.763-2.556-2.439,0,0-5.054-1.264-5.642-1.969C33.714,52.375,34.1,48.408,34.1,48.408Z" transform="translate(-2.215 3.249)" fill="#434b5d"/>
    <path id="Path_11509" data-name="Path 11509" d="M33.622,48.408s-7.023-.235-9.814-2.733c4.554-6.905,2.086-14.956,3.027-22.479.94-7.493,5.2-11.989,13.722-11.989h.118c8.227,0,12.664,4.466,13.6,11.989.94,7.493-1.675,16.455,3,22.479-2.791,2.527-9.844,2.439-9.844,2.439h0s-.294,4.231.294,4.936a7.42,7.42,0,0,0,3.526,1.616,68.178,68.178,0,0,1,7.61,2.116c2.292.793,6.641,5.054,6.641,10.931h-23.6c-.646-2.351-5.083-6.553-9.4-8.756-2.645-1.352-5.26-1.263-7.258-1.528,0,0-1.117-1.763,2.556-2.439,0,0,5.054-1.264,5.642-1.969C34,52.375,33.622,48.408,33.622,48.408Z" transform="translate(66.43 3.249)" fill="#434b5d"/>
  </g>
</svg>
