<svg width="306" height="241" viewBox="0 0 306 241" fill="none" xmlns="http://www.w3.org/2000/svg">
<g opacity="0.5">
<path d="M38.1818 108.04C37.9498 108.04 37.7234 107.969 37.5323 107.838C37.3413 107.706 37.1946 107.519 37.1118 107.302C35.5821 103.292 33.5672 100.72 31.3294 99.8044C31.1261 100.605 30.8464 101.384 30.4941 102.13C30.1718 102.839 29.699 103.468 29.1084 103.975C28.5178 104.482 27.8238 104.854 27.0748 105.065C26.3445 105.304 25.5563 105.3 24.8286 105.053C24.1008 104.806 23.4729 104.33 23.0392 103.695C22.756 103.24 22.6117 102.712 22.6242 102.177C22.6367 101.641 22.8055 101.12 23.1096 100.679C23.7774 99.6111 24.7035 98.7287 25.8024 98.1133C26.9012 97.4979 28.1374 97.1692 29.3967 97.1577C29.3073 93.6019 27.9366 90.1983 25.5372 87.5727L25.3808 87.4669C24.8827 89.0458 23.9193 90.4375 22.6167 91.4594C19.5338 93.8851 16.4293 94.3331 13.6398 92.7525C12.6855 92.2065 11.954 91.3417 11.5741 90.3099C11.1941 89.2781 11.19 88.1454 11.5624 87.1108C11.865 86.0573 12.4127 85.0904 13.1607 84.2891C13.9087 83.4877 14.8357 82.8747 15.866 82.5003C18.4544 81.8908 21.1784 82.3161 23.4578 83.6856C23.4976 82.035 23.1827 80.395 22.5344 78.8764C21.8861 77.3578 20.9196 75.996 19.7 74.8829C15.0267 71.0234 7.45831 72.5356 7.37615 72.5552C7.08081 72.6119 6.77508 72.5501 6.52475 72.3835C6.27441 72.2168 6.09957 71.9584 6.03797 71.664C5.97638 71.3696 6.03295 71.0629 6.19545 70.8099C6.35796 70.5568 6.61338 70.3777 6.90669 70.3113C7.26076 70.2369 15.6097 68.5509 21.1437 73.1068C24.2736 75.6811 25.8228 79.6774 25.7661 84.9904C26.1508 85.2303 26.5421 85.4859 26.9398 85.7571C27.0049 85.8017 27.0651 85.8529 27.1198 85.9097C30.0451 89.0648 31.6758 93.2054 31.6875 97.508C34.1268 98.2904 37.0101 100.605 39.2597 106.506C39.326 106.68 39.3491 106.867 39.3271 107.051C39.305 107.236 39.2384 107.412 39.1332 107.565C39.0279 107.718 38.887 107.843 38.7227 107.929C38.5583 108.016 38.3754 108.061 38.1897 108.062L38.1818 108.04ZM29.0486 99.4484C28.6855 99.4803 28.3268 99.5506 27.9785 99.6578C25.8834 100.297 24.8174 101.952 24.9172 102.383C25.0829 102.631 25.3296 102.813 25.6152 102.899C25.9007 102.984 26.2073 102.968 26.4821 102.852C26.9096 102.727 27.3046 102.511 27.6397 102.217C27.9749 101.924 28.2421 101.561 28.4226 101.154C28.6799 100.604 28.8886 100.033 29.0466 99.4465L29.0486 99.4484ZM17.961 84.4662C17.4887 84.4614 17.0186 84.5313 16.5682 84.6735C15.875 84.9427 15.2557 85.3727 14.7612 85.9281C14.2667 86.4835 13.9111 87.1484 13.7239 87.868C13.5311 88.3948 13.5302 88.9726 13.7213 89.4999C13.9123 90.0273 14.2831 90.4704 14.7685 90.7514C16.711 91.8508 18.8765 91.4811 21.1985 89.652C22.2984 88.7933 23.0603 87.5742 23.3502 86.2092C21.7239 85.1948 19.8732 84.5957 17.961 84.4643V84.4662Z" fill="#342C2B"/>
<path d="M246.089 108.038C245.902 108.038 245.718 107.993 245.553 107.906C245.388 107.818 245.246 107.692 245.141 107.538C245.036 107.384 244.97 107.206 244.949 107.021C244.928 106.835 244.953 106.647 245.021 106.473C247.466 100.125 250.58 97.6705 253.197 96.8704C253.205 92.2484 254.964 87.8009 258.119 84.4233C258.173 84.3663 258.234 84.3152 258.299 84.2707C258.74 83.972 259.173 83.6912 259.6 83.4277C259.6 83.3925 259.6 83.3553 259.6 83.3181C259.57 77.6453 261.257 73.3963 264.61 70.6694C270.541 65.8475 279.439 67.6805 279.813 67.7607C280.104 67.8298 280.357 68.0101 280.517 68.2632C280.677 68.5162 280.732 68.8218 280.67 69.1147C280.607 69.4076 280.433 69.6644 280.183 69.8303C279.934 69.9962 279.63 70.0581 279.336 70.0025C279.254 69.9849 271.119 68.3242 266.047 72.4556C264.698 73.6731 263.631 75.1689 262.917 76.8398C262.203 78.5106 261.861 80.3164 261.914 82.1325C264.379 80.6347 267.334 80.1661 270.141 80.8278C271.233 81.2313 272.213 81.8869 273.003 82.7412C273.792 83.5955 274.369 84.6243 274.686 85.7438C275.075 86.8375 275.067 88.0334 274.663 89.1217C274.258 90.21 273.483 91.121 272.473 91.6944C269.52 93.3552 266.237 92.8799 262.98 90.3252C261.548 89.198 260.501 87.6539 259.983 85.9061L259.7 86.1017C257.112 88.9723 255.627 92.6675 255.507 96.5301C256.857 96.5367 258.183 96.8859 259.36 97.5452C260.537 98.2046 261.528 99.1525 262.239 100.3C262.556 100.761 262.731 101.305 262.744 101.865C262.756 102.424 262.605 102.976 262.309 103.451C261.852 104.118 261.19 104.618 260.424 104.877C259.658 105.136 258.829 105.138 258.061 104.885C257.267 104.658 256.533 104.26 255.91 103.719C255.286 103.179 254.788 102.508 254.451 101.755C254.064 100.928 253.761 100.064 253.546 99.1766C251.529 99.9337 249.175 102.08 247.167 107.293C247.085 107.512 246.937 107.701 246.744 107.835C246.552 107.968 246.323 108.039 246.089 108.038V108.038ZM255.825 98.8442C255.995 99.5168 256.229 100.172 256.523 100.8C256.72 101.25 257.013 101.65 257.381 101.975C257.75 102.299 258.185 102.539 258.655 102.678C258.973 102.81 259.327 102.825 259.655 102.721C259.983 102.617 260.264 102.4 260.447 102.109C260.582 101.718 259.555 99.9728 257.407 99.1747C256.898 98.9871 256.364 98.8744 255.823 98.8402L255.825 98.8442ZM262.027 84.6718C262.331 86.1996 263.169 87.569 264.392 88.5333C266.896 90.4992 269.236 90.8943 271.347 89.707C271.887 89.3971 272.3 88.9068 272.515 88.3222C272.73 87.7377 272.732 87.0963 272.52 86.5105C272.317 85.7241 271.931 84.9973 271.392 84.3896C270.854 83.7819 270.178 83.3106 269.422 83.0149C267.602 82.4143 265.079 82.9855 262.027 84.6678V84.6718Z" fill="#342C2B"/>
<path d="M291.695 9.93826C291.483 9.93841 291.274 9.88897 291.085 9.79403C290.896 9.6991 290.732 9.56133 290.606 9.39155C290.479 9.22178 290.395 9.02482 290.358 8.81643C290.322 8.60803 290.334 8.39395 290.395 8.1914L292.569 0.965259C292.673 0.620771 292.909 0.331712 293.226 0.161493C293.543 -0.0087269 293.915 -0.0461425 294.259 0.057619C294.604 0.16138 294.893 0.397808 295.063 0.714768C295.233 1.03173 295.27 1.40328 295.167 1.74777L292.993 8.97391C292.909 9.25291 292.737 9.49735 292.504 9.67106C292.27 9.84477 291.986 9.93847 291.695 9.93826V9.93826Z" fill="#342C2B"/>
<path d="M285.273 31.2996C285.061 31.2998 284.852 31.2504 284.663 31.1554C284.474 31.0605 284.31 30.9226 284.184 30.7528C284.058 30.583 283.973 30.3861 283.936 30.1777C283.9 29.9693 283.913 29.7553 283.974 29.5528L286.147 22.3247C286.25 21.9802 286.487 21.6911 286.804 21.5208C287.121 21.3506 287.492 21.3133 287.837 21.4171C288.181 21.5209 288.471 21.7572 288.641 22.0741C288.811 22.3911 288.848 22.7626 288.745 23.1071L286.571 30.3333C286.487 30.6125 286.316 30.8572 286.082 31.0312C285.848 31.2053 285.564 31.2994 285.273 31.2996V31.2996Z" fill="#342C2B"/>
<path d="M296.07 13.5083C295.77 13.506 295.479 13.4044 295.243 13.2193C295.007 13.0341 294.84 12.776 294.766 12.4853C294.693 12.1946 294.717 11.8877 294.837 11.6127C294.956 11.3376 295.163 11.11 295.426 10.9653L302.077 7.39135C302.234 7.30709 302.406 7.25456 302.583 7.23673C302.76 7.2189 302.939 7.23616 303.109 7.28747C303.28 7.33879 303.439 7.42317 303.576 7.53582C303.714 7.64846 303.829 7.7872 303.913 7.94403C303.997 8.10086 304.05 8.27265 304.067 8.44978C304.085 8.62692 304.068 8.80584 304.017 8.97631C303.965 9.14679 303.881 9.30553 303.768 9.44339C303.656 9.58125 303.517 9.69558 303.36 9.77984L296.709 13.3537C296.512 13.4573 296.293 13.5104 296.07 13.5083V13.5083Z" fill="#342C2B"/>
<path d="M276.427 24.0657C276.127 24.0634 275.837 23.9617 275.601 23.7766C275.365 23.5915 275.197 23.3334 275.123 23.0427C275.05 22.752 275.075 22.4451 275.195 22.17C275.314 21.895 275.521 21.6674 275.784 21.5227L282.435 17.9487C282.591 17.8645 282.763 17.8119 282.94 17.7941C283.118 17.7763 283.297 17.7935 283.467 17.8448C283.638 17.8962 283.796 17.9805 283.934 18.0932C284.072 18.2058 284.186 18.3446 284.27 18.5014C284.355 18.6582 284.407 18.8301 284.425 19.0073C284.443 19.1844 284.426 19.3633 284.375 19.5338C284.323 19.7043 284.239 19.8629 284.126 20.0008C284.014 20.1386 283.875 20.253 283.718 20.3372L277.067 23.9112C276.87 24.0145 276.65 24.0676 276.427 24.0657V24.0657Z" fill="#342C2B"/>
<path d="M303.862 21.2977C303.729 21.2975 303.597 21.2777 303.47 21.2391L296.245 19.0657C296.074 19.0143 295.915 18.9299 295.777 18.8171C295.639 18.7044 295.525 18.5656 295.44 18.4087C295.356 18.2518 295.304 18.0797 295.286 17.9025C295.268 17.7252 295.285 17.5461 295.337 17.3756C295.388 17.205 295.473 17.0462 295.586 16.9083C295.698 16.7703 295.837 16.656 295.994 16.5717C296.151 16.4874 296.323 16.4349 296.5 16.4171C296.677 16.3993 296.856 16.4166 297.027 16.4679L304.253 18.6413C304.565 18.7345 304.833 18.9372 305.008 19.212C305.183 19.4868 305.253 19.8154 305.206 20.1378C305.158 20.4601 304.997 20.7546 304.75 20.9672C304.503 21.1799 304.187 21.2966 303.862 21.2958V21.2977Z" fill="#342C2B"/>
<path d="M282.508 14.8776C282.375 14.8772 282.243 14.8575 282.116 14.8189L274.89 12.6456C274.719 12.595 274.559 12.5111 274.42 12.3986C274.281 12.2861 274.166 12.1472 274.081 11.99C273.996 11.8328 273.943 11.6603 273.925 11.4826C273.907 11.3048 273.924 11.1252 273.976 10.9541C274.027 10.783 274.112 10.6238 274.225 10.4856C274.339 10.3475 274.478 10.2331 274.636 10.149C274.794 10.065 274.967 10.0129 275.145 9.99586C275.323 9.97882 275.502 9.99713 275.672 10.0497L282.901 12.2231C283.213 12.3163 283.481 12.5189 283.656 12.7938C283.831 13.0686 283.901 13.3973 283.854 13.7197C283.806 14.042 283.644 14.3365 283.397 14.5491C283.15 14.7618 282.835 14.8783 282.509 14.8776H282.508Z" fill="#342C2B"/>
<path d="M296.638 30.1454C296.393 30.1456 296.152 30.0794 295.941 29.9537C295.731 29.828 295.558 29.6474 295.442 29.4315L291.869 22.7806C291.784 22.6237 291.732 22.4518 291.714 22.2747C291.696 22.0976 291.713 21.9186 291.764 21.7482C291.816 21.5777 291.9 21.4189 292.013 21.2811C292.125 21.1432 292.264 21.0289 292.421 20.9446C292.578 20.8604 292.75 20.8078 292.927 20.79C293.104 20.7722 293.283 20.7894 293.454 20.8408C293.624 20.8921 293.783 20.9765 293.921 21.0891C294.059 21.2017 294.173 21.3405 294.257 21.4973L297.831 28.1482C297.942 28.3547 297.997 28.5864 297.992 28.8208C297.987 29.0551 297.921 29.284 297.801 29.4852C297.68 29.6864 297.51 29.853 297.306 29.9687C297.103 30.0845 296.872 30.1453 296.638 30.1454V30.1454Z" fill="#342C2B"/>
<path d="M286.077 10.5056C285.832 10.5058 285.591 10.4394 285.381 10.3137C285.171 10.188 284.998 10.0076 284.882 9.79158L281.308 3.14057C281.138 2.82384 281.1 2.45245 281.204 2.10816C281.308 1.76387 281.544 1.47492 281.861 1.30476C282.178 1.13459 282.549 1.09713 282.893 1.20076C283.237 1.3044 283.526 1.54058 283.697 1.85732L287.27 8.50833C287.381 8.71479 287.437 8.94645 287.431 9.18076C287.426 9.41507 287.36 9.64399 287.24 9.84519C287.12 10.0464 286.949 10.213 286.745 10.3287C286.542 10.4445 286.312 10.5054 286.077 10.5056Z" fill="#342C2B"/>
<path d="M288.504 217.292C288.293 217.292 288.084 217.242 287.895 217.147C287.707 217.052 287.543 216.914 287.416 216.744C287.29 216.575 287.206 216.378 287.169 216.17C287.132 215.961 287.145 215.747 287.205 215.545L289.604 207.566C289.708 207.221 289.944 206.932 290.261 206.762C290.578 206.592 290.949 206.554 291.294 206.658C291.638 206.762 291.927 206.998 292.098 207.315C292.268 207.632 292.305 208.004 292.202 208.348L289.801 216.327C289.717 216.606 289.545 216.85 289.312 217.024C289.078 217.197 288.795 217.291 288.504 217.292V217.292Z" fill="#342C2B"/>
<path d="M281.411 240.867C281.199 240.867 280.991 240.818 280.802 240.723C280.613 240.627 280.449 240.49 280.323 240.32C280.197 240.15 280.112 239.954 280.075 239.745C280.039 239.537 280.051 239.323 280.112 239.121L282.512 231.141C282.616 230.797 282.852 230.508 283.169 230.338C283.486 230.167 283.857 230.13 284.202 230.234C284.546 230.337 284.836 230.574 285.006 230.891C285.176 231.208 285.213 231.579 285.11 231.924L282.711 239.903C282.627 240.182 282.455 240.427 282.221 240.601C281.986 240.774 281.702 240.868 281.411 240.867V240.867Z" fill="#342C2B"/>
<path d="M293.33 221.233C293.03 221.231 292.739 221.13 292.503 220.944C292.267 220.759 292.099 220.501 292.026 220.211C291.952 219.92 291.977 219.613 292.097 219.338C292.216 219.063 292.423 218.835 292.686 218.691L300.024 214.745C300.18 214.661 300.352 214.608 300.53 214.59C300.707 214.572 300.886 214.59 301.056 214.641C301.227 214.692 301.385 214.777 301.523 214.889C301.661 215.002 301.775 215.141 301.86 215.298C301.944 215.454 301.996 215.626 302.014 215.803C302.032 215.98 302.015 216.159 301.963 216.33C301.912 216.5 301.828 216.659 301.715 216.797C301.602 216.935 301.464 217.049 301.307 217.133L293.969 221.079C293.772 221.182 293.552 221.235 293.33 221.233Z" fill="#342C2B"/>
<path d="M271.644 232.894C271.344 232.892 271.053 232.79 270.818 232.605C270.582 232.42 270.414 232.162 270.34 231.871C270.267 231.581 270.292 231.274 270.411 230.999C270.531 230.724 270.738 230.496 271 230.351L278.338 226.406C278.495 226.321 278.667 226.269 278.844 226.251C279.021 226.233 279.2 226.25 279.371 226.302C279.541 226.353 279.7 226.437 279.838 226.55C279.975 226.663 280.09 226.801 280.174 226.958C280.258 227.115 280.311 227.287 280.329 227.464C280.346 227.641 280.329 227.82 280.278 227.991C280.227 228.161 280.142 228.32 280.03 228.458C279.917 228.595 279.778 228.71 279.621 228.794L272.284 232.74C272.087 232.843 271.867 232.896 271.644 232.894V232.894Z" fill="#342C2B"/>
<path d="M301.935 229.833C301.803 229.832 301.671 229.813 301.544 229.774L293.565 227.374C293.22 227.27 292.931 227.034 292.761 226.717C292.591 226.4 292.554 226.028 292.657 225.684C292.761 225.339 292.997 225.05 293.314 224.88C293.631 224.71 294.003 224.672 294.347 224.776L302.327 227.176C302.639 227.269 302.907 227.472 303.082 227.747C303.257 228.022 303.327 228.35 303.28 228.673C303.232 228.995 303.07 229.29 302.823 229.502C302.576 229.715 302.261 229.832 301.935 229.831V229.833Z" fill="#342C2B"/>
<path d="M278.359 222.744C278.226 222.743 278.095 222.723 277.968 222.685L269.989 220.285C269.644 220.181 269.355 219.945 269.185 219.628C269.015 219.311 268.977 218.939 269.081 218.595C269.185 218.25 269.421 217.961 269.738 217.791C270.055 217.62 270.427 217.583 270.771 217.687L278.75 220.087C279.063 220.18 279.331 220.383 279.506 220.658C279.681 220.933 279.751 221.261 279.703 221.584C279.656 221.906 279.494 222.201 279.247 222.413C279 222.626 278.685 222.742 278.359 222.742V222.744Z" fill="#342C2B"/>
<path d="M293.957 239.6C293.711 239.6 293.471 239.534 293.26 239.408C293.05 239.282 292.877 239.102 292.761 238.886L288.816 231.546C288.646 231.23 288.608 230.858 288.712 230.514C288.815 230.17 289.052 229.881 289.368 229.711C289.685 229.54 290.056 229.503 290.401 229.607C290.745 229.71 291.034 229.946 291.204 230.263L295.15 237.603C295.261 237.809 295.316 238.041 295.311 238.275C295.306 238.509 295.24 238.738 295.119 238.94C294.999 239.141 294.829 239.307 294.625 239.423C294.421 239.539 294.191 239.6 293.957 239.6V239.6Z" fill="#342C2B"/>
<path d="M282.3 217.916C282.055 217.916 281.814 217.85 281.604 217.724C281.393 217.598 281.221 217.418 281.105 217.202L277.159 209.862C277.075 209.705 277.023 209.534 277.005 209.356C276.987 209.179 277.004 209 277.056 208.83C277.107 208.659 277.191 208.501 277.304 208.363C277.416 208.225 277.555 208.111 277.712 208.026C277.869 207.942 278.041 207.89 278.218 207.872C278.395 207.854 278.574 207.871 278.744 207.923C278.915 207.974 279.074 208.058 279.212 208.171C279.349 208.284 279.464 208.422 279.548 208.579L283.494 215.919C283.604 216.125 283.66 216.357 283.655 216.591C283.649 216.825 283.583 217.054 283.463 217.255C283.343 217.457 283.172 217.623 282.969 217.739C282.765 217.855 282.535 217.916 282.3 217.916V217.916Z" fill="#342C2B"/>
<path d="M34.1364 201.464C33.957 203.572 32.9603 205.527 31.3593 206.909C29.7582 208.292 27.6799 208.994 25.5684 208.865C27.5618 209.604 29.2093 211.059 30.1911 212.945C31.1728 214.831 31.4189 217.015 30.8814 219.072C30.8814 219.072 34.8388 210.606 39.6842 211.052C39.6783 211.044 33.4771 207.842 34.1364 201.464Z" fill="#342C2B"/>
<path d="M193.487 226.832C195.199 226.832 196.586 225.445 196.586 223.734C196.586 222.022 195.199 220.635 193.487 220.635C191.776 220.635 190.389 222.022 190.389 223.734C190.389 225.445 191.776 226.832 193.487 226.832Z" fill="#342C2B"/>
<path d="M85.0711 113.546C84.8997 115.564 83.9462 117.435 82.4139 118.758C80.8815 120.082 78.8922 120.754 76.8711 120.63C78.7784 121.339 80.3543 122.732 81.294 124.537C82.2336 126.342 82.4698 128.432 81.9568 130.401C81.9568 130.401 85.746 122.297 90.3684 122.717C90.3763 122.717 84.4412 119.65 85.0711 113.546Z" fill="#342C2B"/>
<path d="M219.813 36.5265C221.525 36.5265 222.912 35.1392 222.912 33.4279C222.912 31.7166 221.525 30.3293 219.813 30.3293C218.102 30.3293 216.715 31.7166 216.715 33.4279C216.715 35.1392 218.102 36.5265 219.813 36.5265Z" fill="#342C2B"/>
<path d="M78.1172 21.9864L82.1644 24.3337C83.0682 22.1996 84.4826 20.3202 86.2828 18.8607C88.0831 17.4011 90.2144 16.4061 92.4892 15.9632L91.3371 11.292C88.4047 11.7999 85.6506 13.0491 83.3369 14.9209C81.0231 16.7926 79.2264 19.2248 78.1172 21.9864V21.9864Z" fill="white"/>
<path d="M103.412 35.1278L107.772 33.4281C108.339 35.6753 109.449 37.7484 111.005 39.4661C112.56 41.1839 114.514 42.4933 116.694 43.2791L114.84 47.7197C112.02 46.7692 109.489 45.1134 107.489 42.9095C105.489 40.7056 104.085 38.0268 103.412 35.1278V35.1278Z" fill="white"/>
<path d="M273.032 154.525L273.781 150.334C271.675 150.225 269.629 149.6 267.821 148.515C266.013 147.429 264.5 145.915 263.414 144.108L259.779 146.545C261.125 148.895 263.049 150.861 265.368 152.257C267.688 153.654 270.326 154.435 273.032 154.525V154.525Z" fill="white"/>
<path d="M24.0087 33.7839C25.72 33.7839 27.1073 32.3966 27.1073 30.6854C27.1073 28.9741 25.72 27.5868 24.0087 27.5868C22.2974 27.5868 20.9102 28.9741 20.9102 30.6854C20.9102 32.3966 22.2974 33.7839 24.0087 33.7839Z" fill="#342C2B"/>
<path d="M241.909 54.7402L237.86 53.4257C237.464 55.4964 236.565 57.4382 235.242 59.0802C233.92 60.7222 232.214 62.0143 230.275 62.8428L232.193 66.7766C234.704 65.765 236.915 64.128 238.615 62.0214C240.316 59.9148 241.45 57.4083 241.909 54.7402V54.7402Z" fill="white"/>
<path d="M9.90607 169.739L11.9855 173.456C10.0323 174.249 8.30386 175.511 6.95212 177.129C5.60039 178.746 4.66671 180.671 4.23315 182.734L0 181.623C0.501192 178.962 1.67446 176.473 3.40825 174.393C5.14203 172.314 7.3788 170.712 9.90607 169.739Z" fill="white"/>
<path d="M170.663 26.1178L166.409 26.2567C166.739 28.3388 166.553 30.4701 165.866 32.4634C165.18 34.4567 164.015 36.251 162.473 37.6885L165.603 40.7382C167.623 38.9348 169.148 36.6448 170.034 34.0859C170.92 31.5269 171.136 28.7841 170.663 26.1178V26.1178Z" fill="white"/>
<path d="M62.1107 80.6613L62.86 76.4715C60.7541 76.3623 58.7072 75.7371 56.8993 74.6514C55.0915 73.5657 53.5781 72.0525 52.4922 70.2448L48.8555 72.6824C50.2013 75.0322 52.1256 76.9986 54.4455 78.3952C56.7655 79.7918 59.4043 80.5718 62.1107 80.6613V80.6613Z" fill="#342C2B"/>
<path d="M302.536 155.111L303.284 150.921C301.178 150.812 299.131 150.187 297.323 149.101C295.515 148.016 294.002 146.502 292.916 144.695L289.279 147.132C290.625 149.482 292.55 151.449 294.87 152.845C297.191 154.242 299.829 155.022 302.536 155.111V155.111Z" fill="white"/>
</g>
</svg>
