<svg width="302" height="235" viewBox="0 0 302 235" fill="none" xmlns="http://www.w3.org/2000/svg">
<g opacity="0.5">
<path d="M49.9808 109.165C49.7726 109.165 49.5694 109.102 49.398 108.984C49.2266 108.866 49.0949 108.698 49.0207 108.504C47.6481 104.905 45.8402 102.597 43.8323 101.776C43.6499 102.494 43.3989 103.193 43.0828 103.863C42.7936 104.499 42.3694 105.063 41.8394 105.518C41.3095 105.973 40.6868 106.306 40.0147 106.496C39.3595 106.711 38.6523 106.707 37.9993 106.486C37.3463 106.264 36.7828 105.836 36.3937 105.267C36.1396 104.859 36.0101 104.385 36.0213 103.904C36.0326 103.424 36.184 102.956 36.4569 102.56C37.0561 101.602 37.8871 100.811 38.873 100.258C39.859 99.7063 40.9682 99.4113 42.0982 99.401C42.0179 96.2105 40.7881 93.1565 38.6351 90.8006L38.4948 90.7057C38.0479 92.1225 37.1834 93.3712 36.0146 94.2881C33.2484 96.4646 30.4629 96.8666 27.9599 95.4484C27.1036 94.9585 26.4473 94.1825 26.1064 93.2567C25.7655 92.3309 25.7618 91.3145 26.0959 90.3863C26.3674 89.4409 26.8589 88.5734 27.53 87.8544C28.2012 87.1353 29.033 86.5853 29.9574 86.2493C32.2799 85.7025 34.7241 86.0841 36.7693 87.3129C36.805 85.8318 36.5225 84.3603 35.9408 82.9977C35.3591 81.6352 34.4918 80.4132 33.3975 79.4145C29.2043 75.9514 22.4134 77.3083 22.3397 77.3259C22.0747 77.3768 21.8004 77.3214 21.5758 77.1718C21.3511 77.0223 21.1943 76.7904 21.139 76.5262C21.0837 76.2621 21.1345 75.9869 21.2803 75.7598C21.4261 75.5328 21.6553 75.3721 21.9185 75.3125C22.2362 75.2458 29.7274 73.7329 34.6929 77.8208C37.5013 80.1307 38.8914 83.7165 38.8405 88.4836C39.1857 88.6989 39.5368 88.9282 39.8937 89.1716C39.952 89.2116 40.0061 89.2575 40.0551 89.3085C42.6799 92.1395 44.1431 95.8548 44.1536 99.7153C46.3423 100.417 48.9294 102.494 50.9479 107.789C51.0074 107.945 51.0281 108.113 51.0084 108.278C50.9886 108.444 50.9288 108.602 50.8344 108.739C50.7399 108.876 50.6135 108.989 50.4661 109.066C50.3186 109.144 50.1545 109.185 49.9878 109.185L49.9808 109.165ZM41.7858 101.456C41.46 101.485 41.1381 101.548 40.8256 101.644C38.9457 102.218 37.9893 103.703 38.0788 104.089C38.2274 104.312 38.4488 104.475 38.705 104.552C38.9613 104.629 39.2364 104.614 39.4829 104.51C39.8665 104.398 40.2209 104.204 40.5216 103.941C40.8224 103.678 41.0622 103.352 41.2241 102.987C41.4549 102.494 41.6422 101.981 41.784 101.455L41.7858 101.456ZM31.8372 88.0133C31.4134 88.009 30.9916 88.0717 30.5875 88.1993C29.9655 88.4408 29.4098 88.8267 28.9661 89.325C28.5224 89.8234 28.2034 90.4199 28.0354 91.0657C27.8624 91.5383 27.8616 92.0567 28.033 92.5299C28.2044 93.0031 28.5371 93.4007 28.9726 93.6529C30.7156 94.6393 32.6587 94.3075 34.7421 92.6664C35.7291 91.8959 36.4127 90.802 36.6728 89.5772C35.2135 88.6671 33.553 88.1295 31.8372 88.0116V88.0133Z" fill="#0D2160"/>
<path d="M270.102 127.844C269.934 127.845 269.769 127.804 269.621 127.726C269.473 127.647 269.346 127.534 269.251 127.396C269.157 127.257 269.098 127.098 269.079 126.932C269.06 126.765 269.082 126.596 269.143 126.44C271.337 120.745 274.132 118.542 276.48 117.824C276.487 113.677 278.065 109.686 280.896 106.656C280.945 106.604 280.999 106.559 281.058 106.519C281.453 106.251 281.842 105.999 282.225 105.762C282.225 105.731 282.225 105.697 282.225 105.664C282.199 100.574 283.712 96.7614 286.72 94.3146C292.042 89.988 300.026 91.6327 300.361 91.7047C300.623 91.7667 300.85 91.9284 300.994 92.1555C301.137 92.3826 301.186 92.6568 301.13 92.9196C301.074 93.1823 300.918 93.4128 300.694 93.5617C300.47 93.7105 300.197 93.766 299.933 93.7162C299.86 93.7004 292.561 92.2102 288.01 95.9173C286.8 97.0097 285.842 98.3518 285.201 99.8511C284.561 101.35 284.254 102.971 284.301 104.6C286.513 103.256 289.164 102.836 291.684 103.429C292.663 103.791 293.542 104.38 294.251 105.146C294.959 105.913 295.477 106.836 295.761 107.84C296.111 108.822 296.103 109.895 295.74 110.871C295.377 111.848 294.682 112.665 293.776 113.18C291.126 114.67 288.18 114.243 285.258 111.951C283.973 110.94 283.033 109.554 282.569 107.986L282.314 108.162C279.993 110.737 278.66 114.053 278.553 117.519C279.764 117.525 280.953 117.838 282.01 118.429C283.066 119.021 283.955 119.872 284.593 120.901C284.877 121.315 285.035 121.803 285.046 122.305C285.057 122.807 284.922 123.302 284.656 123.729C284.246 124.327 283.652 124.776 282.964 125.008C282.277 125.24 281.533 125.243 280.844 125.015C280.132 124.811 279.473 124.455 278.914 123.969C278.354 123.484 277.907 122.883 277.605 122.207C277.258 121.464 276.986 120.69 276.793 119.893C274.983 120.573 272.871 122.498 271.069 127.176C270.995 127.373 270.863 127.542 270.69 127.662C270.517 127.781 270.312 127.845 270.102 127.844V127.844ZM278.837 119.595C278.991 120.199 279.2 120.786 279.464 121.35C279.641 121.753 279.904 122.113 280.234 122.404C280.565 122.695 280.955 122.91 281.377 123.035C281.662 123.154 281.98 123.167 282.275 123.074C282.569 122.98 282.82 122.786 282.985 122.524C283.106 122.173 282.184 120.608 280.257 119.892C279.8 119.723 279.322 119.622 278.836 119.591L278.837 119.595ZM284.403 106.879C284.675 108.249 285.428 109.478 286.525 110.343C288.772 112.107 290.871 112.462 292.765 111.396C293.25 111.118 293.621 110.678 293.813 110.154C294.006 109.629 294.008 109.054 293.818 108.528C293.636 107.823 293.289 107.171 292.806 106.625C292.322 106.08 291.716 105.657 291.038 105.392C289.405 104.853 287.141 105.365 284.403 106.875V106.879Z" fill="#50D5FF"/>
<path d="M227.594 19.1756C227.404 19.1758 227.217 19.1314 227.047 19.0462C226.878 18.961 226.73 18.8374 226.617 18.6851C226.504 18.5327 226.428 18.356 226.395 18.169C226.362 17.9821 226.374 17.79 226.429 17.6082L228.379 11.1244C228.472 10.8153 228.684 10.5559 228.968 10.4032C229.253 10.2505 229.586 10.2169 229.895 10.31C230.204 10.4031 230.464 10.6152 230.617 10.8996C230.769 11.184 230.803 11.5174 230.71 11.8265L228.759 18.3103C228.684 18.5607 228.53 18.78 228.32 18.9359C228.11 19.0917 227.856 19.1758 227.594 19.1756V19.1756Z" fill="#172CFF"/>
<path d="M221.831 38.3426C221.641 38.3427 221.453 38.2984 221.284 38.2132C221.114 38.128 220.967 38.0043 220.854 37.8519C220.74 37.6996 220.664 37.5229 220.632 37.3359C220.599 37.1489 220.61 36.9569 220.665 36.7752L222.615 30.2897C222.708 29.9806 222.92 29.7211 223.204 29.5684C223.489 29.4156 223.822 29.3822 224.131 29.4753C224.44 29.5684 224.7 29.7804 224.853 30.0648C225.006 30.3492 225.039 30.6826 224.946 30.9917L222.996 37.4755C222.92 37.726 222.766 37.9456 222.556 38.1018C222.347 38.2579 222.092 38.3424 221.831 38.3426V38.3426Z" fill="#172CFF"/>
<path d="M231.522 22.3789C231.252 22.3768 230.991 22.2856 230.78 22.1195C230.568 21.9535 230.418 21.7219 230.352 21.461C230.286 21.2002 230.308 20.9248 230.415 20.678C230.522 20.4312 230.708 20.227 230.944 20.0971L236.911 16.8903C237.052 16.8147 237.207 16.7676 237.366 16.7516C237.525 16.7356 237.685 16.7511 237.838 16.7971C237.991 16.8432 238.133 16.9189 238.257 17.02C238.381 17.121 238.483 17.2455 238.559 17.3862C238.635 17.527 238.681 17.6811 238.697 17.84C238.713 17.999 238.698 18.1595 238.652 18.3125C238.606 18.4654 238.53 18.6079 238.429 18.7316C238.328 18.8553 238.204 18.9579 238.063 19.0335L232.095 22.2402C231.918 22.3331 231.721 22.3808 231.522 22.3789V22.3789Z" fill="#172CFF"/>
<path d="M213.896 31.8517C213.627 31.8497 213.367 31.7585 213.155 31.5924C212.943 31.4263 212.793 31.1947 212.727 30.9339C212.661 30.673 212.683 30.3976 212.79 30.1508C212.898 29.9041 213.083 29.6998 213.319 29.57L219.287 26.3632C219.427 26.2876 219.582 26.2404 219.741 26.2244C219.899 26.2084 220.06 26.2239 220.213 26.27C220.366 26.316 220.509 26.3917 220.632 26.4928C220.756 26.5939 220.858 26.7184 220.934 26.8591C221.01 26.9998 221.057 27.154 221.073 27.313C221.089 27.4719 221.073 27.6325 221.027 27.7854C220.981 27.9384 220.906 28.0807 220.805 28.2044C220.703 28.3281 220.579 28.4307 220.438 28.5063L214.471 31.7131C214.294 31.8058 214.096 31.8534 213.896 31.8517V31.8517Z" fill="#172CFF"/>
<path d="M238.509 29.3681C238.39 29.3679 238.272 29.3502 238.158 29.3155L231.675 27.3654C231.522 27.3193 231.379 27.2436 231.255 27.1424C231.131 27.0412 231.029 26.9167 230.953 26.7759C230.878 26.6351 230.831 26.4807 230.815 26.3217C230.799 26.1626 230.814 26.002 230.86 25.8489C230.906 25.6959 230.982 25.5534 231.083 25.4296C231.185 25.3059 231.309 25.2032 231.45 25.1276C231.591 25.052 231.745 25.0049 231.904 24.9889C232.063 24.9729 232.224 24.9884 232.377 25.0345L238.861 26.9846C239.141 27.0683 239.381 27.2501 239.538 27.4967C239.695 27.7433 239.758 28.0381 239.715 28.3274C239.673 28.6166 239.528 28.8808 239.306 29.0716C239.085 29.2624 238.802 29.3671 238.509 29.3664V29.3681Z" fill="#172CFF"/>
<path d="M219.35 23.6075C219.231 23.6072 219.113 23.5895 218.999 23.5549L212.515 21.6048C212.361 21.5594 212.218 21.4841 212.093 21.3832C211.969 21.2822 211.865 21.1576 211.789 21.0166C211.713 20.8755 211.665 20.7208 211.649 20.5613C211.633 20.4017 211.648 20.2406 211.694 20.0871C211.741 19.9336 211.817 19.7907 211.918 19.6667C212.02 19.5428 212.145 19.4401 212.287 19.3647C212.428 19.2893 212.584 19.2426 212.743 19.2273C212.903 19.212 213.064 19.2284 213.217 19.2756L219.702 21.2257C219.983 21.3094 220.223 21.4912 220.38 21.7378C220.537 21.9844 220.6 22.2793 220.558 22.5686C220.515 22.8578 220.37 23.122 220.148 23.3128C219.927 23.5036 219.644 23.6082 219.351 23.6075H219.35Z" fill="#172CFF"/>
<path d="M232.028 37.307C231.808 37.3071 231.592 37.2477 231.403 37.1349C231.214 37.0221 231.059 36.8601 230.955 36.6663L227.748 30.6987C227.673 30.558 227.626 30.4037 227.61 30.2448C227.594 30.0858 227.609 29.9253 227.655 29.7723C227.701 29.6194 227.777 29.4769 227.878 29.3532C227.979 29.2295 228.104 29.1269 228.244 29.0513C228.385 28.9757 228.539 28.9286 228.698 28.9126C228.857 28.8966 229.018 28.9121 229.171 28.9581C229.324 29.0042 229.466 29.0799 229.59 29.181C229.714 29.282 229.816 29.4065 229.892 29.5472L233.099 35.5149C233.198 35.7002 233.248 35.9081 233.243 36.1184C233.238 36.3286 233.179 36.534 233.071 36.7145C232.963 36.8951 232.81 37.0446 232.628 37.1484C232.445 37.2523 232.238 37.3068 232.028 37.307V37.307Z" fill="#172CFF"/>
<path d="M222.553 19.6847C222.333 19.6848 222.117 19.6253 221.928 19.5125C221.74 19.3997 221.585 19.2378 221.481 19.044L218.274 13.0763C218.121 12.7921 218.088 12.4588 218.181 12.1499C218.274 11.841 218.486 11.5817 218.77 11.429C219.054 11.2763 219.387 11.2427 219.696 11.3357C220.005 11.4287 220.264 11.6406 220.417 11.9248L223.624 17.8926C223.723 18.0778 223.773 18.2857 223.768 18.496C223.763 18.7062 223.704 18.9116 223.596 19.0921C223.488 19.2727 223.336 19.4222 223.153 19.526C222.97 19.6298 222.764 19.6845 222.553 19.6847Z" fill="#172CFF"/>
<path d="M17.4803 205.477C17.2906 205.477 17.1034 205.433 16.9339 205.347C16.7645 205.262 16.6173 205.138 16.5041 204.986C16.3909 204.834 16.3151 204.657 16.2822 204.471C16.2493 204.284 16.2603 204.092 16.3147 203.91L18.4668 196.751C18.5599 196.441 18.7718 196.182 19.0562 196.029C19.3406 195.876 19.674 195.843 19.9831 195.936C20.2922 196.029 20.5517 196.241 20.7045 196.526C20.8572 196.81 20.8908 197.144 20.7977 197.453L18.6439 204.612C18.5683 204.862 18.4144 205.081 18.2049 205.237C17.9954 205.393 17.7414 205.477 17.4803 205.477V205.477Z" fill="#172CFF"/>
<path d="M11.113 226.631C10.9233 226.631 10.7363 226.586 10.5669 226.501C10.3975 226.416 10.2503 226.292 10.1371 226.14C10.0239 225.988 9.9478 225.811 9.91491 225.624C9.88202 225.438 9.8933 225.246 9.94769 225.064L12.1012 217.904C12.1943 217.595 12.4065 217.336 12.6909 217.183C12.9753 217.03 13.3086 216.997 13.6177 217.09C13.9268 217.183 14.1864 217.395 14.3392 217.679C14.4919 217.964 14.5252 218.297 14.4321 218.606L12.2803 225.766C12.2045 226.016 12.05 226.236 11.8398 226.392C11.6296 226.548 11.3747 226.632 11.113 226.631V226.631Z" fill="#172CFF"/>
<path d="M21.8105 209.014C21.5415 209.012 21.2809 208.921 21.0692 208.755C20.8575 208.589 20.7067 208.357 20.6407 208.096C20.5746 207.835 20.5971 207.56 20.7043 207.313C20.8115 207.067 20.9974 206.862 21.2331 206.732L27.8168 203.192C27.9576 203.117 28.1119 203.069 28.2709 203.053C28.4298 203.037 28.5903 203.053 28.7433 203.099C28.8963 203.145 29.0387 203.221 29.1624 203.322C29.2861 203.423 29.3887 203.547 29.4643 203.688C29.5399 203.829 29.5869 203.983 29.6029 204.142C29.6189 204.301 29.6035 204.461 29.5575 204.614C29.5114 204.767 29.4357 204.91 29.3347 205.033C29.2336 205.157 29.109 205.26 28.9683 205.335L22.3845 208.875C22.2075 208.968 22.0103 209.016 21.8105 209.014Z" fill="#172CFF"/>
<path d="M2.35153 219.477C2.08247 219.475 1.82165 219.384 1.60997 219.218C1.39829 219.052 1.24768 218.82 1.18167 218.559C1.11566 218.298 1.13812 218.023 1.2453 217.776C1.35249 217.529 1.53842 217.325 1.7741 217.195L8.35786 213.655C8.49858 213.579 8.65293 213.532 8.81187 213.516C8.97081 213.5 9.13135 213.516 9.28432 213.562C9.43728 213.608 9.57971 213.684 9.70341 213.785C9.82711 213.886 9.92948 214.01 10.0051 214.151C10.0807 214.292 10.1279 214.446 10.1439 214.605C10.1599 214.764 10.1445 214.924 10.0985 215.077C10.0525 215.23 9.97675 215.373 9.87567 215.496C9.7746 215.62 9.65001 215.723 9.50929 215.798L2.92553 219.338C2.74858 219.431 2.55135 219.479 2.35153 219.477V219.477Z" fill="#172CFF"/>
<path d="M29.5329 216.73C29.4139 216.73 29.2957 216.712 29.1819 216.677L22.0224 214.524C21.7133 214.431 21.4537 214.219 21.301 213.934C21.1483 213.65 21.1149 213.316 21.208 213.007C21.3011 212.698 21.513 212.439 21.7974 212.286C22.0818 212.133 22.4154 212.1 22.7245 212.193L29.884 214.346C30.1642 214.43 30.4047 214.612 30.5617 214.859C30.7188 215.105 30.7818 215.4 30.7391 215.689C30.6965 215.979 30.5512 216.243 30.3297 216.434C30.1082 216.624 29.8252 216.729 29.5329 216.728V216.73Z" fill="#172CFF"/>
<path d="M8.3766 210.369C8.25764 210.369 8.13946 210.351 8.02565 210.317L0.866167 208.163C0.557067 208.07 0.297489 207.858 0.144755 207.573C-0.00797784 207.289 -0.0413356 206.956 0.0517667 206.646C0.144869 206.337 0.356795 206.078 0.641194 205.925C0.925594 205.772 1.2592 205.739 1.56829 205.832L8.72777 207.986C9.0079 208.069 9.24843 208.251 9.40548 208.498C9.56252 208.744 9.62551 209.039 9.58288 209.329C9.54025 209.618 9.39495 209.882 9.17343 210.073C8.95192 210.264 8.66896 210.368 8.3766 210.367V210.369Z" fill="#172CFF"/>
<path d="M22.3708 225.494C22.1509 225.494 21.9349 225.435 21.7461 225.322C21.5572 225.209 21.4026 225.047 21.2985 224.853L17.7583 218.268C17.6056 217.984 17.5719 217.65 17.6649 217.341C17.7578 217.033 17.9699 216.773 18.2541 216.62C18.5383 216.468 18.8714 216.434 19.1803 216.527C19.4892 216.62 19.7486 216.832 19.9013 217.116L23.4415 223.702C23.541 223.887 23.5909 224.095 23.5861 224.305C23.5813 224.515 23.5221 224.721 23.4143 224.902C23.3064 225.082 23.1536 225.231 22.9708 225.335C22.7879 225.439 22.5811 225.494 22.3708 225.494V225.494Z" fill="#172CFF"/>
<path d="M11.9118 206.037C11.6919 206.038 11.4759 205.978 11.2871 205.865C11.0982 205.752 10.9436 205.591 10.8395 205.397L7.29905 198.811C7.22345 198.67 7.17642 198.516 7.16043 198.357C7.14443 198.198 7.15981 198.038 7.20585 197.885C7.25189 197.732 7.3276 197.59 7.42868 197.466C7.52975 197.342 7.65413 197.24 7.79485 197.164C7.93557 197.088 8.08992 197.041 8.24886 197.025C8.4078 197.009 8.56834 197.025 8.72131 197.071C8.87427 197.117 9.0167 197.193 9.1404 197.294C9.2641 197.395 9.36669 197.519 9.44229 197.66L12.9825 204.245C13.082 204.431 13.1319 204.638 13.1271 204.849C13.1223 205.059 13.0631 205.264 12.9553 205.445C12.8474 205.625 12.6944 205.775 12.5116 205.879C12.3287 205.983 12.1221 206.037 11.9118 206.037V206.037Z" fill="#172CFF"/>
<path d="M79.9242 211.673C79.7632 213.565 78.8689 215.318 77.4323 216.559C75.9958 217.8 74.131 218.429 72.2363 218.313C74.025 218.977 75.5033 220.282 76.3842 221.975C77.2651 223.667 77.4858 225.626 77.0036 227.472C77.0036 227.472 80.5544 219.876 84.9021 220.276C84.8968 220.269 79.3327 217.395 79.9242 211.673Z" fill="#172CFF"/>
<path d="M247.985 234.435C249.521 234.435 250.766 233.19 250.766 231.655C250.766 230.119 249.521 228.875 247.985 228.875C246.45 228.875 245.205 230.119 245.205 231.655C245.205 233.19 246.45 234.435 247.985 234.435Z" fill="#172CFF"/>
<path d="M232.696 205.346C232.542 207.156 231.686 208.834 230.311 210.022C228.936 211.21 227.151 211.812 225.338 211.701C227.049 212.338 228.463 213.587 229.306 215.207C230.149 216.827 230.361 218.702 229.901 220.469C229.901 220.469 233.301 213.197 237.449 213.574C237.456 213.574 232.13 210.822 232.696 205.346Z" fill="#172CFF"/>
<path d="M246.524 63.679C248.06 63.679 249.305 62.4343 249.305 60.8988C249.305 59.3633 248.06 58.1185 246.524 58.1185C244.989 58.1185 243.744 59.3633 243.744 60.8988C243.744 62.4343 244.989 63.679 246.524 63.679Z" fill="#50D5FF"/>
<path d="M119.385 50.6327L123.016 52.7389C123.827 50.824 125.096 49.1376 126.712 47.828C128.327 46.5184 130.239 45.6256 132.28 45.2282L131.247 41.0369C128.615 41.4926 126.144 42.6135 124.068 44.293C121.992 45.9724 120.38 48.1548 119.385 50.6327V50.6327Z" fill="#172CFF"/>
<path d="M30.7422 149.437L34.6546 147.912C35.163 149.928 36.1589 151.788 37.5548 153.33C38.9507 154.871 40.7038 156.046 42.66 156.751L40.9961 160.735C38.4655 159.883 36.1949 158.397 34.4002 156.419C32.6055 154.442 31.3464 152.038 30.7422 149.437V149.437Z" fill="#FEFEFE"/>
<path d="M281.995 195.884L282.667 192.124C280.778 192.026 278.941 191.465 277.319 190.491C275.697 189.517 274.339 188.159 273.365 186.537L270.104 188.724C271.311 190.832 273.037 192.596 275.118 193.849C277.2 195.103 279.567 195.803 281.995 195.884V195.884Z" fill="#FEFEFE"/>
<path d="M70.8349 61.2183C72.3704 61.2183 73.6152 59.9735 73.6152 58.438C73.6152 56.9025 72.3704 55.6578 70.8349 55.6578C69.2995 55.6578 68.0547 56.9025 68.0547 58.438C68.0547 59.9735 69.2995 61.2183 70.8349 61.2183Z" fill="#50D5FF"/>
<path d="M266.352 80.0218L262.719 78.8423C262.364 80.7003 261.557 82.4426 260.371 83.9159C259.184 85.3893 257.654 86.5486 255.914 87.292L257.635 90.8217C259.888 89.914 261.871 88.4452 263.397 86.555C264.923 84.6648 265.94 82.4158 266.352 80.0218V80.0218Z" fill="#0D2160"/>
<path d="M58.1853 183.207L60.0511 186.542C58.2986 187.254 56.7477 188.386 55.5348 189.837C54.322 191.289 53.4842 193.016 53.0952 194.867L49.2969 193.87C49.7466 191.483 50.7993 189.25 52.355 187.383C53.9107 185.517 55.9177 184.08 58.1853 183.207Z" fill="#FEFEFE"/>
<path d="M183.117 30.3038L179.299 30.4284C179.596 32.2966 179.428 34.209 178.813 35.9975C178.197 37.786 177.151 39.396 175.768 40.6858L178.576 43.4222C180.389 41.8042 181.758 39.7494 182.552 37.4533C183.347 35.1572 183.541 32.6961 183.117 30.3038V30.3038Z" fill="#0D2160"/>
<path d="M158.358 9.34642L159.029 5.58681C157.139 5.48886 155.302 4.92812 153.68 3.95394C152.058 2.97977 150.7 1.62202 149.726 0L146.463 2.18695C147.671 4.29559 149.398 6.06031 151.48 7.31342C153.562 8.56654 155.929 9.26637 158.358 9.34642V9.34642Z" fill="#CCF3F5"/>
</g>
</svg>
