<svg id="coins" xmlns="http://www.w3.org/2000/svg" xmlns:xlink="http://www.w3.org/1999/xlink" width="21.824" height="21.824" viewBox="0 0 21.824 21.824">
  <defs>
    <linearGradient id="linear-gradient" x1="0.5" x2="0.5" y2="1" gradientUnits="objectBoundingBox">
      <stop offset="0" stop-color="#f8df00"/>
      <stop offset="0.14" stop-color="#fce800"/>
      <stop offset="0.303" stop-color="#ffef00"/>
      <stop offset="1" stop-color="#f3a700"/>
    </linearGradient>
    <radialGradient id="radial-gradient" cx="0.495" cy="-0.071" r="0.4" gradientTransform="translate(0)" gradientUnits="objectBoundingBox">
      <stop offset="0" stop-color="#fff77d"/>
      <stop offset="1"/>
    </radialGradient>
    <linearGradient id="linear-gradient-2" x1="0.5" y1="1.832" x2="0.5" y2="0.379" gradientUnits="objectBoundingBox">
      <stop offset="0" stop-color="#f87758"/>
      <stop offset="1"/>
    </linearGradient>
    <linearGradient id="linear-gradient-3" x1="0.5" y1="1" x2="0.5" y2="-0.229" gradientUnits="objectBoundingBox">
      <stop offset="0" stop-color="#ffe100"/>
      <stop offset="0.168" stop-color="#fcd600"/>
      <stop offset="0.698" stop-color="#f7b900"/>
      <stop offset="1" stop-color="#f5ae00"/>
    </linearGradient>
    <radialGradient id="radial-gradient-2" cx="0.505" cy="0.069" r="1.005" gradientTransform="translate(0)" gradientUnits="objectBoundingBox">
      <stop offset="0" stop-color="#f87758"/>
      <stop offset="0.309" stop-color="#eb694a"/>
      <stop offset="1" stop-color="#fda08a"/>
    </radialGradient>
    <linearGradient id="linear-gradient-4" x1="0.5" y1="1" x2="0.5" gradientUnits="objectBoundingBox">
      <stop offset="0" stop-color="#ee9b00"/>
      <stop offset="0.612" stop-color="#f2b500"/>
      <stop offset="1" stop-color="#f5c000"/>
    </linearGradient>
    <linearGradient id="linear-gradient-5" x1="0.5" x2="0.5" y2="1.746" gradientUnits="objectBoundingBox">
      <stop offset="0" stop-color="#ffef00"/>
      <stop offset="0.727" stop-color="#fac800"/>
      <stop offset="1" stop-color="#f7cf00"/>
    </linearGradient>
    <radialGradient id="radial-gradient-3" cx="0.491" cy="-0.206" r="0.883" gradientTransform="translate(0.022) scale(0.955 1)" gradientUnits="objectBoundingBox">
      <stop offset="0" stop-color="#fff66e"/>
      <stop offset="1"/>
    </radialGradient>
    <linearGradient id="linear-gradient-6" x1="0.5" y1="1.808" x2="0.5" y2="0.673" gradientUnits="objectBoundingBox">
      <stop offset="0" stop-color="#fffab0"/>
      <stop offset="1"/>
    </linearGradient>
  </defs>
  <circle id="Ellipse_46" data-name="Ellipse 46" cx="10.912" cy="10.912" r="10.912" fill="url(#linear-gradient)"/>
  <path id="Path_12815" data-name="Path 12815" d="M214.162,196.793a10.911,10.911,0,0,1-10.91-10.748c0,.055,0,.109,0,.164a10.912,10.912,0,0,0,21.824,0c0-.055,0-.109,0-.164A10.912,10.912,0,0,1,214.162,196.793Z" transform="translate(-203.25 -175.297)" fill="#fdf356" opacity="0.3"/>
  <path id="Path_12816" data-name="Path 12816" d="M214.162,91.16a10.912,10.912,0,0,1,10.91,10.707c0-.068,0-.137,0-.205a10.912,10.912,0,1,0-21.824,0c0,.069,0,.137,0,.205A10.912,10.912,0,0,1,214.162,91.16Z" transform="translate(-203.25 -90.75)" fill="#fdf356"/>
  <circle id="Ellipse_47" data-name="Ellipse 47" cx="10.861" cy="10.861" r="10.861" transform="translate(0.051 0.051)" fill="url(#radial-gradient)" style="mix-blend-mode: screen;isolation: isolate"/>
  <path id="Path_12817" data-name="Path 12817" d="M214.562,91.113A10.865,10.865,0,0,0,203.7,101.684c1.2.712,3.09.142,4.326-.476a7.282,7.282,0,0,1,3.513-.245c2.859.245,5.637,1.471,8.5.735.572-.163,1.389-.9,1.961-.409a3.2,3.2,0,0,0,3.427.4A10.865,10.865,0,0,0,214.562,91.113Z" transform="translate(-203.65 -91.072)" opacity="0.7" fill="url(#linear-gradient-2)" style="mix-blend-mode: screen;isolation: isolate"/>
  <circle id="Ellipse_48" data-name="Ellipse 48" cx="8.451" cy="8.451" r="8.451" transform="translate(2.461 2.461)" fill="url(#linear-gradient-3)"/>
  <circle id="Ellipse_49" data-name="Ellipse 49" cx="8.041" cy="8.041" r="8.041" transform="translate(2.872 2.872)" fill="#ee9b00"/>
  <circle id="Ellipse_50" data-name="Ellipse 50" cx="7.712" cy="7.712" r="7.712" transform="translate(3.2 3.2)" fill="url(#radial-gradient-2)"/>
  <path id="Path_12818" data-name="Path 12818" d="M239.332,193.024a7.573,7.573,0,0,1-7.71-7.343q0,.1,0,.205a7.712,7.712,0,0,0,15.425,0q0-.1,0-.205A7.573,7.573,0,0,1,239.332,193.024Z" transform="translate(-228.42 -174.974)" fill="#fdf356" opacity="0.25"/>
  <path id="Path_12819" data-name="Path 12819" d="M266.621,150.519h0a.679.679,0,0,0-.552-.465l-2.528-.367-1.13-2.29a.683.683,0,0,0-1.225,0l-1.13,2.291-2.528.367a.683.683,0,0,0-.379,1.165L258.978,153l-.432,2.518a.679.679,0,0,0,.272.668.69.69,0,0,0,.719.052l2.261-1.189,2.261,1.189a.683.683,0,0,0,.992-.72L264.619,153l1.829-1.783A.679.679,0,0,0,266.621,150.519Z" transform="translate(-250.886 -140.669)" fill="#fdf356" opacity="0.1"/>
  <path id="Path_12820" data-name="Path 12820" d="M267.757,151.132a.516.516,0,0,0-.419-.353l-2.613-.38-1.169-2.368h0a.519.519,0,0,0-.931,0l-1.169,2.368-2.613.38a.519.519,0,0,0-.288.885l1.727,1.761-.446,2.6a.567.567,0,0,0,.205.539.769.769,0,0,0,.712.091l2.337-1.229,2.337,1.229a.67.67,0,0,0,.63-.022.755.755,0,0,0,.287-.607l-.446-2.6,1.727-1.761A.516.516,0,0,0,267.757,151.132Z" transform="translate(-252.178 -141.314)" opacity="0.6" fill="url(#linear-gradient-4)" style="mix-blend-mode: multiply;isolation: isolate"/>
  <path id="Path_12821" data-name="Path 12821" d="M267.757,146.768a.516.516,0,0,0-.419-.353l-2.613-.38-1.169-2.368h0a.519.519,0,0,0-.931,0l-1.169,2.368-2.613.38a.519.519,0,0,0-.288.885l1.891,1.843-.446,2.6a.519.519,0,0,0,.753.547l2.337-1.229,2.337,1.229a.519.519,0,0,0,.753-.547l-.446-2.6,1.891-1.843A.516.516,0,0,0,267.757,146.768Z" transform="translate(-252.178 -137.442)" fill="#ee9b00" opacity="0.15" style="mix-blend-mode: multiply;isolation: isolate"/>
  <path id="Path_12822" data-name="Path 12822" d="M264.413,146.144l1.2,2.426,2.677.389a.4.4,0,0,1,.219.675l-1.937,1.888.457,2.666a.4.4,0,0,1-.575.418l-2.395-1.259-2.395,1.259a.4.4,0,0,1-.575-.418l.457-2.666-1.937-1.888a.4.4,0,0,1,.219-.675l2.677-.389,1.2-2.426A.4.4,0,0,1,264.413,146.144Z" transform="translate(-253.146 -139.701)" fill="url(#linear-gradient-5)"/>
  <path id="Path_12823" data-name="Path 12823" d="M274.05,197.441l-.421,2.455a.4.4,0,0,0,.011.182l.446-2.6Z" transform="translate(-265.686 -185.408)" fill="#fdf356" opacity="0.3"/>
  <path id="Path_12824" data-name="Path 12824" d="M259.834,149.205l2.841-.389,1.2-2.426c.145-.294.237-.294.382,0l1.2,2.426,2.841.389a.392.392,0,0,1,.32.269.4.4,0,0,0-.32-.515l-2.677-.389-1.2-2.426a.4.4,0,0,0-.71,0l-1.2,2.426-2.677.389a.4.4,0,0,0-.319.515A.391.391,0,0,1,259.834,149.205Z" transform="translate(-253.152 -139.701)" fill="#fdf356"/>
  <path id="Path_12825" data-name="Path 12825" d="M322.307,197.441l-.036.035.446,2.6a.394.394,0,0,0,.011-.182Z" transform="translate(-308.847 -185.408)" fill="#fdf356" opacity="0.3"/>
  <path id="Path_12826" data-name="Path 12826" d="M264.413,146.144l1.2,2.426,2.677.389a.4.4,0,0,1,.219.675l-1.937,1.888.457,2.666a.4.4,0,0,1-.575.418l-2.395-1.259-2.395,1.259a.4.4,0,0,1-.575-.418l.457-2.666-1.937-1.888a.4.4,0,0,1,.219-.675l2.677-.389,1.2-2.426A.4.4,0,0,1,264.413,146.144Z" transform="translate(-253.146 -139.701)" fill="url(#radial-gradient-3)" style="mix-blend-mode: screen;isolation: isolate"/>
  <path id="Path_12827" data-name="Path 12827" d="M268.642,148.959l-2.677-.389-1.2-2.426a.4.4,0,0,0-.71,0l-1.2,2.426-2.677.389a.389.389,0,0,0-.294.21,3.7,3.7,0,0,0,1.024.889c1.7.957,5.935.793,7.111-.164a3.075,3.075,0,0,0,.86-.805A.389.389,0,0,0,268.642,148.959Z" transform="translate(-253.5 -139.701)" fill="url(#linear-gradient-6)" style="mix-blend-mode: screen;isolation: isolate"/>
</svg>
