<svg xmlns="http://www.w3.org/2000/svg" width="74" height="52.096" viewBox="0 0 74 52.096">
  <g id="coinhistory" transform="translate(530.783 -1181.869)">
    <path id="Path_13049" data-name="Path 13049" d="M-530.783,1335.878c.284-1.437.477-2.9.868-4.306a21.91,21.91,0,0,1,18.982-15.84,21.987,21.987,0,0,1,23.913,19.1,22.01,22.01,0,0,1-19.583,24.656,3.339,3.339,0,0,0-.479.121h-3.468a3.324,3.324,0,0,0-.478-.121,21.913,21.913,0,0,1-18.9-15.905c-.386-1.381-.572-2.82-.85-4.231Zm38.73,1.759a16.788,16.788,0,0,0-16.757-16.807,16.777,16.777,0,0,0-16.77,16.717,16.791,16.791,0,0,0,16.716,16.848A16.8,16.8,0,0,0-492.053,1337.636Z" transform="translate(0 -125.643)" fill="#f87758"/>
    <path id="Path_13051" data-name="Path 13051" d="M-354.472,1273.637c5.584,0,11.168-.015,16.751.007a4.017,4.017,0,0,1,3.753,5.568,3.866,3.866,0,0,1-3.711,2.517c-1.563.042-3.128.011-4.693.011q-14.333,0-28.665,0a4.051,4.051,0,0,1-4.236-3.849,4.032,4.032,0,0,1,4.121-4.247Q-362.811,1273.623-354.472,1273.637Z" transform="translate(-125.446 -91.763)" fill="#f87758"/>
    <path id="Path_13052" data-name="Path 13052" d="M-342.929,1497.3a36.688,36.688,0,0,0,3.132-2.911c1.28-1.493,2.41-3.117,3.565-4.713a.929.929,0,0,1,.851-.488q13.005.018,26.011.013a4.028,4.028,0,0,1,4.117,4.042,4.025,4.025,0,0,1-4.112,4.051q-10.982.023-21.965.007Z" transform="translate(-151.54 -265.651)" fill="#f87758"/>
    <path id="Path_13053" data-name="Path 13053" d="M-299.861,1443.425l1.8-8.089h.451q11.485,0,22.971,0a3.989,3.989,0,0,1,3.85,2.639,4.015,4.015,0,0,1-1.087,4.422,3.853,3.853,0,0,1-2.63,1.031q-12.641.012-25.282.005C-299.86,1443.437-299.93,1443.413-299.861,1443.425Z" transform="translate(-186.26 -222.208)" fill="#f87758"/>
    <path id="Path_13054" data-name="Path 13054" d="M-299.728,1381.438h.316q12.424,0,24.848,0a4.039,4.039,0,0,1,3.873,5.548,4.026,4.026,0,0,1-3.847,2.547c-3.876.011-7.753,0-11.629,0h-11.767Z" transform="translate(-186.39 -178.727)" fill="#f87758"/>
    <path id="Path_13055" data-name="Path 13055" d="M-342.954,1327.542h.552q11.874,0,23.749,0a4.027,4.027,0,0,1,3.988,5.1,3.973,3.973,0,0,1-3.8,2.991q-8.518.036-17.036,0a.839.839,0,0,1-.628-.321,24.837,24.837,0,0,0-6.649-7.524A1.4,1.4,0,0,1-342.954,1327.542Z" transform="translate(-151.52 -135.25)" fill="#f87758"/>
    <path id="Path_13058" data-name="Path 13058" d="M-477.475,1354.5A14.465,14.465,0,0,1-463,1368.986a14.472,14.472,0,0,1-14.434,14.451,14.46,14.46,0,0,1-14.468-14.485A14.456,14.456,0,0,1-477.475,1354.5Zm1.2,22.4a17.8,17.8,0,0,0,2.57-1.771,4.393,4.393,0,0,0,1.187-4.651c-.514-1.658-1.9-2.188-3.446-2.434-1.116-.177-2.243-.3-3.346-.529-.8-.168-1.012-.565-.96-1.37a2.745,2.745,0,0,1,3.384-2.469,2.95,2.95,0,0,1,2.149,2.04c.31.8.827,1.1,1.481.905a1.165,1.165,0,0,0,.7-1.638,5.247,5.247,0,0,0-3.707-3.572c-.126-1.839-.326-2.289-1.125-2.265-1.581.048-1.122,1.358-1.25,2.231a5.1,5.1,0,0,0-3.8,3.694,3.6,3.6,0,0,0,2.79,4.785,6.659,6.659,0,0,0,.707.139c1.047.152,2.1.254,3.141.457s1.323.7,1.129,1.721a2.618,2.618,0,0,1-2.118,2.2,2.605,2.605,0,0,1-2.811-1.024,5.722,5.722,0,0,1-.6-1.145,1.163,1.163,0,0,0-1.565-.745,1.168,1.168,0,0,0-.6,1.575c.05.161.116.317.182.472a5.307,5.307,0,0,0,3.524,3.128c.131,1.742.353,2.147,1.158,2.164C-476.659,1378.821-476.409,1378.4-476.273,1376.9Z" transform="translate(-31.363 -157.001)" fill="#f87758"/>
  </g>
</svg>
