<svg xmlns="http://www.w3.org/2000/svg" width="60" height="60" viewBox="0 0 60 60">
  <g id="coin_store" transform="translate(-1511 -1138)">
    <rect id="back" width="60" height="60" transform="translate(1511 1138)" fill="none"/>
    <path id="coinstore" d="M0,43.538v4.587C0,51.917,9.238,55,20.625,55S41.25,51.917,41.25,48.125V43.538c-4.437,3.126-12.547,4.587-20.625,4.587S4.437,46.664,0,43.538ZM34.375,13.75C45.762,13.75,55,10.667,55,6.875S45.762,0,34.375,0,13.75,3.083,13.75,6.875,22.988,13.75,34.375,13.75ZM0,32.27v5.543c0,3.792,9.238,6.875,20.625,6.875S41.25,41.6,41.25,37.813V32.27c-4.437,3.652-12.558,5.543-20.625,5.543S4.437,35.922,0,32.27Zm44.688,1.182C50.843,32.259,55,30.046,55,27.5V22.913c-2.492,1.762-6.155,2.965-10.312,3.706ZM20.625,17.188C9.238,17.188,0,21.033,0,25.781s9.238,8.594,20.625,8.594S41.25,30.529,41.25,25.781,32.012,17.188,20.625,17.188Zm23.558,6.048C50.628,22.075,55,19.8,55,17.188V12.6c-3.813,2.7-10.366,4.146-17.263,4.49C40.906,18.627,43.237,20.689,44.183,23.235Z" transform="translate(1513.188 1140.136)" fill="#f97b5e"/>
  </g>
</svg>
