<svg width="15" height="12" viewBox="0 0 15 12" fill="none" xmlns="http://www.w3.org/2000/svg">
<path d="M14.1063 0.830519C13.4603 0.130519 12.8743 -0.337482 12.1733 0.304518L5.01032 6.87556L3.20234 4.81758C2.57534 4.10458 1.94133 4.50962 1.22333 5.13362C0.505334 5.75762 -0.024692 6.36454 0.603308 7.07954L2.47132 9.20454L3.99534 10.9395C4.09307 11.0505 4.21194 11.141 4.34504 11.2055C4.47814 11.27 4.62279 11.3073 4.77048 11.3153C4.91818 11.3232 5.06595 11.3014 5.20518 11.2515C5.34441 11.2016 5.4723 11.1245 5.58134 11.0246L7.28132 9.4626L14.5103 2.83052C15.2143 2.18852 14.7523 1.52852 14.1063 0.830519Z" fill="black"/>
</svg>
