<svg xmlns="http://www.w3.org/2000/svg" width="74" height="98.747" viewBox="0 0 74 98.747">
  <g id="delete" transform="translate(621.436 -61)">
    <path id="Path_13059" data-name="Path 13059" d="M-558.435,159.747h-33.493c-.081-.047-.158-.127-.243-.138-5.565-.7-10.817-5.773-10.747-13.217.132-14.167.038-28.335.038-42.5v-1.317c-2.5,2.514-4.782,4.816-7.077,7.1a2.906,2.906,0,0,1-4.548-.008c-1.48-1.47-2.949-2.951-4.423-4.428-3.343-3.353-3.345-7.21,0-10.559,1.583-1.587,3.17-3.171,4.9-4.9-.9-.845-1.763-1.606-2.57-2.421a7.694,7.694,0,0,1,.014-11.395q5.019-5.058,10.066-10.087a7.683,7.683,0,0,1,11.447-.028c.813.805,1.6,1.641,2.43,2.5,1.417-1.423,2.763-2.709,4.032-4.067A10.073,10.073,0,0,1-583.651,61h2.31a10.593,10.593,0,0,1,5.067,3.456c1.032,1.1,2.126,2.141,3.19,3.209,1.771,1.778,1.783,3.281.024,5.044q-9.519,9.544-19.042,19.084c-.235.236-.453.49-.834.905h45.422c.03.313.069.53.069.747,0,18.055.026,36.109-.022,54.164a12.381,12.381,0,0,1-9.4,11.751Q-557.649,159.555-558.435,159.747Zm-6.746-33.548q0,8.481,0,16.962c0,1.962,1.16,3.272,2.877,3.273s2.89-1.323,2.894-3.269c.007-3.084,0-6.168,0-9.252q0-12.288.007-24.576a3.115,3.115,0,0,0-1.236-2.775,2.691,2.691,0,0,0-2.911-.244,2.83,2.83,0,0,0-1.635,2.725Q-565.178,117.622-565.181,126.2Zm-7.093-.012q0-8.529,0-17.058a2.868,2.868,0,0,0-2.175-3.014c-1.949-.487-3.591.93-3.593,3.138q-.011,14.408,0,28.816c0,1.767-.006,3.534,0,5.3a2.884,2.884,0,0,0,1.7,2.79,2.851,2.851,0,0,0,4.059-2.722C-572.26,137.688-572.275,131.938-572.274,126.188Zm-12.841.025q0-5.107,0-10.214c0-2.313.017-4.626-.008-6.938a2.844,2.844,0,0,0-2.15-2.939c-1.946-.5-3.609.9-3.611,3.11q-.019,17.008,0,34.016a4.439,4.439,0,0,0,.1.955,2.876,2.876,0,0,0,2.68,2.233,2.852,2.852,0,0,0,2.839-2.025,5.854,5.854,0,0,0,.142-1.526Q-585.107,134.548-585.115,126.212Zm-11.63-53.91c-.895-.877-1.763-1.774-2.682-2.616a1.856,1.856,0,0,0-2.75.029c-.427.387-.822.81-1.229,1.219q-4.553,4.561-9.1,9.124c-.919.923-1.124,1.926-.412,2.733.9,1.021,1.933,1.926,2.872,2.845Z" transform="translate(0)" fill="#f87758"/>
    <path id="Path_13060" data-name="Path 13060" d="M-413.308,133.993h-27.559a4.489,4.489,0,0,1,3.435-4.06q5.569-1.652,11.143-3.289c2.241-.661,4.478-1.339,6.726-1.973a4.761,4.761,0,0,1,6.252,4.674C-413.29,130.877-413.308,132.41-413.308,133.993Z" transform="translate(-134.135 -47.138)" fill="#f87758"/>
  </g>
</svg>
