<svg width="14" height="16" viewBox="0 0 14 16" fill="none" xmlns="http://www.w3.org/2000/svg">
<path d="M11.3907 6.72993L10.0768 5.38911C10.2594 5.23902 10.4065 5.05009 10.5074 4.83638C10.6084 4.62267 10.6608 4.38915 10.6608 4.15279V4.10298C10.6605 3.76041 10.5503 3.42705 10.3463 3.15181C10.1424 2.87657 9.85537 2.67416 9.52771 2.57417L9.79578 1.93306C9.86145 1.7757 9.88718 1.60425 9.87085 1.43452C9.85452 1.2648 9.79662 1.10187 9.70215 0.959915C9.60768 0.817964 9.47961 0.701645 9.32935 0.621048C9.17908 0.540451 9.01121 0.498179 8.8407 0.498001H4.26978C4.10187 0.498111 3.93642 0.538939 3.78784 0.617142C3.63926 0.695345 3.51202 0.808388 3.41687 0.946732C3.32172 1.08508 3.26157 1.24485 3.2417 1.41158C3.22183 1.5783 3.24277 1.74693 3.30273 1.90376L3.5697 2.60396C3.26298 2.71716 2.99829 2.92172 2.81128 3.1899C2.62427 3.45808 2.52389 3.77701 2.52368 4.10396V4.15376C2.525 4.56364 2.68369 4.95747 2.9668 5.25386L1.61572 6.77486C0.929353 7.546 0.550385 8.54279 0.550782 9.57515V10.25C0.550782 11.2313 0.940515 12.1723 1.6344 12.8662C2.32828 13.56 3.26943 13.9501 4.25073 13.9501H6.47571C6.28628 13.5896 6.15466 13.2012 6.08569 12.7998H4.25073C3.57539 12.7992 2.92786 12.5307 2.45032 12.0532C1.97278 11.5756 1.70427 10.9282 1.70374 10.2529V9.57808C1.70381 8.82803 1.97878 8.10387 2.47668 7.54292L4.0697 5.75191H8.82275L10.5708 7.53706C10.8113 7.78302 11.0093 8.06704 11.1567 8.37788C11.6773 8.54418 12.1578 8.81687 12.5677 9.17818C12.4584 8.25405 12.0442 7.39247 11.3907 6.72993V6.72993ZM8.66772 1.6479L8.30872 2.50288H4.76477L4.43774 1.6479H8.66772ZM9.50977 4.1479C9.5095 4.26664 9.46213 4.38035 9.37817 4.46431C9.29421 4.54827 9.1805 4.59588 9.06177 4.59615H4.12073C4.00191 4.59615 3.88797 4.54881 3.80396 4.4648C3.71994 4.38078 3.67273 4.26672 3.67273 4.1479V4.0981C3.6726 4.03923 3.68408 3.98064 3.70654 3.92622C3.72901 3.87181 3.76208 3.82234 3.80371 3.78072C3.84534 3.73909 3.89468 3.7065 3.9491 3.68404C4.00351 3.66157 4.06186 3.64972 4.12073 3.64986H9.07275C9.18948 3.65298 9.3004 3.70143 9.38184 3.78511C9.46327 3.86879 9.50883 3.98133 9.50879 4.0981L9.50977 4.1479Z" fill="black"/>
<path d="M9.94836 15.4982C9.27986 15.4982 8.62639 15.2997 8.07055 14.9283C7.51471 14.5569 7.0815 14.0289 6.82568 13.4112C6.56985 12.7936 6.50288 12.1143 6.6333 11.4586C6.76371 10.8029 7.08564 10.2008 7.55834 9.72814C8.03105 9.25544 8.63328 8.93326 9.28894 8.80284C9.94459 8.67243 10.6242 8.7394 11.2418 8.99523C11.8594 9.25105 12.3874 9.68451 12.7588 10.2403C13.1302 10.7962 13.3284 11.4493 13.3284 12.1178C13.3273 13.0139 12.9708 13.8733 12.3372 14.5069C11.7035 15.1406 10.8445 15.4971 9.94836 15.4982V15.4982ZM9.94836 9.72618C9.47527 9.72618 9.01274 9.86618 8.61938 10.129C8.22602 10.3919 7.91944 10.7657 7.7384 11.2027C7.55735 11.6398 7.50999 12.1206 7.60229 12.5846C7.69459 13.0486 7.92243 13.4747 8.25695 13.8092C8.59148 14.1437 9.01768 14.3717 9.48168 14.464C9.94569 14.5563 10.4267 14.5088 10.8638 14.3277C11.3008 14.1467 11.6744 13.8402 11.9373 13.4469C12.2001 13.0535 12.3403 12.5909 12.3403 12.1178C12.3395 11.4836 12.0873 10.8758 11.6389 10.4274C11.1905 9.97894 10.5825 9.72698 9.94836 9.72618V9.72618Z" fill="black"/>
<path d="M10.3799 11.5242V11.5081C10.3796 11.4604 10.3606 11.4148 10.3269 11.3811C10.2932 11.3474 10.2476 11.3282 10.2 11.3279H9.79187C9.76445 11.3279 9.7375 11.3341 9.71301 11.3465C9.68852 11.3588 9.66718 11.3771 9.65088 11.3992C9.62675 11.4304 9.61374 11.4686 9.61389 11.5081V11.5921C9.61389 11.6395 9.63281 11.685 9.66638 11.7185C9.69995 11.7521 9.74549 11.7708 9.79297 11.7708H10.2009C10.2485 11.7706 10.296 11.7748 10.3429 11.783C10.5464 11.8168 10.7313 11.9216 10.8647 12.0789C10.9982 12.2362 11.0716 12.4356 11.0719 12.6419V12.8919C11.0715 13.0982 10.998 13.298 10.8646 13.4554C10.7312 13.6127 10.5464 13.7175 10.3429 13.7517V13.7762C10.3429 13.8679 10.3065 13.9559 10.2416 14.0208C10.1767 14.0857 10.0887 14.1219 9.99695 14.1219C9.90518 14.1219 9.81708 14.0857 9.7522 14.0208C9.68731 13.9559 9.65088 13.8679 9.65088 13.7762V13.7517C9.44732 13.7177 9.26248 13.6128 9.12903 13.4554C8.99557 13.2979 8.92212 13.0983 8.92188 12.8919V12.8421C8.92188 12.7503 8.95843 12.6623 9.02332 12.5974C9.0882 12.5326 9.17618 12.4959 9.26794 12.4959C9.35971 12.4959 9.44769 12.5326 9.51257 12.5974C9.57746 12.6623 9.61389 12.7503 9.61389 12.8421V12.8919C9.61441 12.9392 9.63341 12.9844 9.66687 13.0179C9.70033 13.0513 9.74566 13.0706 9.79297 13.0711H10.2009C10.2285 13.0712 10.2557 13.0649 10.2804 13.0525C10.3051 13.0402 10.3264 13.0219 10.3429 12.9998C10.3675 12.9691 10.3808 12.9311 10.3809 12.8919V12.6419C10.3809 12.6023 10.3675 12.564 10.3429 12.533C10.3263 12.511 10.3049 12.4931 10.2803 12.4807C10.2556 12.4684 10.2285 12.4623 10.2009 12.4622H9.79297C9.7457 12.4624 9.6984 12.4582 9.65186 12.45C9.44846 12.4164 9.26361 12.3117 9.13013 12.1546C8.99664 11.9975 8.92329 11.7982 8.92297 11.5921V11.5081C8.92302 11.3016 8.99627 11.1016 9.12976 10.9441C9.26325 10.7866 9.44821 10.6816 9.65186 10.6477V10.5242C9.65186 10.4324 9.68841 10.344 9.7533 10.2791C9.81818 10.2142 9.90616 10.178 9.99792 10.178C10.0897 10.178 10.1777 10.2142 10.2426 10.2791C10.3074 10.344 10.3439 10.4324 10.3439 10.5242V10.6477C10.5474 10.6818 10.7324 10.7872 10.8658 10.9446C10.9993 11.102 11.0726 11.3017 11.0729 11.5081V11.5242C11.0729 11.616 11.0364 11.7039 10.9716 11.7688C10.9067 11.8337 10.8187 11.8699 10.7269 11.8699C10.6352 11.8699 10.5472 11.8337 10.4823 11.7688C10.4174 11.7039 10.3809 11.616 10.3809 11.5242H10.3799Z" fill="black"/>
</svg>
