<svg xmlns="http://www.w3.org/2000/svg" width="56.191" height="49.938" viewBox="0 0 56.191 49.938">
  <path id="edit_icon" d="M39.275,8.114l8.8,8.8a.954.954,0,0,1,0,1.346L26.769,39.565l-9.053,1a1.9,1.9,0,0,1-2.1-2.1l1-9.053L37.929,8.114A.954.954,0,0,1,39.275,8.114Zm15.8-2.234L50.319,1.119a3.815,3.815,0,0,0-5.385,0L41.48,4.573a.954.954,0,0,0,0,1.346l8.8,8.8a.954.954,0,0,0,1.346,0l3.453-3.453a3.815,3.815,0,0,0,0-5.385ZM37.461,33.771V43.7H6.243V12.484H28.662a1.2,1.2,0,0,0,.829-.341l3.9-3.9a1.171,1.171,0,0,0-.829-2H4.683A4.684,4.684,0,0,0,0,10.923V45.263a4.684,4.684,0,0,0,4.683,4.683H39.022A4.684,4.684,0,0,0,43.7,45.263V29.868a1.173,1.173,0,0,0-2-.829l-3.9,3.9A1.2,1.2,0,0,0,37.461,33.771Z" transform="translate(0 -0.007)" fill="#f98367"/>
</svg>
