<svg xmlns="http://www.w3.org/2000/svg" width="92.485" height="62.429" viewBox="0 0 92.485 62.429">
  <path id="email_icon" d="M.072,60.968V9.6q0-.089.268-1.695L30.573,33.767.429,62.752a7.558,7.558,0,0,1-.357-1.784ZM4.085,4.336A3.843,3.843,0,0,1,5.6,4.068H87.027a5.05,5.05,0,0,1,1.605.268L58.31,30.288,54.3,33.5l-7.937,6.51L38.421,33.5l-4.013-3.211ZM4.174,66.23,34.586,37.066l11.772,9.543,11.772-9.543L88.543,66.23a4.282,4.282,0,0,1-1.516.268H5.6a4.039,4.039,0,0,1-1.427-.268Zm57.97-32.463L92.289,7.9A5.323,5.323,0,0,1,92.557,9.6v51.37a6.835,6.835,0,0,1-.268,1.784Z" transform="translate(-0.072 -4.068)" fill="#f98367"/>
</svg>
