<svg xmlns="http://www.w3.org/2000/svg" width="73.97" height="66.725" viewBox="0 0 73.97 66.725">
  <g id="exam" transform="translate(706.352 -616.977)">
    <path id="Path_12974" data-name="Path 12974" d="M-699.472,709.671v-1.062q0-17.736,0-35.472a6.63,6.63,0,0,1,.05-1.044,2.48,2.48,0,0,1,2.489-2.19c1.5-.029,3.01-.026,4.514,0a2.535,2.535,0,0,1,2.594,2.434,2.554,2.554,0,0,1-2.421,2.7c-.638.052-1.285.009-2,.009V709.73h.864q6.651,0,13.3,0a2.589,2.589,0,0,1,2.975,2.562.882.882,0,0,0,.971.854h13.544c.623,0,.9-.332.974-.938a2.542,2.542,0,0,1,2.807-2.476q6.691-.012,13.382,0h.948V675.052h-.955c-5,0-10,.009-14.995-.005a2.6,2.6,0,0,1-2.671-3.377,2.453,2.453,0,0,1,2.349-1.763q9.513-.023,19.025,0a2.475,2.475,0,0,1,2.433,2.255,7.509,7.509,0,0,1,.039,1.045q0,17.7,0,35.391v1.129c1.361,0,2.643,0,3.925,0a2.6,2.6,0,0,1,2.926,2.922c.005,1.666.032,3.333-.017,5a7.724,7.724,0,0,1-7.44,7.548c-.215.011-.43.011-.645.011q-28.861,0-57.722,0c-4.08,0-7.36-2.479-7.925-6.361a40.282,40.282,0,0,1-.1-7.075,2.354,2.354,0,0,1,2.44-2.032c1.236-.027,2.472-.007,3.708-.013C-699.918,709.726-699.737,709.7-699.472,709.671Zm61.9,5.268c-.194-.023-.3-.045-.4-.045-6.179,0-12.358-.01-18.537.02a1.246,1.246,0,0,0-.828.546,5.916,5.916,0,0,1-5.123,2.842q-6.891.028-13.782,0a5.725,5.725,0,0,1-5.1-2.855,1.092,1.092,0,0,0-1.1-.567q-8.946.02-17.892.01c-.259,0-.518.024-.835.04,0,.682,0,1.3,0,1.909,0,2.3.919,3.21,3.229,3.21h57.143c.268,0,.539.013.805-.011a2.542,2.542,0,0,0,2.4-2.3C-637.526,716.829-637.574,715.916-637.574,714.939Z" transform="translate(0 -41.508)" fill="#f87758"/>
    <path id="Path_12975" data-name="Path 12975" d="M-598.735,622.579c1.131,0,2.171,0,3.21,0a2.578,2.578,0,0,1,2.838,2.778q.025,7.334,0,14.668a2.572,2.572,0,0,1-2.611,2.764,2.558,2.558,0,0,1-2.539-2.817c-.009-3.761,0-7.522,0-11.283v-.908h-.893v.958c0,8.838-.016,17.677.017,26.515a3.376,3.376,0,0,1-1.415,2.97c-1.268.948-2.475,1.978-3.724,2.954a2.57,2.57,0,0,1-3.466.011c-1.4-1.092-2.772-2.21-4.15-3.325a2.591,2.591,0,0,1-1-2.107q0-18.053.006-36.106a2.523,2.523,0,0,1,2.57-2.642q4.311-.065,8.623,0a2.524,2.524,0,0,1,2.532,2.672C-598.722,620.617-598.735,621.55-598.735,622.579Zm-6.779,33.3a4.563,4.563,0,0,1,.546-.4,2.2,2.2,0,0,0,1.1-2.255c-.048-7.031-.025-14.062-.025-21.093v-.924h-3.415v1.013c0,6.816.049,13.633-.038,20.448C-607.366,654.18-607.045,655.262-605.513,655.88Zm1.584-33.659h-3.319v3.705h3.319Z" transform="translate(-73.659)" fill="#f87758"/>
    <path id="Path_12976" data-name="Path 12976" d="M-524.623,760.546c-1.877,0-3.755.009-5.633,0A2.615,2.615,0,0,1-533.012,758a2.6,2.6,0,0,1,2.766-2.61q5.632-.013,11.265,0a2.589,2.589,0,0,1,2.785,2.582,2.593,2.593,0,0,1-2.794,2.574C-520.867,760.552-522.745,760.546-524.623,760.546Z" transform="translate(-135.998 -108.591)" fill="#f87758"/>
    <path id="Path_12977" data-name="Path 12977" d="M-524.57,808.452c-1.878,0-3.755.006-5.633,0a2.624,2.624,0,0,1-2.808-2.574,2.6,2.6,0,0,1,2.8-2.581q5.632-.011,11.265,0a2.583,2.583,0,0,1,2.755,2.611,2.584,2.584,0,0,1-2.743,2.543C-520.815,808.46-522.693,808.452-524.57,808.452Z" transform="translate(-136 -146.177)" fill="#f87758"/>
  </g>
</svg>
