<svg width="76" height="76" viewBox="0 0 76 76" fill="none" xmlns="http://www.w3.org/2000/svg">
<path d="M28.5 54.625C28.5056 49.2865 30.1441 44.0775 33.1957 39.6972C36.2472 35.3169 40.5657 31.9748 45.5715 30.1198C46.8146 27.3704 47.4714 24.3922 47.5 21.375C47.5 9.57125 47.5 0 33.25 0C19 0 19 9.57125 19 21.375C19 28.728 23.2655 36.0762 28.5 39.026V42.9448C12.388 44.2605 0 52.1787 0 61.75H29.488C28.8317 59.4319 28.4992 57.0342 28.5 54.625Z" fill="#777777"/>
<path d="M54.625 33.25C48.956 33.25 43.5192 35.502 39.5106 39.5106C35.502 43.5192 33.25 48.956 33.25 54.625C33.25 60.294 35.502 65.7308 39.5106 69.7394C43.5192 73.748 48.956 76 54.625 76C60.294 76 65.7308 73.748 69.7394 69.7394C73.748 65.7308 76 60.294 76 54.625C76 48.956 73.748 43.5192 69.7394 39.5106C65.7308 35.502 60.294 33.25 54.625 33.25ZM66.5 57H57V66.5H52.25V57H42.75V52.25H52.25V42.75H57V52.25H66.5V57Z" fill="#777777"/>
</svg>
