<svg xmlns="http://www.w3.org/2000/svg" xmlns:xlink="http://www.w3.org/1999/xlink" width="184.9" height="191.007" viewBox="0 0 184.9 191.007">
  <defs>
    <linearGradient id="linear-gradient" x1="0.5" y1="1.018" x2="0.5" y2="-0.001" gradientUnits="objectBoundingBox">
      <stop offset="0" stop-color="#424242"/>
      <stop offset="1" stop-color="#555"/>
    </linearGradient>
    <linearGradient id="linear-gradient-2" x1="0.5" y1="1.03" x2="0.5" y2="-0.009" xlink:href="#linear-gradient"/>
  </defs>
  <g id="giftbox" transform="translate(0 0.007)">
    <g id="bottom">
      <path id="Path_102" data-name="Path 102" d="M173.1,80v.2l-.7,8.5-8,94.6a8.744,8.744,0,0,1-8.9,7.7H30.6a8.734,8.734,0,0,1-8.9-7.6L12.4,88.7l-.8-8.5v-.1C11,75.2,15.2,71,20.4,71H164.2C169.4,71,173.5,75.2,173.1,80Z" fill="url(#linear-gradient)"/>
      <rect id="Rectangle_2" data-name="Rectangle 2" width="35.6" height="120.3" transform="translate(74.5 70.7)" fill="#f2784b"/>
    </g>
    <g id="top">
      <path id="Path_103" data-name="Path 103" d="M184.9,47.4l-2.1,30.1a3.163,3.163,0,0,1-3.1,3H4.9a3.18,3.18,0,0,1-3.1-3.1L0,47.4a2.745,2.745,0,0,1,.2-1.3,3.092,3.092,0,0,1,2.9-2.2H181.8a3,3,0,0,1,2.9,2.2A2.953,2.953,0,0,1,184.9,47.4Z" fill="url(#linear-gradient-2)"/>
      <path id="Path_104" data-name="Path 104" d="M162.8,24.1c0-.1-.1-.2-.1-.3a3.365,3.365,0,0,0-4.7-1.3c-16.2,9.2-30.9,13.2-43.1,14.6a53.824,53.824,0,0,0,16.9-11.9c6.4-7,8-14.3,4.4-19.5C132.8.8,128.6-.1,125.7,0c-7,.2-15.3,6.4-25.1,18.9C97,23.5,93.9,28,91.7,31.3c-2.2-3.3-5.3-7.9-8.9-12.4C72.9,6.4,64.7.3,57.7,0c-2.9-.1-7.1.8-10.5,5.7-3.6,5.3-2,12.6,4.4,19.5A53.824,53.824,0,0,0,68.5,37.1c-12.2-1.4-26.9-5.5-43.1-14.6a3.425,3.425,0,0,0-4.7,1.3,1.689,1.689,0,0,0-.2.5,3.459,3.459,0,0,0,1.6,4.2C44.4,41.2,64.2,44.7,79,44.7a90.606,90.606,0,0,0,10.9-.6c.6-.1,1.2-.1,1.8-.2a11.019,11.019,0,0,0,1.8.2,89.423,89.423,0,0,0,10.9.6c14.9,0,34.7-3.4,57.1-16.2A3.369,3.369,0,0,0,162.8,24.1ZM106,23.2C114,13,121.3,7.1,125.9,6.9h.2c1.2,0,2.7.4,4.3,2.7,1.6,2.4.2,6.6-3.8,10.9-5.1,5.6-15.3,12.1-29.5,15.2C99.2,32.5,102.4,27.9,106,23.2ZM56.7,20.6c-4-4.3-5.4-8.5-3.8-10.9C54.5,7.4,56,7,57.2,7h.2c2.7.1,8.9,2.3,19.9,16.2,3.7,4.7,6.9,9.3,9,12.6C72,32.6,61.8,26.1,56.7,20.6Z" fill="#f2784b"/>
      <path id="Path_105" data-name="Path 105" d="M161.4,28.5C139,41.2,119.2,44.7,104.3,44.7a90.606,90.606,0,0,1-10.9-.6c-.6-.1-1.2-.1-1.8-.2a11.019,11.019,0,0,1-1.8.2,89.423,89.423,0,0,1-10.9.6c-14.9,0-34.7-3.4-57.1-16.2a3.53,3.53,0,0,1-1.6-4.2c16.9,9.1,44.1,20.5,73,19.4C131.6,42.3,155,29.1,162.6,24A3.169,3.169,0,0,1,161.4,28.5Z" fill="#f2784b"/>
      <rect id="Rectangle_3" data-name="Rectangle 3" width="40.1" height="36.6" transform="translate(72.4 43.9)" fill="#f2784b"/>
      <path id="Path_106" data-name="Path 106" d="M184.7,46.1H.2a3.092,3.092,0,0,1,2.9-2.2H181.8A3,3,0,0,1,184.7,46.1Z" fill="#f48a63"/>
      <rect id="Rectangle_4" data-name="Rectangle 4" width="40.1" height="2.2" transform="translate(72.4 43.9)" fill="#f48a63"/>
    </g>
  </g>
</svg>
