<svg xmlns="http://www.w3.org/2000/svg" width="151" height="151" viewBox="0 0 151 151">
  <g id="guesstheword_icon" transform="translate(592 -299.913)">
    <path id="Path_11510" data-name="Path 11510" d="M-260.581,375.413h-28.352c.823,1.257,1.448,2.225,2.088,3.184a18.424,18.424,0,0,1,3.361,8.381,14.877,14.877,0,0,1-10,15.474A15,15,0,0,1-313.268,389.8a14.358,14.358,0,0,1,2.122-9.174c1-1.671,2.078-3.292,3.317-5.243h-2.018c-8.108,0-16.217-.031-24.324.028-1.435.01-1.957-.325-1.944-1.872.075-8.4.036-16.806.036-25.209V346.51c.99.784,1.716,1.325,2.4,1.91,3.7,3.144,7.874,4.737,12.781,4.014a15.244,15.244,0,0,0,12.5-12.152,14.9,14.9,0,0,0-7.482-15.692c-5.784-3.168-12.022-2.472-17.415,1.941-.823.673-1.648,1.343-2.79,2.274V299.913h70.486a7.352,7.352,0,0,1,5.014,5.6Z" transform="translate(-180.419 0)" fill="#f98367"/>
    <path id="Path_11511" data-name="Path 11511" d="M-402.835,642.633V614.3c-1.006.622-1.739,1.061-2.458,1.523-2.819,1.815-5.674,3.478-9.128,3.863a14.839,14.839,0,0,1-16.086-12.058,14.275,14.275,0,0,1,6.2-15.038c5.134-3.638,10.641-3.648,16.109-.56,1.734.979,3.384,2.1,5.355,3.341V593.5q0-9.875,0-19.751c0-1.918.008-1.923,1.974-1.925q7.96-.005,15.919,0c.52,0,1.04.047,1.662.078-3.391,10.323-1.274,18.932,7.924,24.841,6.958,4.47,14.455,4.282,21.225-.446,8.613-6.015,10.493-14.447,7.145-24.452h19.655v64.883a6.926,6.926,0,0,1-5.9,5.9Z" transform="translate(-113.665 -191.72)" fill="#f98367"/>
    <path id="Path_11512" data-name="Path 11512" d="M-592,494.916c1.768-4.557,3.247-5.569,8.146-5.569h20.212c-.847-1.31-1.468-2.287-2.105-3.253a17.858,17.858,0,0,1-3.335-8.391,13.978,13.978,0,0,1,7.014-13.939c9.542-5.787,21.111-.153,22.718,10.911a14.458,14.458,0,0,1-2.217,9.581c-.947,1.6-1.972,3.153-3.122,4.984.757.044,1.306.1,1.855.1,6.584.007,13.169.048,19.751-.029,1.511-.018,1.916.449,1.893,1.925-.085,5.354-.037,10.711-.045,16.066,0,.478-.045.955-.075,1.551-10.54-3.448-19.272-1.213-25.155,8.336-4.179,6.782-3.921,14.065.572,20.608,6.021,8.769,14.515,10.714,24.675,7.312v19.7h-65.768a7.357,7.357,0,0,1-5.014-5.6Z" transform="translate(0 -113.9)" fill="#f98367"/>
  </g>
</svg>
