<svg xmlns="http://www.w3.org/2000/svg" width="63.521" height="63.543" viewBox="0 0 63.521 63.543">
  <path id="howtoplay_icon" d="M555.083,311.294h3.723c1.085.139,2.175.243,3.254.42a31.765,31.765,0,1,1-35.946,38.945c-.451-1.836-.631-3.74-.937-5.612v-3.971c.12-.919.231-1.839.36-2.757a31.864,31.864,0,0,1,25.2-26.395C552.172,311.653,553.633,311.5,555.083,311.294Zm-.759,36.152c0,.372-.02.746,0,1.116a2.623,2.623,0,0,0,5.233-.007c.028-.433.009-.868.024-1.3a2.707,2.707,0,0,1,1.614-2.519,13.416,13.416,0,0,0,4.881-4.033c1.583-2.077,2.817-4.347,2.755-7.03a11.9,11.9,0,0,0-23.8.1,2.611,2.611,0,0,0,2.494,2.668,2.649,2.649,0,0,0,2.764-2.321,6.043,6.043,0,0,0,.054-.617,6.6,6.6,0,0,1,12.621-2.4,5.231,5.231,0,0,1-.215,5.105,9.6,9.6,0,0,1-3.907,3.785A7.832,7.832,0,0,0,554.324,347.446Zm5.242,11.471a2.622,2.622,0,1,0-2.61,2.65A2.585,2.585,0,0,0,559.566,358.917Z" transform="translate(-525.176 -311.294)" fill="#f97f62"/>
</svg>
