<svg xmlns="http://www.w3.org/2000/svg" width="63.955" height="63.213" viewBox="0 0 63.955 63.213">
  <g id="invite_friends" transform="translate(683.834 -325.412)">
    <path id="Path_11515" data-name="Path 11515" d="M-619.88,530.233v36.161a2.222,2.222,0,0,1-2.247,1.5q-29.714-.017-59.428-.009a2.025,2.025,0,0,1-2.279-2.239q0-17.335.015-34.671c0-.323.154-.819.38-.92s.709.1.962.3q14.5,11.9,28.972,23.837c1.248,1.028,2.06,1.033,3.305.008q14.48-11.926,28.955-23.858C-620.784,529.971-620.377,529.81-619.88,530.233Z" transform="translate(0 -179.274)" fill="#f97f62"/>
    <path id="Path_11516" data-name="Path 11516" d="M-586.591,325.412h37.224a2.289,2.289,0,0,1,1.539,2.411q-.038,13.081,0,26.161a1.521,1.521,0,0,1-.623,1.312q-9.383,7.644-18.744,15.315c-.712.582-.841.584-1.55,0q-9.384-7.692-18.774-15.377a1.459,1.459,0,0,1-.606-1.256q.024-13.081,0-26.161A2.273,2.273,0,0,1-586.591,325.412Zm6.146,17.532a9.085,9.085,0,0,0,1.83,5.536,22.529,22.529,0,0,0,10.01,7.38,2.233,2.233,0,0,0,1.5-.092,22.091,22.091,0,0,0,2.752-1.338,20.423,20.423,0,0,0,7.02-5.959,8.892,8.892,0,0,0,1.737-6.646,7.954,7.954,0,0,0-11.834-5.448.953.953,0,0,1-1.116-.01C-573.794,333.376-580.431,337.052-580.445,342.944Z" transform="translate(-83.871)" fill="#f97f62"/>
    <path id="Path_11517" data-name="Path 11517" d="M-659.494,466.529c0,1.108.021,2.217-.015,3.323-.009.27-.148.688-.336.761a1.047,1.047,0,0,1-.864-.192c-1.346-1.075-2.662-2.188-3.982-3.3-.562-.472-.556-.814.019-1.3,1.3-1.093,2.6-2.194,3.934-3.258a1.047,1.047,0,0,1,.858-.231,1.05,1.05,0,0,1,.37.8C-659.47,464.272-659.494,465.4-659.494,466.529Z" transform="translate(-16.41 -119.971)" fill="#f97f62"/>
    <path id="Path_11518" data-name="Path 11518" d="M-236.755,466.52c0-1.108-.024-2.217.016-3.323a1.076,1.076,0,0,1,.353-.814,1.02,1.02,0,0,1,.859.208c1.346,1.075,2.663,2.187,3.983,3.295.535.449.537.816,0,1.263-1.336,1.121-2.671,2.243-4.032,3.332a.955.955,0,0,1-.812.179.991.991,0,0,1-.355-.754C-236.777,468.777-236.755,467.648-236.755,466.52Z" transform="translate(-391.039 -120.001)" fill="#f97f62"/>
    <path id="Path_11519" data-name="Path 11519" d="M-491.2,436.988a3.708,3.708,0,0,1,2.382,1.226,1.974,1.974,0,0,0,3.2.014,3.9,3.9,0,0,1,4.8-.743,3.763,3.763,0,0,1,1.82,4.371,8.047,8.047,0,0,1-3.053,4.441c-1.5,1.167-3.152,2.136-4.755,3.166a.811.811,0,0,1-.675.053,18.379,18.379,0,0,1-6.731-5.169,6.008,6.008,0,0,1-1.3-3.082C-495.753,438.858-494.039,436.977-491.2,436.988Z" transform="translate(-164.636 -97.767)" fill="#f97f62"/>
  </g>
</svg>
