<svg xmlns="http://www.w3.org/2000/svg" width="60" height="70" viewBox="0 0 60 70">
  <path id="language_icon" d="M30.317,44.313q-.039.117-.488-.02t-1.23-.449l-.781-.352a23.4,23.4,0,0,1-3.4-1.914q-.273-.2-1.6-1.23t-1.484-1.113a66.548,66.548,0,0,1-5.234,7.07A29.039,29.039,0,0,1,12,50.6a3.1,3.1,0,0,1-.762.156,1.5,1.5,0,0,1-.723,0q.234-.156,3.2-3.594.82-.937,3.34-4.492a54.611,54.611,0,0,0,3.066-4.609q.664-1.172,1.992-3.848a30.446,30.446,0,0,0,1.406-3.027,32.1,32.1,0,0,0-4.3,1.289q-.312.078-1.074.293t-1.348.371a6.7,6.7,0,0,0-.664.2.664.664,0,0,0-.078.41.867.867,0,0,1-.039.371q-.2.391-1.211.586a3.15,3.15,0,0,1-1.836,0,1.648,1.648,0,0,1-1.094-.82,1.987,1.987,0,0,1-.2-.9,7.547,7.547,0,0,1,.957-.2,11.665,11.665,0,0,0,1.152-.234q2.266-.625,4.1-1.25,3.906-1.367,3.984-1.367a8.667,8.667,0,0,0,1.68-.762,17.668,17.668,0,0,1,1.719-.84q.352-.117.84-.312t.566-.215a.523.523,0,0,1,.234.02,4.445,4.445,0,0,1-.039,1.289,8.318,8.318,0,0,1-.488,1.055q-.488.977-1.035,2.09t-.664,1.309a58.585,58.585,0,0,1-3.008,5.117l2.5,1.094q.469.234,2.91,1.25t2.637,1.094q.156.039.41,1a2.959,2.959,0,0,1,.176,1.191ZM22.309,25.328a1.584,1.584,0,0,1-.156,1.094A3.541,3.541,0,0,1,20.2,27.907a6.271,6.271,0,0,1-2.344.469,3.233,3.233,0,0,1-1.914-1.016,2.938,2.938,0,0,1-.7-1.6l.039-.117a1.672,1.672,0,0,0,.762.2,3.4,3.4,0,0,0,1.035,0q.391-.078,2.266-.625a11.153,11.153,0,0,1,2.149-.547.771.771,0,0,1,.82.664Zm27.266,5.039,2.461,8.867-5.43-1.641ZM6.293,61.617,33.4,52.555V12.243l-27.109,9.1V61.618ZM54.77,49.235l3.984,1.211-7.07-25.664-3.906-1.211L39.34,44.508l3.984,1.211,1.758-4.3,8.242,2.539ZM35.121,11.657,57.5,18.844V4ZM47.27,63.336l6.172.508-2.109,6.25L49.77,67.516a28.957,28.957,0,0,1-10.781,4.219,18.721,18.721,0,0,1-3.555.469H32.153A26.4,26.4,0,0,1,24.36,70.68a25.94,25.94,0,0,1-7.168-3.32.814.814,0,0,1-.312-.625.755.755,0,0,1,.2-.527.654.654,0,0,1,.508-.215,2.2,2.2,0,0,1,.7.293q.547.293,1.192.645t.8.43a34.609,34.609,0,0,0,6.23,2.4,22.761,22.761,0,0,0,6.152.957,33.335,33.335,0,0,0,6.524-.566,32.2,32.2,0,0,0,6.133-1.973q.586-.273,1.191-.605t1.328-.742q.722-.41,1.113-.645Zm17.5-42.148V63.336L34.535,53.727q-.547.234-14.648,4.98T5.512,63.453a.707.707,0,0,1-.7-.508.3.3,0,0,0-.039-.117V20.719a1.744,1.744,0,0,1,.156-.391,1.757,1.757,0,0,1,.781-.43q4.141-1.367,5.82-1.953v-15l21.8,7.734q.078,0,6.27-2.148T51.938,4.293Q58.09,2.2,58.246,2.2q.781,0,.781.82V19.352Z" transform="translate(-4.77 -2.203)" fill="#f97b5e"/>
</svg>
