<svg xmlns="http://www.w3.org/2000/svg" width="73.988" height="73.982" viewBox="0 0 73.988 73.982">
  <path id="mobile_number" d="M76.341,62.432c-2.831-2.831-9.63-7.088-12.982-8.687-3.891-1.868-5.316-1.83-8.07.154-2.292,1.656-3.775,3.2-6.414,2.619-2.639-.559-7.839-4.507-12.885-9.534-5.046-5.046-8.975-10.247-9.534-12.885-.559-2.658.982-4.122,2.619-6.414,1.984-2.754,2.042-4.18.154-8.07-1.6-3.371-5.836-10.15-8.687-12.982C17.711,3.8,17.075,4.419,15.515,4.977a28.606,28.606,0,0,0-4.6,2.446C8.081,9.311,6.5,10.89,5.384,13.259c-1.1,2.369-2.369,6.78,4.1,18.3A102.1,102.1,0,0,0,27.438,55.5h0l.019.019.019.019h0A102.5,102.5,0,0,0,51.417,73.487c11.518,6.472,15.929,5.2,18.3,4.1s3.948-2.677,5.836-5.528A28.606,28.606,0,0,0,78,67.459C78.556,65.9,79.191,65.263,76.341,62.432Z" transform="translate(-4.49 -4.502)" fill="#f98367"/>
</svg>
