<svg xmlns="http://www.w3.org/2000/svg" width="23.689" height="28.302" viewBox="0 0 23.689 28.302">
  <g id="paypal" transform="translate(0 -51.291)">
    <path id="Path_8" data-name="Path 8" d="M20.34,53.414C19.1,52,16.8,51.291,13.619,51.291H4.775a1.517,1.517,0,0,0-1.238,1.061L0,75.522a.809.809,0,0,0,.707.884H6.19L7.605,67.74v.354a1.517,1.517,0,0,1,1.238-1.061H11.5c5.129,0,9.02-2.122,10.258-7.959v-.531h0c.177-2.3-.177-3.714-1.415-5.129" transform="translate(0 0)" fill="#263b80"/>
    <path id="Path_9" data-name="Path 9" d="M22.917,60.259h0v.531c-1.238,6.014-5.129,7.959-10.258,7.959H10.005A1.517,1.517,0,0,0,8.767,69.81L7,80.6a.648.648,0,0,0,.707.707h4.6a.99.99,0,0,0,1.061-.884v-.177l.884-5.483v-.354a.99.99,0,0,1,1.061-.884h.707c4.422,0,7.959-1.769,8.843-7.075.354-2.122.177-4.068-.884-5.306a1.811,1.811,0,0,0-1.061-.884" transform="translate(-1.339 -1.716)" fill="#139ad6"/>
    <path id="Path_10" data-name="Path 10" d="M22.14,59.476c-.177,0-.354-.177-.531-.177a.65.65,0,0,1-.531-.177,9.344,9.344,0,0,0-2.3-.177h-6.9a.65.65,0,0,0-.531.177.973.973,0,0,0-.531.884L9.405,69.2v.354A1.517,1.517,0,0,1,10.643,68.5H13.3c5.129,0,9.02-2.122,10.258-7.959a.65.65,0,0,1,.177-.531c-.354-.177-.531-.354-.884-.354-.531-.177-.531-.177-.707-.177" transform="translate(-1.8 -1.464)" fill="#232c65"/>
  </g>
</svg>
