<svg id="paytm" xmlns="http://www.w3.org/2000/svg" width="35" height="10.97" viewBox="0 0 35 10.97">
  <path id="Path_3624" data-name="Path 3624" d="M34.882,3.236a2.332,2.332,0,0,0-2.2-1.561H32.66a2.323,2.323,0,0,0-1.681.717A2.325,2.325,0,0,0,29.3,1.675h-.021a2.318,2.318,0,0,0-1.52.565V2.061a.343.343,0,0,0-.342-.318h-1.56a.345.345,0,0,0-.345.346v8.471a.345.345,0,0,0,.345.346h1.56a.343.343,0,0,0,.34-.3V4.526a.547.547,0,0,1,0-.061.568.568,0,0,1,.538-.522h.288a.607.607,0,0,1,.329.128.574.574,0,0,1,.211.456l.006,6.051a.346.346,0,0,0,.345.346h1.56a.345.345,0,0,0,.343-.329V4.517a.573.573,0,0,1,.254-.487.634.634,0,0,1,.287-.1H32.2a.57.57,0,0,1,.541.583l.006,6.043a.345.345,0,0,0,.345.346h1.56A.345.345,0,0,0,35,10.56v-6.5a2.171,2.171,0,0,0-.118-.825M24.322,1.765H23.43V.315a.31.31,0,0,0-.374-.308c-.989.271-.791,1.641-2.6,1.758h-.175a.361.361,0,0,0-.076.009h0a.344.344,0,0,0-.27.335v1.56a.346.346,0,0,0,.346.345h.941v6.615a.341.341,0,0,0,.341.341h1.542a.341.341,0,0,0,.34-.341V4.014h.874a.345.345,0,0,0,.345-.345V2.109a.345.345,0,0,0-.345-.345" fill="#00baf2"/>
  <path id="Path_3625" data-name="Path 3625" d="M18.709,1.765h-1.56a.345.345,0,0,0-.344.345V5.335a.365.365,0,0,1-.365.36h-.653a.365.365,0,0,1-.366-.365l-.006-3.22a.345.345,0,0,0-.345-.345H13.51a.345.345,0,0,0-.345.345V5.645a2.214,2.214,0,0,0,2.3,2.3s1.008,0,1.039.006a.363.363,0,0,1,.005.721l-.026.005L14.2,8.685a.345.345,0,0,0-.345.345v1.559a.344.344,0,0,0,.345.345h2.55a2.213,2.213,0,0,0,2.3-2.3V2.109a.345.345,0,0,0-.345-.345M3.611,4.623v.963a.366.366,0,0,1-.365.366h-.99V4.023h.99a.365.365,0,0,1,.365.365Zm.137-2.859H.338A.338.338,0,0,0,0,2.1V3.631s0,.006,0,.009,0,.015,0,.021v6.918a.336.336,0,0,0,.316.346H1.9a.345.345,0,0,0,.345-.345l.006-2.371H3.748a2.024,2.024,0,0,0,2.119-2.12v-2.2A2.027,2.027,0,0,0,3.748,1.764Zm6.335,6.521v.244a.36.36,0,0,1-.006.057.361.361,0,0,1-.362.286H9.066A.357.357,0,0,1,8.7,8.529V8.234s0-.007,0-.011V7.193a.355.355,0,0,1,.367-.341h.649a.356.356,0,0,1,.368.343ZM9.835,1.773H7.67a.336.336,0,0,0-.346.324V2.7s0,.008,0,.012,0,.009,0,.013V3.56a.356.356,0,0,0,.367.343H9.752a.359.359,0,0,1,.31.33v.2a.345.345,0,0,1-.3.321H8.74A2.165,2.165,0,0,0,6.416,6.922V8.736a2.044,2.044,0,0,0,2.179,2.155h2.829a.89.89,0,0,0,.919-.858V4.114c0-1.435-.74-2.341-2.508-2.341Z" fill="#1f336b"/>
</svg>
