<svg xmlns="http://www.w3.org/2000/svg" width="60" height="60" viewBox="0 0 60 60">
  <g id="rewards" transform="translate(71 -2541)">
    <rect id="back" width="60" height="60" transform="translate(-71 2541)" fill="none"/>
    <g id="icons" transform="translate(427.202 2359.22)">
      <path id="Path_115" data-name="Path 115" d="M-382.651,432.281q0-10.353,0-20.707c0-1.338.6-1.941,1.918-1.942h4.523v.647q0,6.84,0,13.679a1.641,1.641,0,0,0,.839,1.565,1.5,1.5,0,0,0,1.627-.049,2.246,2.246,0,0,0,.5-.479,2.313,2.313,0,0,1,3.736,0,1.608,1.608,0,0,0,1.884.639,1.621,1.621,0,0,0,1.08-1.675q0-6.813,0-13.626v-.7h2.269c.769,0,1.538,0,2.307,0a1.657,1.657,0,0,1,1.865,1.889q0,10.38,0,20.76Z" transform="translate(-96.833 -193.001)" fill="#f97b5e"/>
      <path id="Path_116" data-name="Path 116" d="M-495.714,455.638a2.057,2.057,0,0,1,2.16-1.2c3.4.041,6.791.016,10.187.016h.644v16.209h-11.81a2.474,2.474,0,0,1-1.181-1.181Z" transform="translate(0 -231.386)" fill="#f97b5e"/>
      <path id="Path_117" data-name="Path 117" d="M-202.946,490V477.036c.2-.01.373-.025.545-.025q5.283,0,10.566,0a1.656,1.656,0,0,1,1.879,1.872c0,2.985-.027,5.971.016,8.955a2.057,2.057,0,0,1-1.2,2.161Z" transform="translate(-250.751 -250.719)" fill="#f97b5e"/>
      <path id="Path_118" data-name="Path 118" d="M-391.186,184.28a1.671,1.671,0,0,1,1.584,1.091c1.114,2.495,2.254,4.978,3.368,7.473a.746.746,0,0,0,.657.5c2.5.36,4.988.75,7.483,1.123a1.623,1.623,0,0,1,1.431,1.124,1.6,1.6,0,0,1-.5,1.747c-1.811,1.783-3.617,3.57-5.437,5.343a.73.73,0,0,0-.234.747c.431,2.5.827,5,1.251,7.505a1.6,1.6,0,0,1-.633,1.7,1.611,1.611,0,0,1-1.82.058c-2.155-1.125-4.322-2.229-6.467-3.374a1.231,1.231,0,0,0-1.321-.013q-3.19,1.71-6.429,3.329a2.394,2.394,0,0,1-1.275.256,1.547,1.547,0,0,1-1.257-1.87c.414-2.538.826-5.077,1.265-7.612a.731.731,0,0,0-.25-.742c-1.806-1.762-3.6-3.538-5.4-5.3a1.616,1.616,0,0,1-.486-1.89,1.605,1.605,0,0,1,1.356-1c2.442-.359,4.882-.737,7.326-1.083a1.059,1.059,0,0,0,.928-.711c1.081-2.451,2.2-4.883,3.3-7.328A1.655,1.655,0,0,1-391.186,184.28Z" transform="translate(-77.03)" fill="#f97b5e"/>
      <path id="Path_119" data-name="Path 119" d="M-311.956,421.156h-3.163V409.938h3.163Z" transform="translate(-154.681 -193.274)" fill="#f97b5e"/>
    </g>
  </g>
</svg>
