<svg xmlns="http://www.w3.org/2000/svg" width="62.766" height="62.766" viewBox="0 0 62.766 62.766">
  <path id="share_app" d="M62.766,8.975V58.291a6.725,6.725,0,0,1-6.725,6.725H6.725A6.725,6.725,0,0,1,0,58.291V8.975A6.725,6.725,0,0,1,6.725,2.25H56.041A6.725,6.725,0,0,1,62.766,8.975ZM42.591,39.237A7.817,7.817,0,0,0,37.3,41.293L27.777,35.58a7.893,7.893,0,0,0,0-3.894L37.3,25.973a7.823,7.823,0,1,0-2.308-3.843l-9.521,5.713a7.846,7.846,0,1,0,0,11.58l9.521,5.713a7.847,7.847,0,1,0,7.6-5.9Z" transform="translate(0 -2.25)" fill="#f9896e"/>
</svg>
