<svg xmlns="http://www.w3.org/2000/svg" width="28" height="28" viewBox="0 0 28 28">
  <g id="statistics" transform="translate(619.111 -214)">
    <path id="Path_12978" data-name="Path 12978" d="M-619.079,382.531a.643.643,0,0,1,.083-.186.873.873,0,0,1,.431-.334.81.81,0,0,1,.256-.049h.041c.226.005.453,0,.68,0h.164v-.348q0-4.333,0-8.666a1.248,1.248,0,0,1,.051-.43.762.762,0,0,1,.748-.537c1.111-.005,2.222.006,3.333-.006a.865.865,0,0,1,.816.854c-.014,1.307,0,2.614,0,3.922q0,2.427,0,4.854v.34h1.612c0-.112,0-.219,0-.325q0-2.7,0-5.4a1.3,1.3,0,0,1,.039-.378.793.793,0,0,1,.784-.567q1.653-.005,3.305,0a.8.8,0,0,1,.814.816c.006.32,0,.64,0,.96q0,2.276,0,4.553v.342h1.6c0-.116.011-.232.011-.347q0-5.91,0-11.82c0-.1,0-.2,0-.3a.8.8,0,0,1,.79-.784q1.68-.011,3.36,0a.8.8,0,0,1,.791.783c0,.1,0,.2,0,.3q0,5.9,0,11.793v.374h1.6c0-.109.012-.224.012-.339q0-4.635,0-9.27,0-3.826,0-7.652a.894.894,0,0,1,.25-.7.759.759,0,0,1,.537-.233c1.129,0,2.258-.005,3.387,0a.8.8,0,0,1,.77.775c0,.109,0,.219,0,.329q0,8.351,0,16.7c0,.118,0,.236,0,.388a4.618,4.618,0,0,0,.566.014,1.482,1.482,0,0,1,.573.041.972.972,0,0,1,.36.247.85.85,0,0,1,.2.538.8.8,0,0,1-.074.4.842.842,0,0,1-.492.432.312.312,0,0,1-.066,0h-24.412c-.5,0-1,0-1.5,0-.217,0-.436.012-.653,0a.818.818,0,0,1-.733-.428.789.789,0,0,1-.07-.361A1.085,1.085,0,0,1-619.079,382.531Z" transform="translate(0 -141.626)" fill="#f88b73"/>
    <path id="Path_12979" data-name="Path 12979" d="M-565.732,214c.119.042.24.08.357.127a2.439,2.439,0,0,1,1.518,1.593,2.329,2.329,0,0,1-.295,2.074,2.39,2.39,0,0,1-1.938,1.1,2.371,2.371,0,0,1-1.338-.3c-.047-.027-.1-.046-.167-.078L-570.4,220.6a2.428,2.428,0,0,1-.761,2.569,2.452,2.452,0,0,1-2.622.415l-3.284,3.257a2.386,2.386,0,0,1-.538,2.735,2.39,2.39,0,0,1-2.6.563,2.365,2.365,0,0,1-1.262-1.026,2.438,2.438,0,0,1-.346-1.57l-2.368-1.175a2.534,2.534,0,0,1-3.45-.014,2.437,2.437,0,0,1-.539-2.792,2.467,2.467,0,0,1,2.69-1.411,2.39,2.39,0,0,1,1.563.961,2.429,2.429,0,0,1,.469,1.753l2.382,1.182a2.532,2.532,0,0,1,2.734-.469l3.273-3.246a2.371,2.371,0,0,1,.543-2.762,2.46,2.46,0,0,1,3.1-.32l2.783-2.071c-.024-.3-.061-.563-.063-.822a2.427,2.427,0,0,1,1.752-2.267,1.989,1.989,0,0,0,.225-.091Z" transform="translate(-29.047)" fill="#f88b73"/>
  </g>
</svg>
