<svg xmlns="http://www.w3.org/2000/svg" width="60" height="60" viewBox="0 0 60 60">
  <g id="theme" transform="translate(-1511 -1138)">
    <rect id="back" width="60" height="60" transform="translate(1511 1138)" fill="none"/>
    <g id="theme-2" data-name="theme" transform="translate(1970.619 499.215)">
      <path id="Path_89" data-name="Path 89" d="M-433.161,641.785q-.014,2.878-.027,5.756c0,.212,0,.424,0,.672H-456.6v-.493c0-1.256.043-2.513-.014-3.766a2.019,2.019,0,0,1,1.2-2.168Z" transform="translate(0)" fill="#f97b5e"/>
      <path id="Path_90" data-name="Path 90" d="M-188.825,824.1a10.218,10.218,0,0,1-.387,1.223,4.686,4.686,0,0,1-4.467,2.968c-3.133.04-6.267.01-9.4.011a1.662,1.662,0,0,0-1.873,1.89c0,.427,0,.854,0,1.311h-3.141c-.681-3.788,1.666-6.391,4.767-6.425,3.133-.034,6.267-.007,9.4-.008a1.663,1.663,0,0,0,1.875-1.889c0-3.014,0-6.027,0-9.133.2.083.363.136.51.21a4.845,4.845,0,0,1,2.595,3.253c.03.116.08.228.121.341Z" transform="translate(-212.793 -147.623)" fill="#f97b5e"/>
      <path id="Path_91" data-name="Path 91" d="M-229.352,967.974a2.043,2.043,0,0,1-1.2-2.168c.052-1.9.013-3.8.016-5.7a1.643,1.643,0,0,1,1.83-1.823q3.008,0,6.015,0a1.644,1.644,0,0,1,1.83,1.823c0,1.9-.036,3.8.016,5.7a2.047,2.047,0,0,1-1.2,2.168Z" transform="translate(-193.643 -271.189)" fill="#f97b5e"/>
      <path id="Path_92" data-name="Path 92" d="M-265.695,641.785a1.891,1.891,0,0,1,1.272,2.062c-.037,1.273-.008,2.547-.01,3.821,0,.175-.015.35-.024.552h-6.4v-6.435Z" transform="translate(-159.117)" fill="#f97b5e"/>
      <path id="Path_93" data-name="Path 93" d="M-456.494,709.423h33.045v6.659h-.577c-1.577,0-3.153-.007-4.73,0a4.832,4.832,0,0,0-4.941,4.932q-.018,4.766,0,9.532a4.833,4.833,0,0,0,4.9,4.922c1.772.013,3.544,0,5.415,0a18.489,18.489,0,0,1-.1,2,1.517,1.517,0,0,1-1.443,1.23c-.16.012-.322.006-.484.006h-29.079c-1.414,0-2-.58-2-1.979q0-13.329,0-26.659Zm11.347,9.784c1.613,0,3.225,0,4.838,0a1.63,1.63,0,0,0,1.766-1.621,1.632,1.632,0,0,0-1.777-1.609q-4.785-.005-9.569,0a1.629,1.629,0,0,0-1.765,1.62,1.634,1.634,0,0,0,1.776,1.609C-448.3,719.21-446.724,719.207-445.147,719.207Zm0,6.464c1.613,0,3.226,0,4.838,0a1.632,1.632,0,0,0,1.769-1.618,1.631,1.631,0,0,0-1.774-1.611q-4.785-.005-9.569,0a1.63,1.63,0,0,0-1.768,1.617,1.633,1.633,0,0,0,1.773,1.612C-448.3,725.674-446.727,725.67-445.15,725.67Zm.01,6.464c1.595,0,3.19,0,4.785,0a1.641,1.641,0,0,0,1.812-1.629,1.634,1.634,0,0,0-1.785-1.6q-4.785-.005-9.569,0a1.628,1.628,0,0,0-1.757,1.627,1.636,1.636,0,0,0,1.783,1.6C-448.293,732.138-446.716,732.134-445.14,732.134Z" transform="translate(-0.107 -57.982)" fill="#f97b5e"/>
      <path id="Path_94" data-name="Path 94" d="M-264.1,791.21q-4.674,0-9.348,0a1.671,1.671,0,0,1-1.9-1.915q0-4.575,0-9.151a1.651,1.651,0,0,1,1.846-1.861q9.455,0,18.91,0a1.642,1.642,0,0,1,1.821,1.833q0,4.629,0,9.258a1.644,1.644,0,0,1-1.82,1.835Q-259.347,791.213-264.1,791.21Z" transform="translate(-155.298 -116.964)" fill="#f97b5e"/>
    </g>
  </g>
</svg>
