<svg xmlns="http://www.w3.org/2000/svg" width="167" height="167.087" viewBox="0 0 167 167.087">
  <g id="true_false_icon" transform="translate(620.003 -230.118)">
    <path id="Path_11513" data-name="Path 11513" d="M-331.6,288.2c-.308,1.925-.588,3.854-.927,5.773-3.938,22.3-22.787,40.422-45.258,43.528-28.525,3.942-54.276-13.872-60.605-41.925-5.627-24.943,8.349-51.656,32.029-61.286a53.236,53.236,0,0,1,15.587-3.894,6.885,6.885,0,0,0,1.1-.273h7.831c.852.129,1.7.279,2.557.383a54.579,54.579,0,0,1,46.8,44.253c.337,1.863.6,3.74.894,5.611Zm-37.579,5.673c-2.87-2.857-5.7-5.713-8.579-8.513-.794-.772-.921-1.344-.033-2.116.859-.747,1.623-1.6,2.434-2.408,2.075-2.056,4.153-4.109,6.09-6.025l-6.957-7.183c-2.846,2.9-5.679,5.752-8.46,8.651-.764.8-1.342.928-2.116.038-.747-.86-1.606-1.622-2.408-2.434-2.054-2.077-4.1-4.157-6.015-6.092l-7.126,6.894c2.879,2.866,5.705,5.723,8.585,8.523.794.773.914,1.343.033,2.118-.937.825-1.776,1.76-2.665,2.639-2,1.977-4,3.949-5.861,5.781l6.975,7.2c2.839-2.9,5.669-5.753,8.447-8.657.769-.8,1.337-.9,2.117-.032.941,1.052,1.992,2.005,2.984,3.012,1.861,1.886,3.713,3.779,5.463,5.56Z" transform="translate(-121.404)" fill="#f98367"/>
    <path id="Path_11514" data-name="Path 11514" d="M-553.146,450.506c-.535.561-.971,1.038-1.427,1.495-5,5-10.017,9.975-14.973,15.014-.944.959-1.53,1-2.477.011-2.739-2.859-5.573-5.625-8.291-8.348l-6.54,6.585,16.416,16.391c.108-.1.6-.486,1.038-.926q11.253-11.238,22.478-22.5c.871-.877,1.482-1.1,2.584-.287a62.212,62.212,0,0,0,30.3,11.9c1.526.172,1.73.78,1.558,2.09-3.127,23.761-20.442,42.385-43.976,46.694-16.679,3.054-31.628-1.288-44.523-12.211A51.674,51.674,0,0,1-619.5,472.591c-2.369-18.785,3.746-34.61,17.71-47.311A52.955,52.955,0,0,1-572.721,412c1.5-.208,2.2-.047,2.406,1.728a62.644,62.644,0,0,0,16.453,35.842C-553.646,449.8-553.471,450.077-553.146,450.506Z" transform="translate(0 -122.372)" fill="#f98367"/>
  </g>
</svg>
