<svg xmlns="http://www.w3.org/2000/svg" width="73.973" height="63.602" viewBox="0 0 73.973 63.602">
  <g id="vibrate_icon" transform="translate(961.118 -201.153)">
    <path id="Path_11520" data-name="Path 11520" d="M-780.49,264.755h-29.94a1.336,1.336,0,0,0-.322-.178,4.65,4.65,0,0,1-3.41-4.755c.042-1.323.008-2.649.009-3.974q.009-24.841.015-49.682a5.54,5.54,0,0,1,.667-2.865,5.2,5.2,0,0,1,2.793-2.148h30.562a15.177,15.177,0,0,1,2.267,1.466,4.623,4.623,0,0,1,1.24,3.644q-.018,25.358,0,50.716c0,1.159.02,2.319-.03,3.475a4.1,4.1,0,0,1-1.843,3.354A13.821,13.821,0,0,1-780.49,264.755Zm-2.236-34.585h.013q0-11.055,0-22.111c0-.912,0-.913-.923-.913q-11.8,0-23.6,0c-.593,0-.827.139-.826.794q.035,22.2.032,44.408c0,.813.032.843.836.843q11.762.006,23.524.009c.941,0,.944,0,.944-.981Q-782.725,241.195-782.726,230.17Zm-12.59,27.331c-.681,0-1.363-.017-2.044,0a1.6,1.6,0,0,0-1.74,1.557,1.547,1.547,0,0,0,1.668,1.552q2.046.059,4.094,0a1.554,1.554,0,0,0,1.672-1.552,1.575,1.575,0,0,0-1.669-1.558C-793.994,257.48-794.655,257.5-795.316,257.5Z" transform="translate(-128.698 0)" fill="#fa8e76"/>
    <path id="Path_11521" data-name="Path 11521" d="M-961.118,370.537c.162-1.7.219-3.425.513-5.105.337-1.929.853-3.83,1.354-5.726a1.47,1.47,0,0,1,1.86-1.111,1.5,1.5,0,0,1,1.033,1.961c-.351,1.446-.786,2.874-1.072,4.332a30.156,30.156,0,0,0,.1,12.2c.284,1.333.684,2.641,1,3.968a1.451,1.451,0,0,1-.654,1.664,1.382,1.382,0,0,1-1.725-.107,2.4,2.4,0,0,1-.6-.984,34.524,34.524,0,0,1-1.7-9.807,8.524,8.524,0,0,0-.109-.911Z" transform="translate(0 -137.831)" fill="#fa8e76"/>
    <path id="Path_11522" data-name="Path 11522" d="M-398.924,372a34.483,34.483,0,0,1-1.731,9.85,1.533,1.533,0,0,1-1.939,1.177,1.476,1.476,0,0,1-.946-2.041,34.917,34.917,0,0,0,1.522-7.65,31.543,31.543,0,0,0-1.135-11.175c-.148-.517-.3-1.032-.424-1.556a1.465,1.465,0,0,1,.931-1.8,1.462,1.462,0,0,1,1.863.91c.377,1.115.7,2.252.972,3.4A36.949,36.949,0,0,1-398.924,372Z" transform="translate(-488.221 -138.002)" fill="#fa8e76"/>
    <path id="Path_11523" data-name="Path 11523" d="M-446.146,384.694a29.771,29.771,0,0,1-1.418,8.905,1.536,1.536,0,0,1-1.368,1.249,1.293,1.293,0,0,1-1.456-.809,3.077,3.077,0,0,1-.021-1.437c.329-1.722.822-3.418,1.056-5.151a24.532,24.532,0,0,0-.976-10.535,5.885,5.885,0,0,1-.184-.72,1.486,1.486,0,0,1,1.026-1.748,1.483,1.483,0,0,1,1.827.985,23.39,23.39,0,0,1,.681,2.319A29.411,29.411,0,0,1-446.146,384.694Z" transform="translate(-447.153 -151.716)" fill="#fa8e76"/>
    <path id="Path_11524" data-name="Path 11524" d="M-911.372,384.5a31.367,31.367,0,0,1,1.5-8.967,1.511,1.511,0,0,1,1.576-1.225,1.376,1.376,0,0,1,1.364,1.134,3.035,3.035,0,0,1-.133,1.273,26.376,26.376,0,0,0-1.159,9.366,26.631,26.631,0,0,0,1.226,6.5,1.647,1.647,0,0,1-.313,1.79,1.477,1.477,0,0,1-2.505-.678c-.483-1.835-.91-3.689-1.244-5.556C-911.271,386.945-911.274,385.713-911.372,384.5Z" transform="translate(-43.566 -151.643)" fill="#fa8e76"/>
    <path id="Path_11525" data-name="Path 11525" d="M-688.769,272.14c-.661,0-1.323.014-1.984,0a1.5,1.5,0,0,1-1.672-1.454,1.5,1.5,0,0,1,1.611-1.518q2.045-.049,4.092,0a1.541,1.541,0,0,1,1.628,1.517,1.514,1.514,0,0,1-1.63,1.447c-.681.024-1.364,0-2.046,0Z" transform="translate(-235.315 -59.542)" fill="#fa8e76"/>
    <path id="Path_11526" data-name="Path 11526" d="M-592.934,262.184a1.448,1.448,0,0,1-1.44,1.464,1.469,1.469,0,0,1-1.5-1.475,1.491,1.491,0,0,1,1.479-1.445A1.483,1.483,0,0,1-592.934,262.184Z" transform="translate(-319.868 -52.174)" fill="#fa8e76"/>
  </g>
</svg>
