<svg width="12" height="12" viewBox="0 0 12 12" fill="none" xmlns="http://www.w3.org/2000/svg">
<path d="M11.1085 0.818612C10.5465 0.208612 10.0365 -0.202349 9.42653 0.358651L0.311541 8.75861C-0.29846 9.32061 0.0815483 9.85866 0.644548 10.4677C1.20655 11.0777 1.7385 11.5297 2.3445 10.9677L11.4595 2.56764C12.0725 2.00564 11.6705 1.42761 11.1085 0.818612Z" fill="black"/>
<path d="M0.658317 0.818612C1.22032 0.208612 1.73032 -0.202349 2.34032 0.358651L11.4553 8.75861C12.0653 9.32061 11.6853 9.85866 11.1223 10.4677C10.5603 11.0777 10.0284 11.5297 9.42235 10.9677L0.307364 2.56764C-0.305636 2.00564 0.0963166 1.42761 0.658317 0.818612Z" fill="black"/>
</svg>
